<svg width="85" height="40" viewBox="0 0 85 40" fill="none" xmlns="http://www.w3.org/2000/svg">
<path d="M15.7833 5.21397C15.2535 5.21397 14.8204 5.62843 14.8204 6.14237H57.6084L56.4985 5.21397H15.779H15.7833Z" fill="#0132C5"/>
<path d="M15.7833 7.65931C15.2535 7.65931 14.8204 7.24484 14.8204 6.7309H57.6084L56.4985 7.65931H15.779H15.7833Z" fill="#0132C5"/>
<path d="M70.1417 6.3496L69.7675 5.82738C69.6246 5.66988 69.4522 5.55797 69.2672 5.49166L65.3908 4.36846L62.557 2.61113L61.0603 1.68273L59.841 0.928397L58.6385 0.182366C58.4493 0.0621707 58.2139 0 57.97 0H33.799C33.345 0 32.975 0.414461 32.975 0.928397H57.5748L58.7941 1.68273H27.4084C26.9543 1.68273 26.5843 2.09719 26.5843 2.61113H60.2909L61.5059 3.36545H21.0135C20.5594 3.36545 20.1895 3.77992 20.1895 4.29386H57.2427L60.0176 6.44493L57.2427 8.596H20.1895C20.1895 9.10993 20.5594 9.5244 21.0135 9.5244H61.5059L60.2909 10.2787H26.5843C26.5843 10.7927 26.9543 11.2071 27.4084 11.2071H58.7941L57.5748 11.9615H32.975C32.975 12.4712 33.345 12.8899 33.799 12.8899H57.97C58.2139 12.8899 58.4493 12.8277 58.6385 12.7075L59.841 11.9615L61.0603 11.2071L62.557 10.2787L65.3908 8.5214L69.2672 7.39405C69.4564 7.32774 69.6246 7.21169 69.7675 7.05834L70.1417 6.53611C70.1627 6.51125 70.1754 6.47809 70.1754 6.44493C70.1754 6.41177 70.1627 6.37862 70.1417 6.35375V6.3496Z" fill="#01010B"/>
<path d="M4.27165 23.4836H0V32.5272H4.27165V23.4836Z" fill="#0132C5"/>
<path d="M4.27165 19.5089H0V22.3272H4.27165V19.5089Z" fill="#0132C5"/>
<path d="M25.0581 22.3728C24.8143 21.7967 24.4653 21.2911 24.0491 20.8725C23.6244 20.4621 23.1115 20.1181 22.5271 19.8777C21.9511 19.6291 21.333 19.5047 20.6898 19.5047H7.30301V32.5231H11.5747V28.8841H20.6898C21.333 28.8841 21.9511 28.7597 22.5271 28.511C23.1115 28.2706 23.6244 27.9349 24.0491 27.5163C24.4653 27.0977 24.8143 26.5921 25.0581 26.016C25.3104 25.4399 25.4365 24.8264 25.4365 24.1965C25.4365 23.5665 25.3104 22.9448 25.0581 22.3687V22.3728ZM20.7108 25.2782C20.4123 25.5808 20.0381 25.7383 19.6092 25.7383H11.5747V22.6629H19.6092C20.0423 22.6629 20.4123 22.8121 20.7108 23.1147C21.0177 23.4173 21.1691 23.782 21.1691 24.2006C21.1691 24.6192 21.0177 24.9798 20.7108 25.2824V25.2782Z" fill="#01010B"/>
<path d="M46.0884 23.4919C45.7353 22.6919 45.2644 21.9915 44.68 21.4154C44.0871 20.8393 43.385 20.3668 42.5694 20.0228C41.7579 19.6829 40.896 19.5047 40.0047 19.5047H33.6897C32.7984 19.5047 31.9365 19.6829 31.125 20.0228C30.3136 20.3709 29.603 20.8393 29.0186 21.4154C28.4258 21.9915 27.9549 22.6919 27.606 23.4919C27.2612 24.2918 27.0804 25.1414 27.0804 26.0201C27.0804 26.8988 27.2612 27.7484 27.606 28.5483C27.9591 29.3483 28.43 30.0487 29.0186 30.6248C29.603 31.2092 30.3136 31.6734 31.125 32.0174C31.9365 32.3573 32.7984 32.5272 33.6897 32.5272H40.0047C40.9002 32.5272 41.7579 32.3573 42.5694 32.0174C43.3808 31.6693 44.0913 31.2051 44.68 30.6248C45.2644 30.0487 45.7353 29.3483 46.0884 28.5483C46.4332 27.7484 46.614 26.8988 46.614 26.0201C46.614 25.1414 46.4332 24.2918 46.0884 23.4919ZM41.4342 28.1836C40.8287 28.7804 40.093 29.0789 39.2437 29.0789H34.4633C33.6182 29.0789 32.8825 28.7763 32.2728 28.1836C31.6674 27.5868 31.3563 26.8615 31.3563 26.016C31.3563 25.1705 31.6674 24.4451 32.2728 23.8483C32.8825 23.2515 33.6224 22.9531 34.4633 22.9531H39.2437C40.093 22.9531 40.8287 23.2556 41.4342 23.8483C42.0396 24.4451 42.3423 25.1705 42.3423 26.016C42.3423 26.8615 42.0354 27.5868 41.4342 28.1836Z" fill="#01010B"/>
<path d="M66.6184 28.5649C66.6184 29.2778 66.4334 29.9451 66.0803 30.5543C65.7229 31.1636 65.231 31.6485 64.6129 32.0008C63.9949 32.349 63.318 32.5231 62.5948 32.5231H49.2501V29.6881H61.2158C61.5227 29.6881 61.7918 29.5762 62.0146 29.3607C62.2333 29.1452 62.3552 28.8716 62.3552 28.5608C62.3552 28.2499 62.2417 27.9764 62.0146 27.7608C61.796 27.5453 61.5227 27.4334 61.2158 27.4334H52.5043C51.7812 27.4334 51.1043 27.2511 50.4862 26.9029C49.8682 26.5506 49.3763 26.0657 49.0273 25.4564C48.6699 24.8472 48.4891 24.1799 48.4891 23.467C48.4891 22.7541 48.6699 22.0868 49.0273 21.4776C49.3805 20.8683 49.8724 20.3834 50.4862 20.0311C51.1043 19.6829 51.7812 19.5006 52.5043 19.5006H65.8448V22.3479H53.8918C53.5722 22.3479 53.299 22.4598 53.0803 22.6754C52.8617 22.8909 52.7398 23.1603 52.7398 23.467C52.7398 23.7737 52.8533 24.0348 53.0719 24.2586C53.2905 24.4824 53.5764 24.5943 53.8876 24.5943H62.5906C63.3138 24.5943 63.9907 24.7726 64.6087 25.1249C65.2268 25.4771 65.7187 25.9621 66.0761 26.5713C66.4292 27.1723 66.6142 27.8479 66.6142 28.5608L66.6184 28.5649Z" fill="#01010B"/>
<path d="M85 19.5089V23.1064H78.7565V32.5272H74.4848V23.1064H68.2455V19.5089H85Z" fill="#01010B"/>
<path d="M11.9867 36.9412V37.4054H9.6953V38.2965H11.7891V38.7607H9.6953V39.9502H9.18657V36.9371H11.9867V36.9412Z" fill="#0132C5"/>
<path d="M13.9081 36.9412H14.4336L16.086 39.9544H15.5394L15.1694 39.2581H13.1849L12.815 39.9544H12.2684L13.9165 36.9412H13.9081ZM14.9466 38.827L14.173 37.422L13.3952 38.827H14.9466Z" fill="#0132C5"/>
<path d="M19.2308 37.766C19.1636 37.6251 19.0627 37.5215 18.9323 37.451C18.802 37.3806 18.6338 37.3433 18.4278 37.3433H17.7004C17.4902 37.3433 17.3305 37.3764 17.2211 37.4469C17.1076 37.5132 17.053 37.6085 17.053 37.7329C17.053 37.8241 17.0908 37.9069 17.1623 37.9774C17.2337 38.0479 17.3683 38.0976 17.5617 38.1308L18.7936 38.2758C18.9533 38.3007 19.0837 38.3421 19.193 38.396C19.3023 38.4499 19.3864 38.5162 19.4495 38.595C19.5125 38.6737 19.5588 38.7566 19.5882 38.8519C19.6176 38.9473 19.6302 39.0467 19.6302 39.1503C19.6302 39.4073 19.5293 39.6104 19.3317 39.7679C19.1341 39.9213 18.8482 40 18.4825 40H17.7383C17.4061 40 17.1328 39.942 16.9142 39.8218C16.6956 39.7016 16.5484 39.5358 16.4601 39.312L16.8974 39.0467C16.9689 39.2291 17.074 39.3617 17.2169 39.4446C17.3599 39.5275 17.5365 39.5648 17.7467 39.5648H18.4909C18.7011 39.5648 18.8651 39.5275 18.9702 39.4529C19.0795 39.3783 19.1341 39.2747 19.1341 39.1421C19.1341 39.0219 19.0963 38.9307 19.0164 38.8602C18.9365 38.7898 18.8146 38.74 18.638 38.7069L17.3641 38.5494C17.2169 38.5245 17.0908 38.4831 16.9899 38.4333C16.889 38.3836 16.8049 38.3214 16.7418 38.251C16.6788 38.1805 16.6325 38.1018 16.6031 38.0189C16.5737 37.9318 16.5611 37.8406 16.5611 37.7453C16.5611 37.4842 16.662 37.2811 16.8596 37.1277C17.0572 36.9785 17.3473 36.9039 17.7257 36.9039H18.4446C18.7347 36.9039 18.9744 36.9537 19.1678 37.0531C19.3612 37.1526 19.4999 37.2894 19.584 37.4635L19.235 37.7702L19.2308 37.766Z" fill="#0132C5"/>
<path d="M23.1914 36.9412V37.4137H21.8754V39.9502H21.3625V37.4137H20.0423V36.9412H23.1914Z" fill="#0132C5"/>
<path d="M26.681 36.9412H27.2066L28.8589 39.9544H28.3123L27.9423 39.2581H25.9579L25.5879 39.9544H25.0413L26.6894 36.9412H26.681ZM27.7195 38.827L26.9459 37.422L26.1681 38.827H27.7153H27.7195Z" fill="#0132C5"/>
<path d="M32.3317 36.9412H32.8362V39.9544H32.3569L29.9856 37.6914V39.9544H29.4811V36.9412H29.9604L32.3317 39.2083V36.9412Z" fill="#0132C5"/>
<path d="M35.5564 36.9413C35.8087 36.9413 36.0357 36.9744 36.2333 37.0449C36.431 37.1153 36.5949 37.2148 36.7337 37.3433C36.8724 37.4718 36.9733 37.6334 37.0448 37.8158C37.1163 37.9981 37.1499 38.2095 37.1499 38.4416C37.1499 38.6737 37.1163 38.8809 37.0448 39.0675C36.9733 39.254 36.8724 39.4115 36.7337 39.5399C36.5991 39.6726 36.431 39.772 36.2333 39.8384C36.0357 39.9047 35.8129 39.942 35.5564 39.942H33.7149V36.9288H35.5564V36.9413ZM34.2279 39.4861H35.5564C35.9054 39.4861 36.1745 39.3949 36.3637 39.2084C36.5487 39.0219 36.6454 38.769 36.6454 38.4499C36.6454 38.1266 36.5529 37.8738 36.3637 37.6873C36.1745 37.5008 35.9096 37.4054 35.5564 37.4054H34.2279V39.4861Z" fill="#0132C5"/>
<path d="M42.1531 36.9412V37.393H39.8617V38.2302H41.9555V38.6778H39.8617V39.4985H42.1531V39.9502H39.353V36.9371H42.1531V36.9412Z" fill="#0132C5"/>
<path d="M44.2763 36.9412H44.8019L46.4542 39.9544H45.9076L45.5377 39.2581H43.5532L43.1832 39.9544H42.6366L44.2847 36.9412H44.2763ZM45.3148 38.827L44.5412 37.422L43.7634 38.827H45.3106H45.3148Z" fill="#0132C5"/>
<path d="M49.5991 37.766C49.5318 37.6251 49.4309 37.5215 49.3006 37.451C49.1703 37.3806 49.0021 37.3433 48.7961 37.3433H48.0687C47.8585 37.3433 47.6987 37.3764 47.5894 37.4469C47.4759 37.5132 47.4212 37.6085 47.4212 37.7329C47.4212 37.8241 47.4591 37.9069 47.5305 37.9774C47.602 38.0479 47.7366 38.0976 47.93 38.1308L49.1618 38.2758C49.3216 38.3007 49.4519 38.3421 49.5613 38.396C49.6706 38.4499 49.7547 38.5162 49.8177 38.595C49.8808 38.6737 49.927 38.7566 49.9565 38.8519C49.9859 38.9473 49.9985 39.0467 49.9985 39.1503C49.9985 39.4073 49.8976 39.6104 49.7 39.7679C49.5024 39.9213 49.2165 40 48.8507 40H48.1066C47.7744 40 47.5011 39.942 47.2825 39.8218C47.0639 39.7016 46.9167 39.5358 46.8284 39.312L47.2657 39.0467C47.3371 39.2291 47.4423 39.3617 47.5852 39.4446C47.7282 39.5275 47.9047 39.5648 48.115 39.5648H48.8591C49.0694 39.5648 49.2333 39.5275 49.3384 39.4529C49.4477 39.3783 49.5024 39.2747 49.5024 39.1421C49.5024 39.0219 49.4646 38.9307 49.3847 38.8602C49.3048 38.7898 49.1829 38.74 49.0063 38.7069L47.7324 38.5494C47.5852 38.5245 47.4591 38.4831 47.3582 38.4333C47.2573 38.3836 47.1732 38.3214 47.1101 38.251C47.047 38.1805 47.0008 38.1018 46.9714 38.0189C46.9419 37.9318 46.9293 37.8406 46.9293 37.7453C46.9293 37.4842 47.0302 37.2811 47.2278 37.1277C47.4254 36.9785 47.7155 36.9039 48.0939 36.9039H48.8129C49.103 36.9039 49.3426 36.9537 49.536 37.0531C49.7294 37.1526 49.8682 37.2894 49.9523 37.4635L49.6033 37.7702L49.5991 37.766Z" fill="#0132C5"/>
<path d="M52.147 38.4499L53.3746 36.9412H53.9801L52.4034 38.8726V39.9502H51.8905V38.8768L50.3181 36.9412H50.9235L52.147 38.4499Z" fill="#0132C5"/>
<path d="M55.8636 38.4458C55.8636 38.2054 55.9015 37.994 55.973 37.8033C56.0444 37.6127 56.1537 37.451 56.2925 37.3184C56.4312 37.1858 56.6036 37.0822 56.8012 37.0076C57.003 36.933 57.2259 36.8998 57.4823 36.8998H58.1088C58.3484 36.8998 58.5628 36.9288 58.752 36.9785C58.9412 37.0283 59.1136 37.1236 59.2608 37.2562L58.9707 37.6251C58.8571 37.5298 58.731 37.4593 58.5881 37.422C58.4451 37.3806 58.2854 37.3598 58.1088 37.3598H57.4823C57.3099 37.3598 57.1544 37.3847 57.0156 37.4345C56.8769 37.4842 56.7634 37.5588 56.6667 37.65C56.57 37.7453 56.4985 37.8572 56.4438 37.9898C56.3892 38.1225 56.3682 38.2717 56.3682 38.4333C56.3682 38.6033 56.3934 38.7525 56.4438 38.8851C56.4943 39.0177 56.57 39.1338 56.6667 39.2249C56.7634 39.3203 56.8769 39.3907 57.0156 39.4405C57.1544 39.4902 57.3057 39.5151 57.4823 39.5151H58.1088C58.4746 39.5151 58.7646 39.428 58.9707 39.2498L59.2608 39.6187C59.1136 39.7472 58.9454 39.8384 58.7604 39.8922C58.5755 39.9461 58.3568 39.9751 58.1088 39.9751H57.4823C57.2301 39.9751 57.003 39.9378 56.8012 39.8674C56.5994 39.7969 56.4312 39.6933 56.2925 39.5565C56.1537 39.4197 56.0444 39.2622 55.973 39.0675C55.9015 38.8727 55.8636 38.6613 55.8636 38.4292V38.4458Z" fill="#0132C5"/>
<path d="M61.2158 36.9412H61.7413L63.3937 39.9544H62.8471L62.4771 39.2581H60.4926L60.1227 39.9544H59.5761L61.2242 36.9412H61.2158ZM62.2543 38.827L61.4807 37.422L60.7029 38.827H62.2543Z" fill="#0132C5"/>
<path d="M67.2281 39.9544H66.6605L65.9709 38.9597H64.5246V39.9544H64.0159V36.9412H65.9331C66.1391 36.9412 66.3199 36.9661 66.4713 37.0158C66.6226 37.0656 66.753 37.136 66.8539 37.2231C66.9548 37.3101 67.0304 37.4179 67.0809 37.5422C67.1314 37.6665 67.1566 37.8075 67.1566 37.9608C67.1566 38.1929 67.0977 38.3836 66.9884 38.5452C66.8749 38.7068 66.7025 38.8188 66.4671 38.8851L67.2365 39.9502L67.2281 39.9544ZM64.5204 37.393V38.5245H65.9289C66.1686 38.5245 66.3451 38.4789 66.4671 38.3836C66.589 38.2882 66.6478 38.1515 66.6478 37.9691C66.6478 37.7784 66.589 37.6375 66.4671 37.5422C66.3451 37.4469 66.1686 37.3971 65.9289 37.3971H64.5204V37.393Z" fill="#0132C5"/>
<path d="M69.3849 36.9039H70.0324C70.2847 36.9039 70.5117 36.933 70.7051 36.9827C70.9027 37.0366 71.0751 37.1277 71.2222 37.2604L70.9363 37.6293C70.8228 37.5339 70.6925 37.4635 70.5453 37.4262C70.3982 37.3847 70.2258 37.364 70.0324 37.364H69.3849C69.2041 37.364 69.0402 37.3889 68.8972 37.4386C68.7543 37.4883 68.6365 37.5629 68.5356 37.6541C68.4347 37.7453 68.3632 37.8613 68.3128 37.994C68.2623 38.1266 68.2371 38.2758 68.2371 38.4416C68.2371 38.6074 68.2623 38.7566 68.3128 38.8892C68.3632 39.0219 68.4389 39.1379 68.5314 39.2291C68.6281 39.3244 68.7458 39.3949 68.8804 39.4488C69.0191 39.5026 69.1747 39.5275 69.3471 39.5275H69.9693C70.0912 39.5275 70.2006 39.5192 70.3015 39.4985C70.4024 39.4778 70.4949 39.4488 70.5748 39.4115C70.6546 39.3742 70.7177 39.3244 70.7724 39.2623C70.827 39.2001 70.8565 39.1296 70.8733 39.0509V38.8105H69.9357V38.4043H71.2979V39.9503H70.991L70.9658 39.5607C70.8775 39.714 70.7429 39.8259 70.5663 39.8922C70.3898 39.9585 70.1837 39.9917 69.9441 39.9917H69.3176C69.0696 39.9917 68.8468 39.9544 68.6492 39.8839C68.4515 39.8135 68.2834 39.7057 68.1488 39.5731C68.0101 39.4363 67.905 39.2747 67.8335 39.084C67.762 38.8934 67.7242 38.682 67.7242 38.4458C67.7242 38.2095 67.762 37.9981 67.8377 37.8075C67.9134 37.6168 68.0227 37.4552 68.1614 37.3184C68.3044 37.1816 68.4768 37.078 68.6786 37.0076C68.8846 36.933 69.1158 36.8998 69.3765 36.8998L69.3849 36.9039Z" fill="#0132C5"/>
<path d="M71.8991 38.4458C71.8991 38.2054 71.937 37.994 72.0085 37.8075C72.0799 37.621 72.1892 37.4552 72.328 37.3225C72.4667 37.1858 72.6391 37.0822 72.8367 37.0117C73.0385 36.9371 73.2614 36.9039 73.5178 36.9039H74.1863C74.4386 36.9039 74.6656 36.9412 74.8674 37.0117C75.0693 37.0822 75.2416 37.1899 75.3804 37.3225C75.5191 37.4593 75.6284 37.621 75.6999 37.8075C75.7756 37.9981 75.8092 38.2095 75.8092 38.4416C75.8092 38.682 75.7714 38.8934 75.6999 39.084C75.6284 39.2747 75.5191 39.4363 75.3804 39.5731C75.2416 39.7099 75.0693 39.8093 74.8674 39.8839C74.6656 39.9586 74.4386 39.9917 74.1863 39.9917H73.5178C73.2656 39.9917 73.0385 39.9544 72.8367 39.8839C72.6349 39.8135 72.4667 39.7099 72.328 39.5731C72.1892 39.4363 72.0799 39.2788 72.0085 39.084C71.937 38.8892 71.8991 38.6779 71.8991 38.4458ZM72.4079 38.4458C72.4079 38.6115 72.4331 38.7607 72.4836 38.8975C72.534 39.0343 72.6055 39.1462 72.698 39.2374C72.7905 39.3286 72.9082 39.4032 73.0469 39.4529C73.1857 39.5026 73.3412 39.5275 73.5178 39.5275H74.1863C74.5437 39.5275 74.817 39.4322 75.0104 39.2374C75.2038 39.0426 75.3005 38.7773 75.3005 38.4458C75.3005 38.2758 75.2753 38.1266 75.2248 37.994C75.1744 37.8613 75.1029 37.7495 75.0104 37.6541C74.9179 37.5629 74.8002 37.4883 74.6614 37.4386C74.5227 37.3889 74.3629 37.364 74.1863 37.364H73.5178C73.3412 37.364 73.1857 37.3889 73.0469 37.4386C72.9082 37.4883 72.7905 37.5629 72.698 37.6541C72.6055 37.7453 72.5298 37.8613 72.4836 37.994C72.4373 38.1266 72.4079 38.2758 72.4079 38.4416V38.4458Z" fill="#0132C5"/>
</svg>
