<svg width="87" height="25" viewBox="0 0 87 25" fill="none" xmlns="http://www.w3.org/2000/svg">
<g clip-path="url(#clip0_17428_1605)">
<path d="M57.5017 24.9627H53.5318C53.519 24.7161 53.4957 24.4742 53.4945 24.2322C53.4911 21.3612 53.5365 18.4903 53.4771 15.6216C53.42 12.817 52.7227 10.1717 50.7366 8.09289C47.7877 5.00671 44.1181 3.74456 39.8758 4.24128C36.835 4.59724 34.2412 5.89429 32.1864 8.17432C30.6531 9.87503 29.8137 11.948 29.6996 14.1931C29.5285 17.5783 29.5809 20.975 29.539 24.3671C29.5367 24.5544 29.539 24.7417 29.539 24.9593H25.5598C25.54 24.808 25.5086 24.6801 25.5086 24.5521C25.5086 21.7009 25.4864 18.8497 25.519 15.9985C25.5854 10.2961 28.142 5.86405 32.8034 2.76508C37.9945 -0.685203 43.6082 -0.894593 49.0136 2.06362C54.3886 5.00439 57.4097 9.70287 57.518 15.9997C57.5657 18.7916 57.5296 21.5857 57.5296 24.3776C57.5296 24.5498 57.5133 24.7219 57.5005 24.9616L57.5017 24.9627Z" fill="#8E3A92"/>
<path d="M65.3006 0.272202C65.3006 0.910842 65.3006 1.45293 65.3006 1.99502C65.3006 5.6605 65.2878 9.32599 65.3052 12.9915C65.325 17.3526 69.1354 21.3717 73.4499 21.8196C78.4257 22.3361 82.2 18.9242 83.2466 15.0656C83.4724 14.2339 83.5854 13.3474 83.5935 12.4843C83.6284 8.66409 83.6063 4.84388 83.6052 1.02252C83.6052 0.519205 83.8625 0.267162 84.377 0.266386C85.0755 0.266386 85.7741 0.279182 86.4714 0.259406C86.8323 0.248937 86.9965 0.346652 86.9941 0.744493C86.9732 5.10795 87.0547 9.47373 86.9231 13.8337C86.8439 16.4511 85.6763 18.7253 83.93 20.6761C81.9532 22.8863 79.5421 24.3137 76.5863 24.8174C69.7373 25.983 63.219 21.4276 62.0222 14.591C61.9221 14.021 61.8767 13.4347 61.8755 12.8554C61.8651 8.86068 61.8779 4.86482 61.8662 0.870127C61.8651 0.436225 61.9535 0.240794 62.4413 0.26057C63.3669 0.297795 64.2947 0.271039 65.3018 0.271039L65.3006 0.272202Z" fill="#8E3A92"/>
<path d="M20.712 0.140708C20.712 1.12368 20.7201 2.03103 20.7085 2.93839C20.7038 3.34554 20.3685 3.23852 20.1427 3.23852C17.6793 3.24782 15.2147 3.24433 12.7512 3.24782C8.44489 3.25364 4.78584 6.02689 3.74156 10.1926C2.29098 15.9764 6.11302 20.8424 10.8455 21.7102C11.4334 21.8184 12.0388 21.8696 12.636 21.8742C15.1192 21.8928 17.6024 21.8975 20.0856 21.8731C20.6107 21.8672 20.7562 22.0371 20.7306 22.5396C20.6922 23.3283 20.7201 24.1194 20.7201 24.9511C20.4698 24.9662 20.2812 24.986 20.0926 24.986C17.5314 24.9883 14.9713 24.9918 12.4101 24.9872C6.47275 24.9767 1.17452 20.5958 0.189615 14.7782C-1.14106 6.91098 4.71483 1.09227 10.6743 0.283791C11.3449 0.193055 12.0259 0.151177 12.7023 0.147687C15.3392 0.132565 17.9761 0.141871 20.7131 0.141871L20.712 0.140708Z" fill="#8E3A92"/>
<path d="M39.9689 24.979C39.9689 24.6975 39.9689 24.5067 39.9689 24.3171C39.9701 18.9846 39.9689 13.6522 39.9748 8.31971C39.9748 7.35303 40.5324 6.71788 41.3986 6.66437C42.2927 6.60853 43.0389 7.25531 43.061 8.15104C43.0866 9.12005 43.0703 10.0902 43.0703 11.0592C43.0703 15.4413 43.0703 19.8245 43.068 24.2066C43.068 24.7223 42.8022 24.9802 42.2705 24.9802C41.5371 24.9802 40.8025 24.9802 39.9678 24.9802L39.9689 24.979Z" fill="#8E3A92"/>
<path d="M14.3906 14.0908C12.4883 14.0908 10.5872 14.1071 8.68488 14.085C7.5463 14.0722 6.95256 13.3638 7.10857 12.2831C7.19821 11.6631 7.63944 11.1815 8.25995 11.0547C8.4858 11.0081 8.72097 10.9872 8.95148 10.9872C12.6769 10.9825 16.4035 10.9918 20.1289 10.9744C20.5887 10.9721 20.7494 11.107 20.7284 11.5665C20.697 12.2249 20.697 12.8868 20.7284 13.5452C20.7494 13.9908 20.5724 14.1106 20.1522 14.1071C18.2312 14.0908 16.3103 14.1001 14.3883 14.1001V14.092L14.3906 14.0908Z" fill="#8E3A92"/>
</g>
<defs>
<clipPath id="clip0_17428_1605">
<rect width="87" height="25" fill="white"/>
</clipPath>
</defs>
</svg>
