<svg width="36" height="27" viewBox="0 0 36 27" fill="none" xmlns="http://www.w3.org/2000/svg">
<g clip-path="url(#clip0_17145_968)">
<path d="M24.2353 18.494C23.6686 18.9315 23.0551 19.3118 22.4025 19.6237C21.8202 11.9793 20.0643 6.42494 17.9882 6.42494C15.9122 6.42494 14.1552 11.9782 13.5729 19.6226C12.9203 19.3107 12.3067 18.9315 11.74 18.4929C11.6631 7.26185 17.3356 0 17.9882 0C18.884 0 24.3045 7.61861 24.2353 18.494Z" fill="#CD9933"/>
<path d="M25.9366 16.8359C25.4357 17.4518 24.8646 18.0082 24.2365 18.4929C25.7046 11.4363 23.1689 6.04798 23.1064 5.91785C25.7124 9.28457 25.9366 16.8359 25.9366 16.8359Z" fill="#CD9933"/>
<path d="M27.0735 15.1138C26.7522 15.7275 26.3707 16.3041 25.9367 16.8359C25.9367 16.8359 26.9798 11.746 24.5378 5.91785C24.6048 5.99526 26.7321 8.53629 27.0735 15.1138Z" fill="#CD9933"/>
<path d="M27.0745 15.1116C27.1136 14.8872 29.0703 3.59895 20.2607 0.221008C24.8401 1.25986 28.2593 5.37599 28.2593 10.2954C28.2593 12.0343 27.832 13.6733 27.0745 15.1116Z" fill="#CD9933"/>
<path d="M10.0623 16.8359C10.5631 17.4518 11.1343 18.0082 11.7624 18.4929C10.2943 11.4363 12.8299 6.04798 12.8924 5.91785C10.2865 9.28457 10.0623 16.8359 10.0623 16.8359Z" fill="#CD9933"/>
<path d="M8.92554 15.1138C9.24682 15.7275 9.62833 16.3041 10.0623 16.8359C10.0623 16.8359 9.01924 11.746 11.4612 5.91785C11.3943 5.99526 9.2669 8.53629 8.92554 15.1138Z" fill="#CD9933"/>
<path d="M8.92446 15.1116C8.88542 14.8872 6.92874 3.59895 15.7383 0.221008C11.1589 1.25986 7.73975 5.37599 7.73975 10.2954C7.73975 12.0343 8.167 13.6733 8.92446 15.1116Z" fill="#CD9933"/>
<path d="M4.5502 25.7547H3.52166V25.1354H3.50716C3.14014 25.6313 2.67384 25.8781 2.10937 25.8781C1.48578 25.8781 0.979316 25.6672 0.587757 25.2443C0.196198 24.8213 0.000976562 24.2873 0.000976562 23.6411C0.000976562 22.9949 0.196198 22.4676 0.587757 22.0458C0.979316 21.6229 1.48578 21.412 2.10937 21.412C2.67942 21.412 3.14572 21.6576 3.50716 22.1479H3.52166V21.5354H4.5502V25.7536V25.7547ZM3.17361 24.5521C3.40564 24.2952 3.52166 23.9911 3.52166 23.6411C3.52166 23.2911 3.40564 22.9949 3.17361 22.738C2.94157 22.4856 2.6493 22.3588 2.29678 22.3588C1.94427 22.3588 1.65199 22.4856 1.41996 22.738C1.18792 22.996 1.07191 23.2967 1.07191 23.6411C1.07191 23.9855 1.18792 24.294 1.41996 24.5521C1.65199 24.8045 1.94427 24.9313 2.29678 24.9313C2.6493 24.9313 2.94157 24.8045 3.17361 24.5521Z" fill="#044CA2"/>
<path d="M6.09968 25.1354H6.08518V25.7547H5.05664V20.2901H6.08518V22.1479H6.09968C6.46224 21.6577 6.92742 21.412 7.49747 21.412C8.12106 21.412 8.62752 21.6229 9.01908 22.0458C9.41064 22.4587 9.60586 22.9904 9.60586 23.6411C9.60586 24.2918 9.41064 24.8213 9.01908 25.2443C8.62752 25.6672 8.12106 25.8781 7.49747 25.8781C6.93188 25.8781 6.4667 25.6302 6.09968 25.1354ZM6.43323 22.738C6.2012 22.996 6.08518 23.2967 6.08518 23.6411C6.08518 23.9855 6.2012 24.294 6.43323 24.5521C6.66527 24.8045 6.95754 24.9313 7.31006 24.9313C7.66257 24.9313 7.95485 24.8045 8.18688 24.5521C8.41892 24.2952 8.53493 23.9911 8.53493 23.6411C8.53493 23.2911 8.41892 22.9949 8.18688 22.738C7.95485 22.4856 7.66257 22.3588 7.31006 22.3588C6.95754 22.3588 6.66527 22.4856 6.43323 22.738Z" fill="#044CA2"/>
<path d="M12.831 23.999V21.5365H13.8596V25.7547H12.9102V25.15H12.8957C12.7752 25.3733 12.6023 25.5505 12.3781 25.6818C12.1539 25.8131 11.894 25.8781 11.5994 25.8781C11.1164 25.8781 10.7226 25.7132 10.4181 25.3823C10.118 25.0423 9.96851 24.6104 9.96851 24.0854V21.5354H10.997V23.9979C10.997 24.2604 11.0863 24.4814 11.2648 24.6609C11.4433 24.8404 11.6586 24.9301 11.9096 24.9301C12.1606 24.9301 12.3826 24.8404 12.5611 24.6609C12.7395 24.4814 12.8288 24.2604 12.8288 23.9979L12.831 23.999Z" fill="#044CA2"/>
<path d="M14.4385 24.0203V23.2776H16.7934V24.0203H14.4385Z" fill="#044CA2"/>
<path d="M20.7559 22.8401H19.7709C19.7709 22.6505 19.704 22.5035 19.5712 22.3992C19.4385 22.2949 19.2566 22.2421 19.0246 22.2421C18.8115 22.2421 18.6498 22.2836 18.5393 22.3655C18.4278 22.4486 18.3731 22.5596 18.3731 22.701C18.3731 22.7885 18.3932 22.8625 18.4345 22.9231C18.4757 22.9837 18.5438 23.0308 18.6408 23.0656C18.7379 23.0992 18.8271 23.1262 18.9086 23.1452C18.9911 23.1643 19.1105 23.1856 19.2667 23.2069C19.424 23.2294 19.5456 23.2496 19.6326 23.2686C19.8401 23.3124 20.0409 23.3685 20.2338 23.4358C20.4313 23.5087 20.5908 23.6411 20.7124 23.8329C20.8329 24.0248 20.8931 24.2637 20.8931 24.5509C20.8931 24.993 20.7191 25.3261 20.3711 25.5494C20.033 25.7682 19.5835 25.877 19.0235 25.877C18.4635 25.877 18.0407 25.748 17.7116 25.4911C17.3881 25.2285 17.2263 24.8819 17.2263 24.4488H18.2192C18.2192 24.6239 18.2939 24.7652 18.4434 24.8752C18.5929 24.984 18.7859 25.0389 19.0235 25.0389C19.2745 25.0389 19.473 24.9963 19.6169 24.9111C19.7609 24.8258 19.8345 24.7058 19.8345 24.5509C19.8345 24.4533 19.8144 24.3748 19.7731 24.3142C19.7318 24.2536 19.6627 24.2054 19.5667 24.1684C19.4697 24.1325 19.3827 24.1056 19.3057 24.0887C19.2287 24.0719 19.1083 24.0539 18.9476 24.0338C18.7859 24.0147 18.6643 23.9979 18.5817 23.9833C18.3497 23.935 18.1466 23.8812 17.9726 23.8228C17.7796 23.7499 17.6235 23.6175 17.5052 23.4257C17.387 23.2339 17.3278 22.9927 17.3278 22.701C17.3278 22.2836 17.4762 21.9639 17.7729 21.7429C18.0697 21.5219 18.4869 21.4108 19.0224 21.4108C19.5578 21.4108 19.9873 21.5354 20.2941 21.7855C20.6009 22.0357 20.7537 22.3869 20.7537 22.8378L20.7559 22.8401Z" fill="#044CA2"/>
<path d="M25.661 25.7547H24.6325V25.1354H24.618C24.251 25.6313 23.7847 25.8781 23.2202 25.8781C22.5966 25.8781 22.0902 25.6672 21.6986 25.2443C21.307 24.8213 21.1118 24.2873 21.1118 23.6411C21.1118 22.9949 21.307 22.4676 21.6986 22.0458C22.0902 21.6229 22.5966 21.412 23.2202 21.412C23.7903 21.412 24.2566 21.6576 24.618 22.1479H24.6325V21.5354H25.661V25.7536V25.7547ZM24.2844 24.5521C24.5165 24.2952 24.6325 23.9911 24.6325 23.6411C24.6325 23.2911 24.5165 22.9949 24.2844 22.738C24.0524 22.4856 23.7601 22.3588 23.4076 22.3588C23.0551 22.3588 22.7628 22.4856 22.5308 22.738C22.2988 22.996 22.1827 23.2967 22.1827 23.6411C22.1827 23.9855 22.2988 24.294 22.5308 24.5521C22.7628 24.8045 23.0551 24.9313 23.4076 24.9313C23.7601 24.9313 24.0524 24.8045 24.2844 24.5521Z" fill="#044CA2"/>
<path d="M27.197 23.336V25.7547H26.1685V20.2901H27.197V22.0604H27.2193C27.3498 21.8663 27.5216 21.7093 27.7336 21.5903C27.9466 21.4714 28.1753 21.412 28.4219 21.412C28.9049 21.412 29.2965 21.5769 29.5954 21.9078C29.8944 22.2388 30.045 22.6707 30.045 23.2047V25.7547H29.0165V23.336C29.0165 23.0791 28.9272 22.8603 28.7487 22.6797C28.5747 22.4957 28.3627 22.4026 28.1106 22.4026C27.8585 22.4026 27.6421 22.4946 27.458 22.6797C27.284 22.8648 27.197 23.0824 27.197 23.336Z" fill="#044CA2"/>
<path d="M30.4934 20.7344C30.4934 20.5795 30.5503 20.4449 30.6641 20.3338C30.7779 20.2217 30.9117 20.1667 31.0657 20.1667C31.2196 20.1667 31.3546 20.2228 31.4673 20.3338C31.5811 20.446 31.638 20.5795 31.638 20.7344C31.638 20.8892 31.5822 21.0294 31.4717 21.1382C31.3602 21.247 31.2252 21.302 31.0657 21.302C30.9062 21.302 30.7712 21.247 30.6596 21.1382C30.5481 21.0294 30.4934 20.8937 30.4934 20.7344ZM30.5514 25.7547V21.5365H31.58V25.7547H30.5514Z" fill="#044CA2"/>
<path d="M34.9346 21.5365H35.9999L33.8994 27.0011H32.8418L33.3561 25.6605L31.762 21.5365H32.8273L33.8782 24.2828H33.8927L34.9357 21.5365H34.9346Z" fill="#044CA2"/>
</g>
<defs>
<clipPath id="clip0_17145_968">
<rect width="36" height="27" fill="white"/>
</clipPath>
</defs>
</svg>
