<svg width="20" height="20" viewBox="0 0 20 20" fill="none" xmlns="http://www.w3.org/2000/svg">
<path fill-rule="evenodd" clip-rule="evenodd" d="M8.75 1.66667C7.62049 1.66677 6.50738 1.93698 5.50355 2.45475C4.49971 2.97252 3.63424 3.72285 2.97936 4.64313C2.32448 5.56341 1.89917 6.62696 1.73892 7.74504C1.57867 8.86312 1.68812 10.0033 2.05815 11.0705C2.42817 12.1377 3.04804 13.1009 3.86603 13.8798C4.68402 14.6587 5.67642 15.2307 6.76043 15.548C7.84443 15.8654 8.98862 15.9189 10.0975 15.7041C11.2064 15.4893 12.2479 15.0125 13.135 14.3133L16.1783 17.3567C16.3355 17.5085 16.546 17.5925 16.7645 17.5906C16.983 17.5887 17.192 17.501 17.3465 17.3465C17.501 17.192 17.5887 16.983 17.5906 16.7645C17.5925 16.546 17.5085 16.3355 17.3567 16.1783L14.3133 13.135C15.1367 12.0905 15.6493 10.8353 15.7926 9.51311C15.9359 8.19088 15.704 6.85502 15.1235 5.65842C14.543 4.46181 13.6374 3.4528 12.5102 2.74686C11.3831 2.04093 10.08 1.66658 8.75 1.66667ZM3.33333 8.75001C3.33333 7.31342 3.90401 5.93567 4.91984 4.91984C5.93566 3.90402 7.31341 3.33334 8.75 3.33334C10.1866 3.33334 11.5643 3.90402 12.5802 4.91984C13.596 5.93567 14.1667 7.31342 14.1667 8.75001C14.1667 10.1866 13.596 11.5643 12.5802 12.5802C11.5643 13.596 10.1866 14.1667 8.75 14.1667C7.31341 14.1667 5.93566 13.596 4.91984 12.5802C3.90401 11.5643 3.33333 10.1866 3.33333 8.75001Z" fill="#6B7280"/>
</svg>
