<svg width="68" height="75" viewBox="0 0 68 75" fill="none" xmlns="http://www.w3.org/2000/svg">
<g filter="url(#filter0_d_17925_1738)">
<path d="M18.4637 51.7525L18.4681 51.757C21.0338 54.3476 23.8465 56.6811 26.8663 58.7242L26.8724 58.7283L27.9658 59.4563L27.9657 59.4564L27.9744 59.462L28.4864 59.7954L28.4971 59.8023L28.5079 59.809L29.8946 60.6623L29.9051 60.6688L29.9158 60.675L31.0252 61.3204L31.0251 61.3204L31.0323 61.3245C31.9362 61.8404 32.9591 62.1118 34 62.1118C35.0409 62.1118 36.0638 61.8404 36.9677 61.3245L36.9677 61.3245L36.9748 61.3204L38.0842 60.675L38.0932 60.6698L38.1022 60.6643L38.9982 60.1176L39.0063 60.1127L39.0144 60.1076L40.0197 59.4675L40.0281 59.4622L40.0364 59.4567L40.5697 59.102L40.5698 59.1021L40.5787 59.096L41.7147 58.3226L41.7148 58.3227L41.722 58.3176C44.5217 56.3754 47.1362 54.1791 49.5323 51.7565L49.5361 51.7527C54.3285 46.8545 59 39.9066 59 31.3333C59 24.7029 56.3661 18.3441 51.6777 13.6556C46.9893 8.96723 40.6304 6.33331 34 6.33331C27.3696 6.33331 21.0107 8.96723 16.3223 13.6556C11.6339 18.3441 9 24.7029 9 31.3333C9 39.9067 13.6716 46.8519 18.4637 51.7525Z" fill="#CD9933" stroke="white" stroke-width="2"/>
</g>
<g clip-path="url(#clip0_17925_1738)">
<path d="M39.9084 35.8639C39.3259 36.3339 38.6953 36.7423 38.0246 37.0773C37.4261 28.8667 35.6215 22.9009 33.4878 22.9009C31.354 22.9009 29.5482 28.8655 28.9497 37.0761C28.279 36.7411 27.6484 36.3339 27.066 35.8627C26.9869 23.7998 32.817 16 33.4878 16C34.4084 16 39.9795 24.1829 39.9084 35.8639Z" fill="white"/>
<path d="M41.6571 34.083C41.1423 34.7445 40.5552 35.3422 39.9097 35.8627C41.4186 28.2834 38.8125 22.496 38.7483 22.3562C41.4266 25.9723 41.6571 34.083 41.6571 34.083Z" fill="white"/>
<path d="M42.8253 32.2333C42.4951 32.8925 42.103 33.5118 41.657 34.083C41.657 34.083 42.729 28.616 40.2192 22.3562C40.288 22.4393 42.4745 25.1686 42.8253 32.2333Z" fill="white"/>
<path d="M42.8263 32.2309C42.8664 31.9899 44.8775 19.8655 35.8232 16.2374C40.5298 17.3532 44.0439 21.7742 44.0439 27.058C44.0439 28.9257 43.6048 30.6862 42.8263 32.2309Z" fill="white"/>
<path d="M25.3418 34.083C25.8566 34.7445 26.4436 35.3422 27.0891 35.8627C25.5803 28.2834 28.1864 22.496 28.2506 22.3562C25.5723 25.9723 25.3418 34.083 25.3418 34.083Z" fill="white"/>
<path d="M24.1733 32.2333C24.5035 32.8925 24.8957 33.5118 25.3417 34.083C25.3417 34.083 24.2696 28.616 26.7794 22.3562C26.7106 22.4393 24.5242 25.1686 24.1733 32.2333Z" fill="white"/>
<path d="M24.1722 32.2309C24.1321 31.9899 22.1211 19.8655 31.1753 16.2374C26.4687 17.3532 22.9546 21.7742 22.9546 27.058C22.9546 28.9257 23.3937 30.6862 24.1722 32.2309Z" fill="white"/>
<path d="M19.6768 43.6625H18.6197V42.9973H18.6048C18.2276 43.5299 17.7483 43.795 17.1682 43.795C16.5273 43.795 16.0067 43.5685 15.6043 43.1142C15.2019 42.6599 15.0012 42.0864 15.0012 41.3923C15.0012 40.6983 15.2019 40.1319 15.6043 39.6789C16.0067 39.2246 16.5273 38.998 17.1682 38.998C17.7541 38.998 18.2333 39.2619 18.6048 39.7885H18.6197V39.1306H19.6768V43.6613V43.6625ZM18.262 42.3708C18.5005 42.0948 18.6197 41.7683 18.6197 41.3923C18.6197 41.0164 18.5005 40.6983 18.262 40.4223C18.0235 40.1512 17.7231 40.015 17.3608 40.015C16.9985 40.015 16.6981 40.1512 16.4596 40.4223C16.2211 40.6995 16.1019 41.0224 16.1019 41.3923C16.1019 41.7622 16.2211 42.0936 16.4596 42.3708C16.6981 42.6419 16.9985 42.778 17.3608 42.778C17.7231 42.778 18.0235 42.6419 18.262 42.3708Z" fill="white"/>
<path d="M21.2693 42.9974H21.2544V43.6625H20.1973V37.7931H21.2544V39.7885H21.2693C21.6419 39.2619 22.12 38.9981 22.7059 38.9981C23.3468 38.9981 23.8673 39.2246 24.2698 39.6789C24.6722 40.1223 24.8729 40.6935 24.8729 41.3923C24.8729 42.0912 24.6722 42.66 24.2698 43.1142C23.8673 43.5685 23.3468 43.795 22.7059 43.795C22.1246 43.795 21.6465 43.5287 21.2693 42.9974ZM21.6121 40.4223C21.3736 40.6995 21.2544 41.0224 21.2544 41.3923C21.2544 41.7623 21.3736 42.0936 21.6121 42.3708C21.8506 42.6419 22.151 42.778 22.5133 42.778C22.8756 42.778 23.176 42.6419 23.4145 42.3708C23.6529 42.0948 23.7722 41.7683 23.7722 41.3923C23.7722 41.0164 23.6529 40.6983 23.4145 40.4223C23.176 40.1512 22.8756 40.0151 22.5133 40.0151C22.151 40.0151 21.8506 40.1512 21.6121 40.4223Z" fill="white"/>
<path d="M28.1876 41.7767V39.1318H29.2447V43.6625H28.269V43.013H28.2541C28.1303 43.2528 27.9526 43.4432 27.7221 43.5842C27.4917 43.7252 27.2245 43.7951 26.9218 43.7951C26.4254 43.7951 26.0207 43.6179 25.7077 43.2625C25.3992 42.8973 25.2456 42.4334 25.2456 41.8695V39.1306H26.3027V41.7755C26.3027 42.0575 26.3944 42.2949 26.5779 42.4877C26.7613 42.6805 26.9826 42.7769 27.2406 42.7769C27.4986 42.7769 27.7267 42.6805 27.9102 42.4877C28.0936 42.2949 28.1853 42.0575 28.1853 41.7755L28.1876 41.7767Z" fill="white"/>
<path d="M29.8398 41.7996V41.0019H32.2602V41.7996H29.8398Z" fill="white"/>
<path d="M36.3325 40.532H35.3201C35.3201 40.3283 35.2513 40.1705 35.1149 40.0584C34.9784 39.9463 34.7915 39.8897 34.5531 39.8897C34.3341 39.8897 34.1678 39.9343 34.0543 40.0223C33.9397 40.1114 33.8835 40.2307 33.8835 40.3825C33.8835 40.4765 33.9041 40.5561 33.9465 40.6211C33.989 40.6862 34.0589 40.7368 34.1586 40.7742C34.2584 40.8103 34.3501 40.8392 34.4338 40.8597C34.5187 40.8802 34.6413 40.9031 34.8019 40.926C34.9635 40.9501 35.0885 40.9718 35.1779 40.9923C35.3912 41.0392 35.5976 41.0995 35.7959 41.1718C35.9988 41.2501 36.1628 41.3923 36.2878 41.5984C36.4116 41.8044 36.4735 42.0611 36.4735 42.3695C36.4735 42.8443 36.2947 43.2022 35.9369 43.442C35.5895 43.6769 35.1275 43.7938 34.5519 43.7938C33.9763 43.7938 33.5418 43.6552 33.2036 43.3793C32.8711 43.0973 32.7048 42.725 32.7048 42.2599H33.7253C33.7253 42.4479 33.8021 42.5997 33.9557 42.7178C34.1093 42.8347 34.3077 42.8937 34.5519 42.8937C34.8099 42.8937 35.014 42.8479 35.1619 42.7563C35.3098 42.6648 35.3854 42.5358 35.3854 42.3695C35.3854 42.2647 35.3648 42.1804 35.3224 42.1153C35.28 42.0502 35.2089 41.9984 35.1103 41.9586C35.0105 41.9201 34.9211 41.8912 34.842 41.8731C34.7629 41.855 34.639 41.8357 34.4739 41.814C34.3077 41.7936 34.1827 41.7755 34.0979 41.7598C33.8594 41.708 33.6507 41.6502 33.4719 41.5875C33.2735 41.5092 33.113 41.367 32.9915 41.161C32.8699 40.9549 32.8092 40.6958 32.8092 40.3825C32.8092 39.9343 32.9617 39.5909 33.2666 39.3535C33.5716 39.1161 34.0004 38.9968 34.5508 38.9968C35.1011 38.9968 35.5425 39.1306 35.8578 39.3993C36.1731 39.668 36.3302 40.0451 36.3302 40.5295L36.3325 40.532Z" fill="white"/>
<path d="M41.3738 43.6625H40.3167V42.9973H40.3018C39.9246 43.5299 39.4454 43.795 38.8652 43.795C38.2243 43.795 37.7038 43.5685 37.3013 43.1142C36.8989 42.6599 36.6982 42.0864 36.6982 41.3923C36.6982 40.6983 36.8989 40.1319 37.3013 39.6789C37.7038 39.2246 38.2243 38.998 38.8652 38.998C39.4511 38.998 39.9303 39.2619 40.3018 39.7885H40.3167V39.1306H41.3738V43.6613V43.6625ZM39.959 42.3708C40.1975 42.0948 40.3167 41.7683 40.3167 41.3923C40.3167 41.0164 40.1975 40.6983 39.959 40.4223C39.7205 40.1512 39.4201 40.015 39.0578 40.015C38.6955 40.015 38.3951 40.1512 38.1566 40.4223C37.9182 40.6995 37.7989 41.0224 37.7989 41.3923C37.7989 41.7622 37.9182 42.0936 38.1566 42.3708C38.3951 42.6419 38.6955 42.778 39.0578 42.778C39.4201 42.778 39.7205 42.6419 39.959 42.3708Z" fill="white"/>
<path d="M42.9526 41.0646V43.6625H41.8955V37.7931H42.9526V39.6945H42.9755C43.1097 39.4861 43.2863 39.3174 43.5041 39.1896C43.7231 39.0619 43.9581 38.9981 44.2115 38.9981C44.708 38.9981 45.1104 39.1752 45.4177 39.5307C45.725 39.8861 45.8797 40.35 45.8797 40.9236V43.6625H44.8226V41.0646C44.8226 40.7886 44.7309 40.5537 44.5475 40.3597C44.3686 40.1621 44.1508 40.062 43.8916 40.062C43.6325 40.062 43.4101 40.1609 43.2209 40.3597C43.042 40.5585 42.9526 40.7923 42.9526 41.0646Z" fill="white"/>
<path d="M46.3408 38.2702C46.3408 38.104 46.3993 37.9594 46.5162 37.8401C46.6332 37.7196 46.7708 37.6605 46.929 37.6605C47.0872 37.6605 47.2259 37.7208 47.3417 37.8401C47.4587 37.9606 47.5172 38.104 47.5172 38.2702C47.5172 38.4365 47.4598 38.5871 47.3463 38.704C47.2317 38.8209 47.093 38.88 46.929 38.88C46.765 38.88 46.6263 38.8209 46.5117 38.704C46.397 38.5871 46.3408 38.4413 46.3408 38.2702ZM46.4004 43.6625V39.1318H47.4575V43.6625H46.4004Z" fill="white"/>
<path d="M50.905 39.1318H52L49.8411 45.0012H48.7541L49.2827 43.5612L47.6443 39.1318H48.7392L49.8193 42.0815H49.8342L50.9062 39.1318H50.905Z" fill="white"/>
</g>
<defs>
<filter id="filter0_d_17925_1738" x="0" y="0.333313" width="68" height="73.7785" filterUnits="userSpaceOnUse" color-interpolation-filters="sRGB">
<feFlood flood-opacity="0" result="BackgroundImageFix"/>
<feColorMatrix in="SourceAlpha" type="matrix" values="0 0 0 0 0 0 0 0 0 0 0 0 0 0 0 0 0 0 127 0" result="hardAlpha"/>
<feOffset dy="3"/>
<feGaussianBlur stdDeviation="4"/>
<feComposite in2="hardAlpha" operator="out"/>
<feColorMatrix type="matrix" values="0 0 0 0 0.0666667 0 0 0 0 0.0941176 0 0 0 0 0.152941 0 0 0 0.05 0"/>
<feBlend mode="normal" in2="BackgroundImageFix" result="effect1_dropShadow_17925_1738"/>
<feBlend mode="normal" in="SourceGraphic" in2="effect1_dropShadow_17925_1738" result="shape"/>
</filter>
<clipPath id="clip0_17925_1738">
<rect width="37" height="29" fill="white" transform="translate(15 16)"/>
</clipPath>
</defs>
</svg>
