<svg width="20" height="20" viewBox="0 0 20 20" fill="none" xmlns="http://www.w3.org/2000/svg">
<path d="M10.0001 1.6665C14.6026 1.6665 18.3334 5.39734 18.3334 9.99984C18.3334 14.6023 14.6026 18.3332 10.0001 18.3332C5.39758 18.3332 1.66675 14.6023 1.66675 9.99984C1.66675 5.39734 5.39758 1.6665 10.0001 1.6665ZM10.0001 3.33317C8.23197 3.33317 6.53628 4.03555 5.28604 5.28579C4.03579 6.53604 3.33341 8.23173 3.33341 9.99984C3.33341 11.7679 4.03579 13.4636 5.28604 14.7139C6.53628 15.9641 8.23197 16.6665 10.0001 16.6665C11.7682 16.6665 13.4639 15.9641 14.7141 14.7139C15.9644 13.4636 16.6667 11.7679 16.6667 9.99984C16.6667 8.23173 15.9644 6.53604 14.7141 5.28579C13.4639 4.03555 11.7682 3.33317 10.0001 3.33317ZM10.0001 12.4998C10.2211 12.4998 10.4331 12.5876 10.5893 12.7439C10.7456 12.9002 10.8334 13.1122 10.8334 13.3332C10.8334 13.5542 10.7456 13.7661 10.5893 13.9224C10.4331 14.0787 10.2211 14.1665 10.0001 14.1665C9.77907 14.1665 9.56711 14.0787 9.41083 13.9224C9.25455 13.7661 9.16675 13.5542 9.16675 13.3332C9.16675 13.1122 9.25455 12.9002 9.41083 12.7439C9.56711 12.5876 9.77907 12.4998 10.0001 12.4998ZM10.0001 4.99984C10.2211 4.99984 10.4331 5.08764 10.5893 5.24392C10.7456 5.4002 10.8334 5.61216 10.8334 5.83317V10.8332C10.8334 11.0542 10.7456 11.2661 10.5893 11.4224C10.4331 11.5787 10.2211 11.6665 10.0001 11.6665C9.77907 11.6665 9.56711 11.5787 9.41083 11.4224C9.25455 11.2661 9.16675 11.0542 9.16675 10.8332V5.83317C9.16675 5.61216 9.25455 5.4002 9.41083 5.24392C9.56711 5.08764 9.77907 4.99984 10.0001 4.99984Z" fill="#D81B51"/>
</svg>
