<svg width="20" height="20" viewBox="0 0 20 20" fill="none" xmlns="http://www.w3.org/2000/svg">
<path d="M9.99984 1.66666C14.6023 1.66666 18.3332 5.39749 18.3332 9.99999C18.3332 14.6025 14.6023 18.3333 9.99984 18.3333C5.39734 18.3333 1.6665 14.6025 1.6665 9.99999C1.6665 5.39749 5.39734 1.66666 9.99984 1.66666ZM9.99984 3.33332C8.23173 3.33332 6.53604 4.0357 5.28579 5.28594C4.03555 6.53619 3.33317 8.23188 3.33317 9.99999C3.33317 11.7681 4.03555 13.4638 5.28579 14.714C6.53604 15.9643 8.23173 16.6667 9.99984 16.6667C11.7679 16.6667 13.4636 15.9643 14.7139 14.714C15.9641 13.4638 16.6665 11.7681 16.6665 9.99999C16.6665 8.23188 15.9641 6.53619 14.7139 5.28594C13.4636 4.0357 11.7679 3.33332 9.99984 3.33332ZM9.99984 12.5C10.2209 12.5 10.4328 12.5878 10.5891 12.7441C10.7454 12.9003 10.8332 13.1123 10.8332 13.3333C10.8332 13.5543 10.7454 13.7663 10.5891 13.9226C10.4328 14.0789 10.2209 14.1667 9.99984 14.1667C9.77882 14.1667 9.56686 14.0789 9.41058 13.9226C9.2543 13.7663 9.1665 13.5543 9.1665 13.3333C9.1665 13.1123 9.2543 12.9003 9.41058 12.7441C9.56686 12.5878 9.77882 12.5 9.99984 12.5ZM9.99984 4.99999C10.2209 4.99999 10.4328 5.08779 10.5891 5.24407C10.7454 5.40035 10.8332 5.61231 10.8332 5.83332V10.8333C10.8332 11.0543 10.7454 11.2663 10.5891 11.4226C10.4328 11.5789 10.2209 11.6667 9.99984 11.6667C9.77882 11.6667 9.56686 11.5789 9.41058 11.4226C9.2543 11.2663 9.1665 11.0543 9.1665 10.8333V5.83332C9.1665 5.61231 9.2543 5.40035 9.41058 5.24407C9.56686 5.08779 9.77882 4.99999 9.99984 4.99999Z" fill="#25A12F"/>
</svg>
