<svg width="44" height="44" viewBox="0 0 44 44" fill="none" xmlns="http://www.w3.org/2000/svg">
<rect width="44" height="44" rx="22" fill="#E5E7EB"/>
<path fill-rule="evenodd" clip-rule="evenodd" d="M28 13C28.5046 12.9998 28.9906 13.1904 29.3605 13.5335C29.7305 13.8766 29.9572 14.3468 29.995 14.85L30 15V30C30.0002 30.5046 29.8096 30.9906 29.4665 31.3605C29.1234 31.7305 28.6532 31.9572 28.15 31.995L28 32H16C15.4954 32.0002 15.0094 31.8096 14.6395 31.4665C14.2695 31.1234 14.0428 30.6532 14.005 30.15L14 30V15C13.9998 14.4954 14.1904 14.0094 14.5335 13.6395C14.8766 13.2695 15.3468 13.0428 15.85 13.005L16 13H28ZM28 15H16V30H28V15ZM19.5 26C19.8978 26 20.2794 26.158 20.5607 26.4393C20.842 26.7206 21 27.1022 21 27.5C21 27.8978 20.842 28.2794 20.5607 28.5607C20.2794 28.842 19.8978 29 19.5 29C19.1022 29 18.7206 28.842 18.4393 28.5607C18.158 28.2794 18 27.8978 18 27.5C18 27.1022 18.158 26.7206 18.4393 26.4393C18.7206 26.158 19.1022 26 19.5 26ZM24.5 26C24.8978 26 25.2794 26.158 25.5607 26.4393C25.842 26.7206 26 27.1022 26 27.5C26 27.8978 25.842 28.2794 25.5607 28.5607C25.2794 28.842 24.8978 29 24.5 29C24.1022 29 23.7206 28.842 23.4393 28.5607C23.158 28.2794 23 27.8978 23 27.5C23 27.1022 23.158 26.7206 23.4393 26.4393C23.7206 26.158 24.1022 26 24.5 26ZM19.5 22C19.8978 22 20.2794 22.158 20.5607 22.4393C20.842 22.7206 21 23.1022 21 23.5C21 23.8978 20.842 24.2794 20.5607 24.5607C20.2794 24.842 19.8978 25 19.5 25C19.1022 25 18.7206 24.842 18.4393 24.5607C18.158 24.2794 18 23.8978 18 23.5C18 23.1022 18.158 22.7206 18.4393 22.4393C18.7206 22.158 19.1022 22 19.5 22ZM24.5 22C24.8978 22 25.2794 22.158 25.5607 22.4393C25.842 22.7206 26 23.1022 26 23.5C26 23.8978 25.842 24.2794 25.5607 24.5607C25.2794 24.842 24.8978 25 24.5 25C24.1022 25 23.7206 24.842 23.4393 24.5607C23.158 24.2794 23 23.8978 23 23.5C23 23.1022 23.158 22.7206 23.4393 22.4393C23.7206 22.158 24.1022 22 24.5 22ZM25.5 16C25.8729 16 26.2324 16.1389 26.5084 16.3896C26.7844 16.6403 26.9572 16.9848 26.993 17.356L27 17.5V19.5C27 19.8729 26.8611 20.2324 26.6104 20.5084C26.3597 20.7844 26.0152 20.9572 25.644 20.993L25.5 21H18.5C18.1271 21 17.7676 20.8611 17.4916 20.6104C17.2156 20.3597 17.0428 20.0152 17.007 19.644L17 19.5V17.5C17 17.1271 17.1389 16.7676 17.3896 16.4916C17.6403 16.2156 17.9848 16.0428 18.356 16.007L18.5 16H25.5ZM25 18H19V19H25V18Z" fill="#111827"/>
</svg>
