<svg width="24" height="25" viewBox="0 0 24 25" fill="none" xmlns="http://www.w3.org/2000/svg">
<path d="M22.8975 6.12497C22.7895 6.05758 22.6662 6.01878 22.5391 6.01222C22.412 6.00566 22.2853 6.03156 22.1709 6.08747C18.1462 8.05622 15.2719 7.13372 12.2334 6.1606C9.0375 5.14341 5.7375 4.08872 1.17094 6.3181C1.04482 6.37967 0.938513 6.4754 0.8641 6.59439C0.789687 6.71339 0.750156 6.85087 0.75 6.99122V18.2347C0.749982 18.3619 0.782342 18.4871 0.844035 18.5984C0.905728 18.7097 0.994725 18.8034 1.10265 18.8709C1.21057 18.9383 1.33388 18.9771 1.46096 18.9837C1.58804 18.9904 1.71471 18.9646 1.82906 18.9087C5.85375 16.94 8.72812 17.8625 11.7712 18.8356C13.575 19.4122 15.4125 20 17.49 20C19.0922 20 20.8397 19.6512 22.8253 18.6818C22.9514 18.6203 23.0577 18.5245 23.1322 18.4055C23.2066 18.2866 23.2461 18.1491 23.2463 18.0087V6.76528C23.2474 6.6377 23.2159 6.51194 23.1549 6.39989C23.0939 6.28785 23.0053 6.19322 22.8975 6.12497ZM4.5 14.75C4.5 14.9489 4.42098 15.1396 4.28033 15.2803C4.13968 15.421 3.94891 15.5 3.75 15.5C3.55109 15.5 3.36032 15.421 3.21967 15.2803C3.07902 15.1396 3 14.9489 3 14.75V8.74997C3 8.55106 3.07902 8.36029 3.21967 8.21964C3.36032 8.07899 3.55109 7.99997 3.75 7.99997C3.94891 7.99997 4.13968 8.07899 4.28033 8.21964C4.42098 8.36029 4.5 8.55106 4.5 8.74997V14.75ZM12 15.5C11.4067 15.5 10.8266 15.324 10.3333 14.9944C9.83994 14.6647 9.45542 14.1962 9.22836 13.648C9.0013 13.0998 8.94189 12.4966 9.05764 11.9147C9.1734 11.3328 9.45912 10.7982 9.87868 10.3787C10.2982 9.95909 10.8328 9.67337 11.4147 9.55761C11.9967 9.44186 12.5999 9.50127 13.1481 9.72833C13.6962 9.95539 14.1648 10.3399 14.4944 10.8333C14.8241 11.3266 15 11.9066 15 12.5C15 13.2956 14.6839 14.0587 14.1213 14.6213C13.5587 15.1839 12.7956 15.5 12 15.5ZM21 16.25C21 16.4489 20.921 16.6396 20.7803 16.7803C20.6397 16.921 20.4489 17 20.25 17C20.0511 17 19.8603 16.921 19.7197 16.7803C19.579 16.6396 19.5 16.4489 19.5 16.25V10.25C19.5 10.0511 19.579 9.86029 19.7197 9.71964C19.8603 9.57899 20.0511 9.49997 20.25 9.49997C20.4489 9.49997 20.6397 9.57899 20.7803 9.71964C20.921 9.86029 21 10.0511 21 10.25V16.25Z" fill="#044CA2"/>
</svg>
