<svg width="25" height="25" viewBox="0 0 25 25" fill="none" xmlns="http://www.w3.org/2000/svg">
<path d="M12.0996 2.5C17.6226 2.5 22.0996 6.977 22.0996 12.5C22.0996 18.023 17.6226 22.5 12.0996 22.5H4.09961C3.56918 22.5 3.06047 22.2893 2.6854 21.9142C2.31032 21.5391 2.09961 21.0304 2.09961 20.5V12.5C2.09961 6.977 6.57661 2.5 12.0996 2.5ZM12.0996 4.5C9.97788 4.5 7.94305 5.34285 6.44276 6.84315C4.94246 8.34344 4.09961 10.3783 4.09961 12.5V20.5H12.0996C14.2213 20.5 16.2562 19.6571 17.7565 18.1569C19.2568 16.6566 20.0996 14.6217 20.0996 12.5C20.0996 10.3783 19.2568 8.34344 17.7565 6.84315C16.2562 5.34285 14.2213 4.5 12.0996 4.5ZM12.0996 14.5C12.3545 14.5003 12.5996 14.5979 12.785 14.7728C12.9703 14.9478 13.0818 15.187 13.0968 15.4414C13.1117 15.6958 13.0289 15.9464 12.8653 16.1418C12.7018 16.3373 12.4697 16.4629 12.2166 16.493L12.0996 16.5H9.09961C8.84473 16.4997 8.59958 16.4021 8.41424 16.2272C8.2289 16.0522 8.11737 15.813 8.10244 15.5586C8.0875 15.3042 8.17028 15.0536 8.33387 14.8582C8.49746 14.6627 8.72951 14.5371 8.98261 14.507L9.09961 14.5H12.0996ZM15.0996 10.5C15.3648 10.5 15.6192 10.6054 15.8067 10.7929C15.9943 10.9804 16.0996 11.2348 16.0996 11.5C16.0996 11.7652 15.9943 12.0196 15.8067 12.2071C15.6192 12.3946 15.3648 12.5 15.0996 12.5H9.09961C8.83439 12.5 8.58004 12.3946 8.3925 12.2071C8.20497 12.0196 8.09961 11.7652 8.09961 11.5C8.09961 11.2348 8.20497 10.9804 8.3925 10.7929C8.58004 10.6054 8.83439 10.5 9.09961 10.5H15.0996Z" fill="#9CA3AF"/>
</svg>
