  <svg width="14" height="14" viewBox="0 0 14 14" fill="none" xmlns="http://www.w3.org/2000/svg">
              <g id="Group">
                <path id="Vector" fill-rule="evenodd" clip-rule="evenodd"
                  d="M6.99993 8.17833L11.7141 12.8925C11.8713 13.0443 12.0818 13.1283 12.3003 13.1264C12.5188 13.1245 12.7278 13.0368 12.8823 12.8823C13.0368 12.7278 13.1244 12.5188 13.1263 12.3003C13.1282 12.0818 13.0442 11.8713 12.8924 11.7142L8.17827 6.99999L12.8924 2.28583C13.0442 2.12866 13.1282 1.91816 13.1263 1.69966C13.1244 1.48116 13.0368 1.27215 12.8823 1.11764C12.7278 0.963137 12.5188 0.875496 12.3003 0.873597C12.0818 0.871698 11.8713 0.955694 11.7141 1.10749L6.99993 5.82166L2.28577 1.10749C2.12789 0.959446 1.91861 0.87863 1.70221 0.882144C1.48581 0.885658 1.27926 0.973227 1.12628 1.12632C0.97329 1.27941 0.885867 1.48602 0.882506 1.70243C0.879145 1.91883 0.96011 2.12805 1.10827 2.28583L5.8216 6.99999L1.10743 11.7142C1.02784 11.791 0.964357 11.883 0.920683 11.9847C0.877009 12.0863 0.85402 12.1957 0.853059 12.3063C0.852097 12.417 0.873182 12.5267 0.915083 12.6291C0.956983 12.7315 1.01886 12.8246 1.0971 12.9028C1.17535 12.9811 1.26839 13.0429 1.37081 13.0848C1.47322 13.1267 1.58295 13.1478 1.6936 13.1469C1.80425 13.1459 1.9136 13.1229 2.01527 13.0792C2.11694 13.0356 2.20889 12.9721 2.28577 12.8925L6.99993 8.17833Z"
                  fill="#9CA3AF" />
              </g>
            </svg>
