<svg width="20" height="20" viewBox="0 0 20 20" fill="none" xmlns="http://www.w3.org/2000/svg">
<path fill-rule="evenodd" clip-rule="evenodd" d="M11.9 1.66663C12.2498 1.66672 12.5907 1.77686 12.8744 1.98147C13.1581 2.18607 13.3703 2.47475 13.4808 2.80663L13.9333 4.16663H16.6667C16.8877 4.16663 17.0996 4.25442 17.2559 4.4107C17.4122 4.56698 17.5 4.77895 17.5 4.99996C17.5 5.22097 17.4122 5.43293 17.2559 5.58922C17.0996 5.7455 16.8877 5.83329 16.6667 5.83329H15.8333V15.8333C15.8333 16.4963 15.5699 17.1322 15.1011 17.6011C14.6323 18.0699 13.9964 18.3333 13.3333 18.3333H6.66667C6.00363 18.3333 5.36774 18.0699 4.8989 17.6011C4.43006 17.1322 4.16667 16.4963 4.16667 15.8333V5.83329H3.33333C3.11232 5.83329 2.90036 5.7455 2.74408 5.58922C2.5878 5.43293 2.5 5.22097 2.5 4.99996C2.5 4.77895 2.5878 4.56698 2.74408 4.4107C2.90036 4.25442 3.11232 4.16663 3.33333 4.16663H6.06667L6.51917 2.80663C6.62975 2.47462 6.84203 2.18584 7.12592 1.98122C7.4098 1.77661 7.75089 1.66654 8.10083 1.66663H11.9ZM14.1667 5.83329H5.83333V15.8333C5.83333 16.0543 5.92113 16.2663 6.07741 16.4225C6.23369 16.5788 6.44565 16.6666 6.66667 16.6666H13.3333C13.5543 16.6666 13.7663 16.5788 13.9226 16.4225C14.0789 16.2663 14.1667 16.0543 14.1667 15.8333V5.83329ZM11.9 3.33329H8.1L7.8225 4.16663H12.1775L11.9 3.33329Z" fill="#9CA3AF"/>
</svg>
