<svg width="40" height="40" viewBox="0 0 40 40" fill="none" xmlns="http://www.w3.org/2000/svg">
<rect width="40" height="40" rx="12" fill="#FF7623" fill-opacity="0.1"/>
<path d="M20 10C25.523 10 30 14.477 30 20C30 25.523 25.523 30 20 30C14.477 30 10 25.523 10 20C10 14.477 14.477 10 20 10ZM20 12C17.8783 12 15.8434 12.8429 14.3431 14.3431C12.8429 15.8434 12 17.8783 12 20C12 22.1217 12.8429 24.1566 14.3431 25.6569C15.8434 27.1571 17.8783 28 20 28C22.1217 28 24.1566 27.1571 25.6569 25.6569C27.1571 24.1566 28 22.1217 28 20C28 17.8783 27.1571 15.8434 25.6569 14.3431C24.1566 12.8429 22.1217 12 20 12ZM20 14C20.2449 14 20.4813 14.09 20.6644 14.2527C20.8474 14.4155 20.9643 14.6397 20.993 14.883L21 15V16H23C23.2549 16.0003 23.5 16.0979 23.6854 16.2728C23.8707 16.4478 23.9822 16.687 23.9972 16.9414C24.0121 17.1958 23.9293 17.4464 23.7657 17.6418C23.6021 17.8373 23.3701 17.9629 23.117 17.993L23 18H18C17.8751 17.9998 17.7545 18.0463 17.6622 18.1305C17.5699 18.2147 17.5124 18.3304 17.5011 18.4548C17.4898 18.5793 17.5255 18.7034 17.6012 18.8028C17.6769 18.9023 17.7871 18.9697 17.91 18.992L18 19H22C22.6499 18.9984 23.2748 19.25 23.7424 19.7013C24.21 20.1527 24.4834 20.7684 24.5047 21.418C24.5261 22.0675 24.2936 22.6998 23.8567 23.1809C23.4197 23.6619 22.8126 23.9539 22.164 23.995L22 24H21V25C20.9997 25.2549 20.9021 25.5 20.7272 25.6854C20.5522 25.8707 20.313 25.9822 20.0586 25.9972C19.8042 26.0121 19.5536 25.9293 19.3582 25.7657C19.1627 25.6021 19.0371 25.3701 19.007 25.117L19 25V24H17C16.7451 23.9997 16.5 23.9021 16.3146 23.7272C16.1293 23.5522 16.0178 23.313 16.0028 23.0586C15.9879 22.8042 16.0707 22.5536 16.2343 22.3582C16.3979 22.1627 16.6299 22.0371 16.883 22.007L17 22H22C22.1249 22.0002 22.2455 21.9537 22.3378 21.8695C22.4301 21.7853 22.4876 21.6696 22.4989 21.5452C22.5102 21.4207 22.4745 21.2966 22.3988 21.1972C22.3231 21.0977 22.2129 21.0303 22.09 21.008L22 21H18C17.3501 21.0016 16.7252 20.75 16.2576 20.2987C15.79 19.8473 15.5166 19.2316 15.4953 18.582C15.4739 17.9325 15.7064 17.3002 16.1433 16.8191C16.5803 16.3381 17.1874 16.0461 17.836 16.005L18 16H19V15C19 14.7348 19.1054 14.4804 19.2929 14.2929C19.4804 14.1054 19.7348 14 20 14Z" fill="#FF7623"/>
</svg>
