<svg width="28" height="28" viewBox="0 0 28 28" fill="none" xmlns="http://www.w3.org/2000/svg">
<rect width="28" height="28" rx="14" fill="#111827"/>
<path d="M14.0001 5.66669C18.6026 5.66669 22.3334 9.39752 22.3334 14C22.3334 18.6025 18.6026 22.3334 14.0001 22.3334C9.39758 22.3334 5.66675 18.6025 5.66675 14C5.66675 9.39752 9.39758 5.66669 14.0001 5.66669ZM16.9459 10.9842L12.8209 15.1092L11.0542 13.3417C10.9769 13.2643 10.885 13.2028 10.7839 13.1609C10.6828 13.119 10.5744 13.0974 10.465 13.0974C10.2439 13.0973 10.0319 13.185 9.8755 13.3413C9.71913 13.4975 9.63124 13.7095 9.63116 13.9306C9.63108 14.1516 9.71882 14.3637 9.87508 14.52L12.1734 16.8184C12.2585 16.9035 12.3596 16.9711 12.4709 17.0172C12.5821 17.0633 12.7013 17.087 12.8217 17.087C12.9422 17.087 13.0614 17.0633 13.1726 17.0172C13.2839 16.9711 13.385 16.9035 13.4701 16.8184L18.1251 12.1634C18.2815 12.007 18.3693 11.7949 18.3693 11.5738C18.3693 11.3526 18.2815 11.1406 18.1251 10.9842C17.9687 10.8278 17.7566 10.74 17.5355 10.74C17.3144 10.74 17.1023 10.8278 16.9459 10.9842Z" fill="white"/>
</svg>
