<svg width="20" height="20" viewBox="0 0 20 20" fill="none" xmlns="http://www.w3.org/2000/svg">
<path fill-rule="evenodd" clip-rule="evenodd" d="M11.5799 2.52502C11.8748 2.23007 12.2696 2.05642 12.6864 2.03837C13.1031 2.02032 13.5114 2.15918 13.8307 2.42753L13.9366 2.52502L17.4724 6.06086C17.7671 6.35574 17.9406 6.75037 17.9587 7.1669C17.9767 7.58342 17.838 7.99159 17.5699 8.31086L17.4724 8.41752L8.87742 17.0125C8.60073 17.2892 8.23552 17.4597 7.84575 17.4942L7.69908 17.5H3.33825C3.1309 17.5 2.93084 17.4235 2.77644 17.2851C2.62204 17.1467 2.52417 16.9561 2.50158 16.75L2.49658 16.6584V12.2975C2.49668 11.9062 2.63444 11.5275 2.88575 11.2275L2.98575 11.1192L11.5799 2.52502ZM10.1416 6.32002L4.16325 12.2984V15.8334H7.69992L13.6782 9.85503L10.1424 6.31919L10.1416 6.32002ZM12.7582 3.70336L11.3199 5.14169L14.8557 8.67753L16.2941 7.23919L12.7582 3.70336Z" fill="#9CA3AF"/>
</svg>
