<svg width="60" height="65" viewBox="0 0 60 65" fill="none" xmlns="http://www.w3.org/2000/svg">
<g filter="url(#filter0_d_22007_29163)">
<path d="M17.2427 43.555L17.2471 43.5596C19.3403 45.6731 21.6351 47.5769 24.0988 49.2438L24.1049 49.2479L24.9933 49.8394L24.9932 49.8394L25.0019 49.8451L25.4179 50.1159L25.4286 50.1229L25.4394 50.1295L26.5661 50.8229L26.5766 50.8294L26.5873 50.8356L27.4887 51.3599L27.4886 51.36L27.4958 51.364C28.2586 51.7994 29.1217 52.0284 30 52.0284C30.8783 52.0284 31.7414 51.7994 32.5042 51.364L32.5042 51.3641L32.5113 51.3599L33.4127 50.8356L33.4217 50.8303L33.4307 50.8249L34.1587 50.3807L34.1668 50.3757L34.1749 50.3706L34.9917 49.8506L35.0001 49.8453L35.0084 49.8397L35.4417 49.5516L35.4418 49.5516L35.4507 49.5455L36.3737 48.9172L36.3738 48.9172L36.381 48.9122C38.6652 47.3276 40.7983 45.5356 42.7533 43.5591L42.7571 43.5552C46.6665 39.5595 50.5 33.8696 50.5 26.8334C50.5 21.3964 48.3402 16.1822 44.4957 12.3377C40.6512 8.49319 35.4369 6.33337 30 6.33337C24.5631 6.33337 19.3488 8.49319 15.5043 12.3377C11.6598 16.1822 9.5 21.3964 9.5 26.8334C9.5 33.8697 13.3336 39.5574 17.2427 43.555Z" fill="#8E3A92" stroke="white" stroke-width="2"/>
</g>
<g clip-path="url(#clip0_22007_29163)">
<path d="M35.4889 32.9866H34.0743C34.0698 32.8978 34.0615 32.8107 34.0611 32.7236C34.0598 31.69 34.076 30.6565 34.0548 29.6238C34.0345 28.6141 33.786 27.6618 33.0783 26.9134C32.0276 25.8024 30.72 25.348 29.2084 25.5268C28.1249 25.655 27.2007 26.1219 26.4685 26.9427C25.9222 27.555 25.6231 28.3013 25.5824 29.1095C25.5214 30.3282 25.5401 31.551 25.5252 32.7722C25.5243 32.8396 25.5252 32.907 25.5252 32.9853H24.1073C24.1002 32.9309 24.089 32.8848 24.089 32.8387C24.089 31.8123 24.0812 30.7859 24.0928 29.7595C24.1164 27.7066 25.0274 26.111 26.6883 24.9954C28.5381 23.7533 30.5384 23.6779 32.4644 24.7429C34.3796 25.8016 35.4561 27.493 35.4947 29.7599C35.5117 30.7649 35.4988 31.7709 35.4988 32.7759C35.4988 32.8379 35.493 32.8999 35.4885 32.9862L35.4889 32.9866Z" fill="white"/>
<path d="M38.2682 24.098C38.2682 24.3279 38.2682 24.5231 38.2682 24.7182C38.2682 26.0378 38.2636 27.3574 38.2698 28.677C38.2769 30.247 39.6346 31.6938 41.172 31.8551C42.9449 32.041 44.2898 30.8127 44.6627 29.4236C44.7432 29.1242 44.7834 28.8051 44.7863 28.4944C44.7988 27.1191 44.7909 25.7438 44.7905 24.3681C44.7905 24.1869 44.8822 24.0962 45.0655 24.0959C45.3144 24.0959 45.5633 24.1005 45.8118 24.0934C45.9404 24.0896 45.9989 24.1248 45.9981 24.268C45.9906 25.8389 46.0196 27.4106 45.9728 28.9801C45.9445 29.9224 45.5285 30.7411 44.9062 31.4434C44.2019 32.2391 43.3428 32.7529 42.2895 32.9343C39.8491 33.3539 37.5265 31.7139 37.1 29.2528C37.0644 29.0476 37.0482 28.8365 37.0478 28.628C37.044 27.1899 37.0486 25.7514 37.0444 24.3133C37.044 24.1571 37.0755 24.0867 37.2494 24.0938C37.5791 24.1072 37.9098 24.0976 38.2686 24.0976L38.2682 24.098Z" fill="white"/>
<path d="M22.3801 24.0506C22.3801 24.4045 22.383 24.7312 22.3788 25.0578C22.3772 25.2044 22.2577 25.1659 22.1772 25.1659C21.2995 25.1692 20.4213 25.168 19.5435 25.1692C18.009 25.1713 16.7052 26.1697 16.3331 27.6693C15.8163 29.7515 17.1781 31.5033 18.8644 31.8157C19.0739 31.8546 19.2896 31.873 19.5024 31.8747C20.3872 31.8814 21.2721 31.8831 22.1569 31.8743C22.344 31.8722 22.3958 31.9333 22.3867 32.1143C22.373 32.3982 22.383 32.683 22.383 32.9824C22.2938 32.9878 22.2266 32.995 22.1594 32.995C21.2468 32.9958 20.3346 32.997 19.4219 32.9954C17.3063 32.9916 15.4185 31.4145 15.0675 29.3202C14.5934 26.4879 16.6799 24.3932 18.8034 24.1022C19.0424 24.0695 19.2851 24.0544 19.5261 24.0532C20.4657 24.0477 21.4052 24.0511 22.3805 24.0511L22.3801 24.0506Z" fill="white"/>
<path d="M29.2416 32.9924C29.2416 32.8911 29.2416 32.8224 29.2416 32.7541C29.242 30.8345 29.2416 28.9148 29.2437 26.9951C29.2437 26.6471 29.4424 26.4184 29.751 26.3992C30.0696 26.3791 30.3355 26.6119 30.3434 26.9344C30.3525 27.2832 30.3467 27.6325 30.3467 27.9813C30.3467 29.5589 30.3467 31.1368 30.3459 32.7144C30.3459 32.9 30.2512 32.9928 30.0617 32.9928C29.8004 32.9928 29.5386 32.9928 29.2412 32.9928L29.2416 32.9924Z" fill="white"/>
<path d="M20.1279 29.0727C19.4501 29.0727 18.7727 29.0786 18.0948 29.0706C17.6891 29.066 17.4776 28.811 17.5332 28.4219C17.5651 28.1987 17.7223 28.0254 17.9434 27.9797C18.0239 27.963 18.1077 27.9554 18.1898 27.9554C19.5173 27.9537 20.8451 27.9571 22.1726 27.9508C22.3365 27.95 22.3937 27.9986 22.3862 28.164C22.375 28.401 22.375 28.6393 22.3862 28.8763C22.3937 29.0367 22.3306 29.0798 22.1809 29.0786C21.4964 29.0727 20.812 29.0761 20.1271 29.0761V29.0731L20.1279 29.0727Z" fill="white"/>
</g>
<defs>
<filter id="filter0_d_22007_29163" x="0.5" y="0.333374" width="59" height="63.6951" filterUnits="userSpaceOnUse" color-interpolation-filters="sRGB">
<feFlood flood-opacity="0" result="BackgroundImageFix"/>
<feColorMatrix in="SourceAlpha" type="matrix" values="0 0 0 0 0 0 0 0 0 0 0 0 0 0 0 0 0 0 127 0" result="hardAlpha"/>
<feOffset dy="3"/>
<feGaussianBlur stdDeviation="4"/>
<feComposite in2="hardAlpha" operator="out"/>
<feColorMatrix type="matrix" values="0 0 0 0 0.0666667 0 0 0 0 0.0941176 0 0 0 0 0.152941 0 0 0 0.05 0"/>
<feBlend mode="normal" in2="BackgroundImageFix" result="effect1_dropShadow_22007_29163"/>
<feBlend mode="normal" in="SourceGraphic" in2="effect1_dropShadow_22007_29163" result="shape"/>
</filter>
<clipPath id="clip0_22007_29163">
<rect width="31" height="9" fill="white" transform="translate(15 24)"/>
</clipPath>
</defs>
</svg>
