<svg width="65" height="64" viewBox="0 0 65 64" fill="none" xmlns="http://www.w3.org/2000/svg">
<rect x="0.5" width="64" height="64" rx="32" fill="#D81B51"/>
<path d="M32.4999 20.3333C38.9434 20.3333 44.1666 25.5565 44.1666 32C44.1666 38.4435 38.9434 43.6666 32.4999 43.6666C26.0564 43.6666 20.8333 38.4435 20.8333 32C20.8333 25.5565 26.0564 20.3333 32.4999 20.3333ZM32.4999 35.5C32.1905 35.5 31.8938 35.6229 31.675 35.8417C31.4562 36.0605 31.3333 36.3572 31.3333 36.6666C31.3333 36.9761 31.4562 37.2728 31.675 37.4916C31.8938 37.7104 32.1905 37.8333 32.4999 37.8333C32.8093 37.8333 33.1061 37.7104 33.3249 37.4916C33.5437 37.2728 33.6666 36.9761 33.6666 36.6666C33.6666 36.3572 33.5437 36.0605 33.3249 35.8417C33.1061 35.6229 32.8093 35.5 32.4999 35.5ZM32.4999 25C32.2142 25 31.9384 25.1049 31.7248 25.2948C31.5113 25.4847 31.3749 25.7464 31.3414 26.0301L31.3333 26.1666V33.1666C31.3336 33.464 31.4474 33.75 31.6516 33.9662C31.8557 34.1825 32.1347 34.3126 32.4315 34.33C32.7284 34.3474 33.0207 34.2509 33.2487 34.06C33.4768 33.8691 33.6233 33.5984 33.6584 33.3031L33.6666 33.1666V26.1666C33.6666 25.8572 33.5437 25.5605 33.3249 25.3417C33.1061 25.1229 32.8093 25 32.4999 25Z" fill="white"/>
</svg>
