<svg width="20" height="20" viewBox="0 0 20 20" fill="none" xmlns="http://www.w3.org/2000/svg">
<path fill-rule="evenodd" clip-rule="evenodd" d="M3.33329 10.0009C3.33579 9.98752 3.34746 9.91419 3.41246 9.77002C3.48413 9.61085 3.59996 9.41085 3.76579 9.18002C4.09746 8.71919 4.59329 8.18669 5.21996 7.68169C6.48079 6.66335 8.17663 5.83335 9.99996 5.83335C11.8233 5.83335 13.5191 6.66335 14.78 7.68002C15.4066 8.18502 15.9025 8.71752 16.2341 9.17835C16.4008 9.40919 16.5158 9.60919 16.5875 9.76835C16.6525 9.91252 16.6641 9.98585 16.6666 9.99919V10C16.6641 10.0134 16.6525 10.0867 16.5875 10.2309C16.4889 10.4384 16.3705 10.636 16.2341 10.8209C15.9025 11.2817 15.4066 11.8142 14.78 12.3192C13.52 13.3367 11.8241 14.1667 9.99996 14.1667C8.17579 14.1667 6.48079 13.3367 5.21996 12.32C4.59329 11.815 4.09746 11.2825 3.76579 10.8217C3.62893 10.6371 3.51058 10.4395 3.41246 10.2317C3.37489 10.159 3.34821 10.0813 3.33329 10.0009ZM9.99996 4.16669C7.68079 4.16669 5.62663 5.21169 4.17413 6.38252C3.44329 6.97085 2.84079 7.61085 2.41329 8.20502C2.21011 8.47952 2.03559 8.77411 1.89246 9.08419C1.76913 9.35835 1.66663 9.67585 1.66663 10C1.66663 10.3234 1.76913 10.6425 1.89163 10.9159C2.02079 11.2009 2.19996 11.4992 2.41329 11.795C2.84079 12.3892 3.44329 13.0284 4.17413 13.6175C5.62663 14.7884 7.68079 15.8334 9.99996 15.8334C12.3191 15.8334 14.3733 14.7884 15.8258 13.6175C16.5566 13.0292 17.1591 12.3892 17.5866 11.795C17.8008 11.4984 17.9791 11.2009 18.1075 10.9159C18.2308 10.6425 18.3333 10.3242 18.3333 10C18.3333 9.67669 18.2308 9.35752 18.1083 9.08419C17.9639 8.77461 17.7892 8.48011 17.5866 8.20502C17.1591 7.61085 16.5566 6.97169 15.8258 6.38252C14.3733 5.21169 12.3191 4.16669 9.99996 4.16669ZM9.16663 10C9.16663 9.77901 9.25442 9.56705 9.4107 9.41076C9.56698 9.25448 9.77895 9.16669 9.99996 9.16669C10.221 9.16669 10.4329 9.25448 10.5892 9.41076C10.7455 9.56705 10.8333 9.77901 10.8333 10C10.8333 10.221 10.7455 10.433 10.5892 10.5893C10.4329 10.7456 10.221 10.8334 9.99996 10.8334C9.77895 10.8334 9.56698 10.7456 9.4107 10.5893C9.25442 10.433 9.16663 10.221 9.16663 10ZM9.99996 7.50002C9.33692 7.50002 8.70103 7.76341 8.23219 8.23225C7.76335 8.70109 7.49996 9.33698 7.49996 10C7.49996 10.6631 7.76335 11.2989 8.23219 11.7678C8.70103 12.2366 9.33692 12.5 9.99996 12.5C10.663 12.5 11.2989 12.2366 11.7677 11.7678C12.2366 11.2989 12.5 10.6631 12.5 10C12.5 9.33698 12.2366 8.70109 11.7677 8.23225C11.2989 7.76341 10.663 7.50002 9.99996 7.50002Z" fill="#007AFF"/>
</svg>
