<svg width="25" height="25" viewBox="0 0 25 25" fill="none" xmlns="http://www.w3.org/2000/svg">
<path fill-rule="evenodd" clip-rule="evenodd" d="M11.0998 3.15C11.446 2.89036 11.8671 2.75 12.2998 2.75C12.7325 2.75 13.1536 2.89036 13.4998 3.15L20.4998 8.4C20.7482 8.58629 20.9498 8.82786 21.0887 9.10557C21.2275 9.38328 21.2998 9.68951 21.2998 10V19.5C21.2998 20.0304 21.0891 20.5391 20.714 20.9142C20.3389 21.2893 19.8302 21.5 19.2998 21.5H5.2998C4.76937 21.5 4.26066 21.2893 3.88559 20.9142C3.51052 20.5391 3.2998 20.0304 3.2998 19.5V10C3.2998 9.68951 3.37209 9.38328 3.51095 9.10557C3.64981 8.82786 3.85141 8.58629 4.0998 8.4L11.0998 3.15ZM12.2998 4.75L5.2998 10V19.5H19.2998V10L12.2998 4.75Z" fill="#9CA3AF"/>
</svg>
