<svg xmlns="http://www.w3.org/2000/svg" xmlns:xlink="http://www.w3.org/1999/xlink" version="1.1" width="256" height="256" viewBox="0 0 256 256" xml:space="preserve">
<g style="stroke: none; stroke-width: 0; stroke-dasharray: none; stroke-linecap: butt; stroke-linejoin: miter; stroke-miterlimit: 10; fill: none; fill-rule: nonzero; opacity: 1;" transform="translate(1.4065934065934016 1.4065934065934016) scale(2.81 2.81)">
	<path d="M 30.621 36.508 c -1.284 -0.986 -2.478 -2.068 -3.587 -3.216 c 2.468 -3.487 4.587 -7.188 5.943 -10.524 h 8.26 c 1.104 0 2 -0.896 2 -2 s -0.896 -2 -2 -2 H 28.622 v -1.827 c 0 -1.104 -0.896 -2 -2 -2 s -2 0.896 -2 2 v 1.827 h -12.09 c -1.104 0 -2 0.896 -2 2 s 0.896 2 2 2 h 16.084 c -1.101 2.371 -2.586 4.91 -4.268 7.37 c -1.04 -1.404 -1.951 -2.882 -2.716 -4.413 c -0.493 -0.989 -1.695 -1.39 -2.683 -0.896 c -0.988 0.493 -1.39 1.694 -0.896 2.683 c 1.047 2.099 2.347 4.1 3.84 5.976 c -2.173 2.766 -4.51 5.257 -6.716 7.043 c -0.858 0.695 -0.991 1.955 -0.295 2.813 c 0.395 0.488 0.973 0.741 1.555 0.741 c 0.442 0 0.887 -0.146 1.258 -0.446 c 2.29 -1.855 4.674 -4.347 6.905 -7.122 c 1.122 1.122 2.313 2.185 3.585 3.162 c 0.363 0.279 0.792 0.414 1.217 0.414 c 0.6 0 1.194 -0.269 1.587 -0.782 C 31.662 38.436 31.497 37.181 30.621 36.508 z" style="stroke: none; stroke-width: 1; stroke-dasharray: none; stroke-linecap: butt; stroke-linejoin: miter; stroke-miterlimit: 10; fill: #6B7280; fill-rule: nonzero; opacity: 1;" transform=" matrix(1 0 0 1 0 0) " stroke-linecap="round"/>
	<path d="M 63.069 32.839 c -5.25 0 -9.521 4.271 -9.521 9.522 v 17.26 c 0 1.104 0.896 2 2 2 s 2 -0.896 2 -2 v -9.606 h 11.044 v 9.606 c 0 1.104 0.896 2 2 2 s 2 -0.896 2 -2 v -17.26 C 72.592 37.111 68.32 32.839 63.069 32.839 z M 57.548 46.015 v -3.653 c 0 -3.045 2.478 -5.522 5.522 -5.522 s 5.521 2.477 5.521 5.522 v 3.653 H 57.548 z" style="stroke: none; stroke-width: 1; stroke-dasharray: none; stroke-linecap: butt; stroke-linejoin: miter; stroke-miterlimit: 10; fill:#6B7280; fill-rule: nonzero; opacity: 1;" transform=" matrix(1 0 0 1 0 0) " stroke-linecap="round"/>
	<path d="M 80.142 26.093 H 53.86 v -7.695 c 0 -5.436 -4.423 -9.858 -9.858 -9.858 H 9.858 C 4.422 8.54 0 12.962 0 18.398 v 23.818 c 0 5.096 3.887 9.302 8.852 9.808 v 9.884 c 0 0.809 0.487 1.538 1.235 1.848 c 0.247 0.103 0.507 0.152 0.765 0.152 c 0.521 0 1.032 -0.203 1.415 -0.586 l 11.248 -11.247 H 36.14 v 7.695 c 0 5.436 4.422 9.858 9.858 9.858 h 20.489 l 11.247 11.247 c 0.383 0.383 0.894 0.586 1.414 0.586 c 0.258 0 0.518 -0.05 0.766 -0.152 c 0.747 -0.31 1.234 -1.039 1.234 -1.848 v -9.884 C 86.113 69.071 90 64.865 90 59.77 V 35.952 C 90 30.516 85.577 26.093 80.142 26.093 z M 22.685 48.074 c -0.53 0 -1.039 0.211 -1.414 0.586 l -8.419 8.419 v -7.005 c 0 -1.104 -0.896 -2 -2 -2 H 9.858 C 6.628 48.074 4 45.446 4 42.216 V 18.398 c 0 -3.23 2.628 -5.858 5.858 -5.858 h 34.144 c 3.23 0 5.858 2.628 5.858 5.858 v 7.695 h -3.862 c -5.436 0 -9.858 4.423 -9.858 9.859 v 12.123 H 22.685 z M 86 59.77 c 0 3.23 -2.628 5.858 -5.858 5.858 h -0.993 c -1.104 0 -2 0.896 -2 2 v 7.005 l -8.419 -8.419 c -0.375 -0.375 -0.884 -0.586 -1.414 -0.586 H 45.998 c -3.23 0 -5.858 -2.628 -5.858 -5.858 V 35.952 c 0 -3.23 2.628 -5.859 5.858 -5.859 h 34.144 c 3.23 0 5.858 2.628 5.858 5.859 V 59.77 z" style="stroke: none; stroke-width: 1; stroke-dasharray: none; stroke-linecap: butt; stroke-linejoin: miter; stroke-miterlimit: 10; fill:#6B7280; fill-rule: nonzero; opacity: 1;" transform=" matrix(1 0 0 1 0 0) " stroke-linecap="round"/>
</g>
</svg>
