<svg width="45" height="44" viewBox="0 0 45 44" fill="none" xmlns="http://www.w3.org/2000/svg">
<rect x="0.5" width="44" height="44" rx="22" fill="#E5E7EB"/>
<path fill-rule="evenodd" clip-rule="evenodd" d="M23.0932 33.2579L23.0822 33.2599L23.0112 33.2949L22.9912 33.2989L22.9772 33.2949L22.9062 33.2599C22.8955 33.2566 22.8875 33.2583 22.8822 33.2649L22.8782 33.2749L22.8612 33.7029L22.8662 33.7229L22.8762 33.7359L22.9802 33.8099L22.9952 33.8139L23.0072 33.8099L23.1112 33.7359L23.1232 33.7199L23.1272 33.7029L23.1102 33.2759C23.1075 33.2653 23.1018 33.2593 23.0932 33.2579ZM23.3582 33.1449L23.3452 33.1469L23.1602 33.2399L23.1502 33.2499L23.1472 33.2609L23.1652 33.6909L23.1702 33.7029L23.1782 33.7099L23.3792 33.8029C23.3918 33.8063 23.4015 33.8036 23.4082 33.7949L23.4122 33.7809L23.3782 33.1669C23.3748 33.1549 23.3682 33.1476 23.3582 33.1449ZM22.6432 33.1469C22.6388 33.1443 22.6335 33.1434 22.6285 33.1445C22.6234 33.1456 22.619 33.1487 22.6162 33.1529L22.6102 33.1669L22.5762 33.7809C22.5768 33.7929 22.5825 33.8009 22.5932 33.8049L22.6082 33.8029L22.8092 33.7099L22.8192 33.7019L22.8232 33.6909L22.8402 33.2609L22.8372 33.2489L22.8272 33.2389L22.6432 33.1469Z" fill="#111827"/>
<path fill-rule="evenodd" clip-rule="evenodd" d="M22.5 14C22.106 14 21.7159 14.0776 21.3519 14.2283C20.988 14.3791 20.6573 14.6001 20.3787 14.8786C20.1001 15.1572 19.8791 15.4879 19.7284 15.8519C19.5776 16.2159 19.5 16.606 19.5 17C19.5 17.3939 19.5776 17.784 19.7284 18.148C19.8791 18.512 20.1001 18.8427 20.3787 19.1213C20.6573 19.3999 20.988 19.6208 21.3519 19.7716C21.7159 19.9224 22.106 20 22.5 20C23.2956 20 24.0587 19.6839 24.6213 19.1213C25.1839 18.5587 25.5 17.7956 25.5 17C25.5 16.2043 25.1839 15.4412 24.6213 14.8786C24.0587 14.316 23.2956 14 22.5 14ZM17.5 17C17.5002 16.0539 17.7688 15.1274 18.2745 14.3279C18.7803 13.5284 19.5025 12.8888 20.3573 12.4834C21.212 12.078 22.1642 11.9234 23.1034 12.0375C24.0425 12.1517 24.9299 12.5299 25.6627 13.1283C26.3954 13.7267 26.9433 14.5207 27.2428 15.4181C27.5423 16.3155 27.5811 17.2794 27.3546 18.1979C27.1282 19.1164 26.6458 19.9519 25.9634 20.6072C25.2811 21.2625 24.4269 21.7108 23.5 21.9V27C23.5 27.2652 23.3946 27.5195 23.2071 27.7071C23.0196 27.8946 22.7652 28 22.5 28C22.2348 28 21.9804 27.8946 21.7929 27.7071C21.6054 27.5195 21.5 27.2652 21.5 27V21.9C20.3706 21.6694 19.3556 21.0558 18.6267 20.1629C17.8978 19.2699 17.4998 18.1526 17.5 17ZM19.989 26.1C20.0089 26.2298 20.003 26.3624 19.9716 26.49C19.9403 26.6176 19.8841 26.7378 19.8063 26.8436C19.7284 26.9495 19.6305 27.039 19.5181 27.107C19.4056 27.175 19.2809 27.2202 19.151 27.24C17.873 27.434 16.858 27.729 16.191 28.055C14.971 28.652 16.397 29.081 17.141 29.313C18.468 29.728 20.363 30 22.5 30C24.637 30 26.532 29.728 27.859 29.313C28.608 29.079 30.029 28.653 28.809 28.055C28.142 27.729 27.127 27.435 25.849 27.24C25.7177 27.2219 25.5912 27.178 25.477 27.1107C25.3628 27.0433 25.2632 26.954 25.1838 26.8478C25.1045 26.7416 25.047 26.6207 25.0149 26.4921C24.9827 26.3635 24.9764 26.2298 24.9963 26.0987C25.0163 25.9677 25.0621 25.8419 25.1311 25.7287C25.2001 25.6155 25.2909 25.5172 25.3983 25.4394C25.5056 25.3616 25.6274 25.306 25.7564 25.2757C25.8855 25.2454 26.0193 25.2411 26.15 25.263C27.538 25.473 28.772 25.81 29.689 26.259C30.573 26.692 31.5 27.421 31.5 28.5C31.5 29.311 30.976 29.9 30.466 30.277C28.316 31.865 25.036 32 22.5 32C20.218 32 18.113 31.712 16.545 31.222C15.295 30.832 13.5 30.062 13.5 28.5C13.5 27.42 14.427 26.692 15.311 26.26C16.228 25.81 17.463 25.474 18.849 25.263C18.9789 25.2431 19.1114 25.249 19.239 25.2803C19.3666 25.3117 19.4868 25.3679 19.5927 25.4457C19.6985 25.5235 19.788 25.6215 19.856 25.7339C19.924 25.8463 19.9692 25.9701 19.989 26.1Z" fill="#111827"/>
</svg>
