<svg width="29" height="28" viewBox="0 0 29 28" fill="none" xmlns="http://www.w3.org/2000/svg">
<path d="M14.5 3.5C14.7973 3.50033 15.0834 3.61419 15.2996 3.81832C15.5158 4.02245 15.6459 4.30145 15.6634 4.59829C15.6808 4.89514 15.5842 5.18744 15.3933 5.41547C15.2025 5.6435 14.9318 5.79005 14.6365 5.82517L14.5 5.83333H8.66666C8.3809 5.83337 8.1051 5.93828 7.89156 6.12817C7.67802 6.31805 7.54159 6.57971 7.50816 6.8635L7.49999 7V21C7.50003 21.2858 7.60494 21.5616 7.79482 21.7751C7.98471 21.9886 8.24636 22.1251 8.53016 22.1585L8.66666 22.1667H13.9167C14.214 22.167 14.5 22.2809 14.7163 22.485C14.9325 22.6891 15.0626 22.9681 15.08 23.265C15.0975 23.5618 15.0009 23.8541 14.81 24.0821C14.6192 24.3102 14.3484 24.4567 14.0532 24.4918L13.9167 24.5H8.66666C7.77391 24.5 6.91489 24.159 6.26535 23.5465C5.61582 22.934 5.22486 22.0965 5.17249 21.2053L5.16666 21V7C5.16661 6.10725 5.5077 5.24823 6.12015 4.5987C6.73261 3.94916 7.57011 3.55821 8.46132 3.50583L8.66666 3.5H14.5ZM21.1582 9.87467L24.4575 13.1752C24.6762 13.3939 24.7991 13.6906 24.7991 14C24.7991 14.3094 24.6762 14.6061 24.4575 14.8248L21.1582 18.1253C20.9392 18.3441 20.6424 18.4669 20.3329 18.4668C20.0234 18.4667 19.7267 18.3437 19.5079 18.1247C19.2891 17.9058 19.1663 17.609 19.1664 17.2995C19.1665 16.99 19.2896 16.6933 19.5085 16.4745L20.8163 15.1667H14.5C14.1906 15.1667 13.8938 15.0437 13.675 14.825C13.4562 14.6062 13.3333 14.3094 13.3333 14C13.3333 13.6906 13.4562 13.3938 13.675 13.175C13.8938 12.9562 14.1906 12.8333 14.5 12.8333H20.8163L19.5085 11.5255C19.2896 11.3067 19.1665 11.01 19.1664 10.7005C19.1663 10.391 19.2891 10.0942 19.5079 9.87525C19.7267 9.65634 20.0234 9.53329 20.3329 9.53318C20.6424 9.53307 20.9392 9.65591 21.1582 9.87467Z" fill="white"/>
</svg>
