<svg width="45" height="44" viewBox="0 0 45 44" fill="none" xmlns="http://www.w3.org/2000/svg">
<rect x="0.5" width="44" height="44" rx="22" fill="#E5E7EB"/>
<path d="M28.5 12C29.0304 12 29.5391 12.2107 29.9142 12.5858C30.2893 12.9609 30.5 13.4696 30.5 14V26.99C30.5 27.158 30.462 27.312 30.387 27.462L29.842 28.552C29.7725 28.6909 29.7363 28.8441 29.7363 28.9995C29.7363 29.1549 29.7725 29.3081 29.842 29.447L30.385 30.535C30.465 30.6874 30.5044 30.8578 30.4992 31.0299C30.4941 31.2019 30.4446 31.3697 30.3556 31.5171C30.2666 31.6644 30.1411 31.7863 29.9912 31.8709C29.8413 31.9555 29.6721 31.9999 29.5 32H17.5C16.7044 32 15.9413 31.6839 15.3787 31.1213C14.8161 30.5587 14.5 29.7956 14.5 29V15C14.5 14.2044 14.8161 13.4413 15.3787 12.8787C15.9413 12.3161 16.7044 12 17.5 12H28.5ZM27.908 28H17.5C17.2451 28.0003 17 28.0979 16.8146 28.2728C16.6293 28.4478 16.5178 28.687 16.5028 28.9414C16.4879 29.1958 16.5707 29.4464 16.7343 29.6418C16.8979 29.8373 17.1299 29.9629 17.383 29.993L17.5 30H27.908C27.7052 29.4266 27.6815 28.8052 27.84 28.218L27.908 28ZM28.5 14H17.5C17.2551 14 17.0187 14.09 16.8356 14.2527C16.6526 14.4155 16.5357 14.6397 16.507 14.883L16.5 15V26.17C16.7513 26.0813 17.015 26.027 17.291 26.007L17.5 26H28.5V14ZM24.5 17C24.7549 17.0003 25 17.0979 25.1854 17.2728C25.3707 17.4478 25.4822 17.687 25.4972 17.9414C25.5121 18.1958 25.4293 18.4464 25.2657 18.6418C25.1021 18.8373 24.8701 18.9629 24.617 18.993L24.5 19H20.5C20.2451 18.9997 20 18.9021 19.8146 18.7272C19.6293 18.5522 19.5178 18.313 19.5028 18.0586C19.4879 17.8042 19.5707 17.5536 19.7343 17.3582C19.8979 17.1627 20.1299 17.0371 20.383 17.007L20.5 17H24.5Z" fill="#111827"/>
</svg>
