<svg width="20" height="21" viewBox="0 0 20 21" fill="none" xmlns="http://www.w3.org/2000/svg">
<path fill-rule="evenodd" clip-rule="evenodd" d="M9.99984 3C10.2209 3 10.4328 3.0878 10.5891 3.24408C10.7454 3.40036 10.8332 3.61232 10.8332 3.83333V4.66667H11.4698C11.7284 4.66668 11.9835 4.72688 12.2148 4.8425L13.5298 5.5H16.6665C16.8875 5.5 17.0995 5.5878 17.2558 5.74408C17.412 5.90036 17.4998 6.11232 17.4998 6.33333C17.4998 6.55435 17.412 6.76631 17.2558 6.92259C17.0995 7.07887 16.8875 7.16667 16.6665 7.16667H16.3482L18.2448 10.9608C18.3032 11.0767 18.3332 11.2042 18.3332 11.3333C18.3332 12.2174 17.982 13.0652 17.3569 13.6904C16.7317 14.3155 15.8839 14.6667 14.9998 14.6667C14.1158 14.6667 13.2679 14.3155 12.6428 13.6904C12.0177 13.0652 11.6665 12.2174 11.6665 11.3333C11.6665 11.2042 11.6965 11.0767 11.7548 10.9608L13.6515 7.16667H13.5298C13.2712 7.16665 13.0162 7.10645 12.7848 6.99083L11.4698 6.33333H10.8332V16.3333H13.3332C13.5542 16.3333 13.7661 16.4211 13.9224 16.5774C14.0787 16.7337 14.1665 16.9457 14.1665 17.1667C14.1665 17.3877 14.0787 17.5996 13.9224 17.7559C13.7661 17.9122 13.5542 18 13.3332 18H6.6665C6.44549 18 6.23353 17.9122 6.07725 17.7559C5.92097 17.5996 5.83317 17.3877 5.83317 17.1667C5.83317 16.9457 5.92097 16.7337 6.07725 16.5774C6.23353 16.4211 6.44549 16.3333 6.6665 16.3333H9.1665V6.33333H8.52984L7.21484 6.99083C6.98351 7.10645 6.72845 7.16665 6.46984 7.16667H6.34817L8.24484 10.9608C8.30279 11.0765 8.33303 11.204 8.33317 11.3333C8.33317 12.2174 7.98198 13.0652 7.35686 13.6904C6.73174 14.3155 5.88389 14.6667 4.99984 14.6667C4.11578 14.6667 3.26794 14.3155 2.64281 13.6904C2.01769 13.0652 1.6665 12.2174 1.6665 11.3333C1.66664 11.204 1.69688 11.0765 1.75484 10.9608L3.6515 7.16667H3.33317C3.11216 7.16667 2.9002 7.07887 2.74391 6.92259C2.58763 6.76631 2.49984 6.55435 2.49984 6.33333C2.49984 6.11232 2.58763 5.90036 2.74391 5.74408C2.9002 5.5878 3.11216 5.5 3.33317 5.5H6.46984L7.78484 4.8425C8.01617 4.72688 8.27123 4.66668 8.52984 4.66667H9.1665V3.83333C9.1665 3.61232 9.2543 3.40036 9.41058 3.24408C9.56686 3.0878 9.77882 3 9.99984 3ZM4.99984 8.19667L3.34234 11.5108C3.38547 11.9204 3.57869 12.2994 3.88475 12.575C4.19081 12.8505 4.58803 13.0029 4.99984 13.0029C5.41164 13.0029 5.80887 12.8505 6.11493 12.575C6.42098 12.2994 6.61421 11.9204 6.65734 11.5108L4.99984 8.19667ZM14.9998 8.19667L13.3423 11.5108C13.3844 11.909 13.5683 12.2787 13.8605 12.5523C14.1527 12.826 14.5337 12.9854 14.9337 13.0012C15.3337 13.0171 15.7261 12.8885 16.0391 12.6388C16.3521 12.3892 16.5647 12.0352 16.6382 11.6417L16.6573 11.5117L14.9998 8.19667Z" fill="#111827"/>
</svg>
