<svg width="20" height="20" viewBox="0 0 20 20" fill="none" xmlns="http://www.w3.org/2000/svg">
<path fill-rule="evenodd" clip-rule="evenodd" d="M10 2.5C10.221 2.5 10.433 2.5878 10.5893 2.74408C10.7456 2.90036 10.8334 3.11232 10.8334 3.33333V4.16667H11.47C11.7286 4.16668 11.9837 4.22688 12.215 4.3425L13.53 5H16.6667C16.8877 5 17.0997 5.0878 17.2559 5.24408C17.4122 5.40036 17.5 5.61232 17.5 5.83333C17.5 6.05435 17.4122 6.26631 17.2559 6.42259C17.0997 6.57887 16.8877 6.66667 16.6667 6.66667H16.3484L18.245 10.4608C18.3034 10.5767 18.3334 10.7042 18.3334 10.8333C18.3334 11.7174 17.9822 12.5652 17.357 13.1904C16.7319 13.8155 15.8841 14.1667 15 14.1667C14.116 14.1667 13.2681 13.8155 12.643 13.1904C12.0179 12.5652 11.6667 11.7174 11.6667 10.8333C11.6667 10.7042 11.6967 10.5767 11.755 10.4608L13.6517 6.66667H13.53C13.2714 6.66665 13.0163 6.60645 12.785 6.49083L11.47 5.83333H10.8334V15.8333H13.3334C13.5544 15.8333 13.7663 15.9211 13.9226 16.0774C14.0789 16.2337 14.1667 16.4457 14.1667 16.6667C14.1667 16.8877 14.0789 17.0996 13.9226 17.2559C13.7663 17.4122 13.5544 17.5 13.3334 17.5H6.66669C6.44567 17.5 6.23371 17.4122 6.07743 17.2559C5.92115 17.0996 5.83335 16.8877 5.83335 16.6667C5.83335 16.4457 5.92115 16.2337 6.07743 16.0774C6.23371 15.9211 6.44567 15.8333 6.66669 15.8333H9.16669V5.83333H8.53002L7.21502 6.49083C6.98369 6.60645 6.72863 6.66665 6.47002 6.66667H6.34835L8.24502 10.4608C8.30297 10.5765 8.33322 10.704 8.33335 10.8333C8.33335 11.7174 7.98216 12.5652 7.35704 13.1904C6.73192 13.8155 5.88408 14.1667 5.00002 14.1667C4.11597 14.1667 3.26812 13.8155 2.643 13.1904C2.01788 12.5652 1.66669 11.7174 1.66669 10.8333C1.66683 10.704 1.69707 10.5765 1.75502 10.4608L3.65169 6.66667H3.33335C3.11234 6.66667 2.90038 6.57887 2.7441 6.42259C2.58782 6.26631 2.50002 6.05435 2.50002 5.83333C2.50002 5.61232 2.58782 5.40036 2.7441 5.24408C2.90038 5.0878 3.11234 5 3.33335 5H6.47002L7.78502 4.3425C8.01635 4.22688 8.27141 4.16668 8.53002 4.16667H9.16669V3.33333C9.16669 3.11232 9.25449 2.90036 9.41077 2.74408C9.56705 2.5878 9.77901 2.5 10 2.5ZM5.00002 7.69667L3.34252 11.0108C3.38565 11.4204 3.57887 11.7994 3.88493 12.075C4.19099 12.3505 4.58822 12.5029 5.00002 12.5029C5.41182 12.5029 5.80905 12.3505 6.11511 12.075C6.42117 11.7994 6.61439 11.4204 6.65752 11.0108L5.00002 7.69667ZM15 7.69667L13.3425 11.0108C13.3845 11.409 13.5685 11.7787 13.8607 12.0523C14.1529 12.326 14.5338 12.4854 14.9339 12.5012C15.3339 12.5171 15.7263 12.3885 16.0393 12.1388C16.3522 11.8892 16.5649 11.5352 16.6384 11.1417L16.6575 11.0117L15 7.69667Z" fill="#6B7280"/>
</svg>
