<svg width="25" height="25" viewBox="0 0 25 25" fill="none" xmlns="http://www.w3.org/2000/svg">
<path fill-rule="evenodd" clip-rule="evenodd" d="M3.07108 4.94C3.16262 4.80457 3.28597 4.69365 3.43032 4.61694C3.57467 4.54023 3.73562 4.50008 3.89908 4.5H14.8991C15.0989 4.50013 15.2941 4.56011 15.4595 4.67223C15.6249 4.78434 15.753 4.94344 15.8271 5.129L16.5781 7.005L16.9181 5.304C16.9634 5.07722 17.0859 4.87316 17.2648 4.72657C17.4437 4.57998 17.6678 4.49991 17.8991 4.5H21.8991C22.047 4.50009 22.193 4.53298 22.3267 4.5963C22.4603 4.65963 22.5782 4.75181 22.672 4.8662C22.7657 4.98059 22.8329 5.11435 22.8687 5.25784C22.9045 5.40133 22.9081 5.55098 22.8791 5.696L21.8991 10.6V18.5C21.8991 19.0304 21.6884 19.5391 21.3133 19.9142C20.9382 20.2893 20.4295 20.5 19.8991 20.5H6.89908C6.36865 20.5 5.85994 20.2893 5.48487 19.9142C5.1098 19.5391 4.89908 19.0304 4.89908 18.5V10.693L2.97108 5.87C2.91034 5.7183 2.88769 5.55403 2.90512 5.39156C2.92255 5.22908 2.97954 5.07336 3.07108 4.938V4.94ZM6.89908 11.5V18.5H15.8991V11.5H6.89908ZM17.8991 11.5V18.5H19.8991V11.5H17.8991ZM20.0791 9.5L20.6791 6.5H18.7191L18.1191 9.5H20.0791ZM15.4221 9.5L14.2221 6.5H5.37609L6.57608 9.5H15.4221ZM11.8991 16.5C11.8991 16.2348 12.0044 15.9804 12.192 15.7929C12.3795 15.6054 12.6339 15.5 12.8991 15.5H13.8991C14.1643 15.5 14.4187 15.6054 14.6062 15.7929C14.7937 15.9804 14.8991 16.2348 14.8991 16.5C14.8991 16.7652 14.7937 17.0196 14.6062 17.2071C14.4187 17.3946 14.1643 17.5 13.8991 17.5H12.8991C12.6339 17.5 12.3795 17.3946 12.192 17.2071C12.0044 17.0196 11.8991 16.7652 11.8991 16.5Z" fill="#9CA3AF"/>
</svg>
    