<svg width="24" height="24" viewBox="0 0 24 24" fill="none" xmlns="http://www.w3.org/2000/svg">
<path d="M2.90373 12H19.7194C20.0018 12 20.2517 12.1076 20.393 12.3144L22.8791 16.0292C23.0701 16.3202 23.0375 16.6722 22.7623 16.9633L19.2613 20.6781C19.0703 20.8774 18.8204 21 18.5379 21H1.79652C1.30584 21 0.948229 20.6472 1.00616 20.2036L1.92961 12.7965C1.98846 12.3445 2.41215 12 2.90283 12H2.90373Z" fill="#00C0C9"/>
<path d="M5.5895 18.863L6.10902 14.6871C6.45955 14.4478 6.85358 14.2533 7.19325 14.2533C7.63329 14.2533 7.84745 14.5848 7.78053 15.1548L7.32877 18.8638H8.9208L9.41772 14.8131L9.4286 14.6989C9.77912 14.4596 10.1849 14.2541 10.5237 14.2541C10.9637 14.2541 11.1779 14.5856 11.111 15.1556L10.6592 18.8647H12.2512L12.7482 14.814C12.8837 13.6841 12.3073 13 11.2808 13C10.5697 13 9.8126 13.411 9.30478 13.7873C9.09062 13.285 8.61628 13 7.95036 13C7.28444 13 6.6411 13.3315 6.13328 13.6731L6.20104 13.1598H4.71108L4 18.8655H5.59201H5.5895V18.863ZM15.0028 15.4846C15.1609 14.7319 15.7022 14.2863 16.3681 14.2863C17.034 14.2863 17.3954 14.6634 17.3954 15.2681C17.3954 15.3366 17.3954 15.4161 17.3845 15.4846H15.0028ZM13.3321 16.2499C13.3095 17.6765 14.3369 19 16.4367 19C17.1813 19 17.8137 18.852 18.3784 18.4977L18.4914 17.1514C18.0287 17.4372 17.3285 17.6309 16.7195 17.6309C15.918 17.6309 15.1952 17.2765 14.9927 16.4554H18.8988C18.9548 16.3074 19 15.9531 19 15.6106C19 14.1044 18.1751 13.0085 16.4819 13.0085C14.7886 13.0085 13.3547 14.0241 13.3321 16.2491V16.2499Z" fill="white"/>
<path d="M11.2718 7.33419C11.2718 6.69776 12.0094 6.46286 12.7693 6.46286H13.5411L13.4236 7.41709C13.096 7.67617 12.5111 7.94731 12.0197 7.94731C11.5754 7.94731 11.271 7.70034 11.271 7.33419H11.2718ZM9.62177 7.46459C9.60975 8.41882 10.3825 9.19689 11.5634 9.19689C12.3945 9.19689 13.0025 8.8437 13.3533 8.45423L13.283 9.05527H14.8739L15.2598 5.86269C15.4476 4.28411 14.9322 3 12.9193 3C12.1003 3 11.1063 3.18911 10.5677 3.54232L10.4039 4.86183C10.837 4.62607 11.6792 4.33851 12.4511 4.33851C13.3748 4.33851 13.7032 4.80311 13.6672 5.29792H12.6844C11.2573 5.29792 9.63033 5.85147 9.61918 7.46546H9.6209L9.62177 7.46459ZM5.04716 7.61745L5.40994 4.7202C5.76071 4.43782 6.15866 4.31952 6.50942 4.3316C7.21095 4.34283 7.59775 4.90846 7.59775 5.79275C7.59775 6.93524 7.00084 7.91278 5.99484 7.91278C5.67925 7.91278 5.31646 7.80742 5.04716 7.61831V7.61745ZM3 10.9983H4.63808L4.90736 8.77203C5.16466 8.97237 5.64493 9.19604 6.25212 9.19604C8.14748 9.19604 9.30615 7.51122 9.30615 5.67444C9.30615 4.10793 8.56858 3.01208 7.18865 3.01208C6.53344 3.01208 5.93653 3.22367 5.48026 3.60104L5.53857 3.16581H3.94768L3 11V10.9983ZM20.2211 3.16407L18.4425 7.24006L17.5188 3.16407H15.6938L17.3198 9.06564L16.3722 10.9983H18.174L22 3.16407H20.2211Z" fill="black"/>
</svg>
