<svg width="45" height="44" viewBox="0 0 45 44" fill="none" xmlns="http://www.w3.org/2000/svg">
<rect x="0.5" width="44" height="44" rx="22" fill="#E5E7EB"/>
<path fill-rule="evenodd" clip-rule="evenodd" d="M30.5 13C31.0046 12.9998 31.4906 13.1904 31.8605 13.5335C32.2305 13.8766 32.4572 14.3468 32.495 14.85L32.5 15V29C32.5002 29.5046 32.3096 29.9906 31.9665 30.3605C31.6234 30.7305 31.1532 30.9572 30.65 30.995L30.5 31H14.5C13.9954 31.0002 13.5094 30.8096 13.1395 30.4665C12.7695 30.1234 12.5428 29.6532 12.505 29.15L12.5 29V24C12.4998 23.4954 12.6904 23.0094 13.0335 22.6395C13.3766 22.2695 13.8468 22.0428 14.35 22.005L14.5 22H18.5V20C18.4998 19.4954 18.6904 19.0094 19.0335 18.6395C19.3766 18.2695 19.8468 18.0428 20.35 18.005L20.5 18H24.5V15C24.4998 14.4954 24.6904 14.0094 25.0335 13.6395C25.3766 13.2695 25.8468 13.0428 26.35 13.005L26.5 13H30.5ZM30.5 15H26.5V29H30.5V15ZM24.5 20H20.5V29H24.5V20ZM18.5 24H14.5V29H18.5V24Z" fill="#111827"/>
</svg>
