<svg width="44" height="44" viewBox="0 0 44 44" fill="none" xmlns="http://www.w3.org/2000/svg">
<rect width="44" height="44" rx="22" fill="#E5E7EB"/>
<path d="M20.772 12.688C21.1 12.4328 21.4994 12.2861 21.9147 12.2684C22.3299 12.2507 22.7404 12.3627 23.089 12.589L23.228 12.689L31.612 19.209C32.333 19.77 31.982 20.901 31.113 20.994L30.997 21H30V29C30.0002 29.5046 29.8096 29.9906 29.4665 30.3606C29.1234 30.7305 28.6532 30.9572 28.15 30.995L28 31H16C15.4956 30.9999 15.0099 30.8092 14.6401 30.4662C14.2703 30.1231 14.0438 29.653 14.006 29.15L14 29V21H13.003C12.09 21 11.671 19.892 12.3 19.285L12.388 19.209L20.772 12.688ZM22 14.267L15.625 19.225C15.854 19.41 16 19.693 16 20.01V29H19V24C19 23.2044 19.3161 22.4413 19.8787 21.8787C20.4413 21.3161 21.2043 21 22 21C22.7956 21 23.5587 21.3161 24.1213 21.8787C24.6839 22.4413 25 23.2044 25 24V29H28V20.01C28 19.693 28.146 19.41 28.375 19.225L22 14.267ZM22 23C21.7348 23 21.4804 23.1054 21.2929 23.2929C21.1054 23.4804 21 23.7348 21 24V29H23V24C23 23.7348 22.8946 23.4804 22.7071 23.2929C22.5196 23.1054 22.2652 23 22 23Z" fill="#111827"/>
</svg>
