<svg width="44" height="44" viewBox="0 0 44 44" fill="none" xmlns="http://www.w3.org/2000/svg">
<rect width="44" height="44" rx="22" fill="#E5E7EB"/>
<path fill-rule="evenodd" clip-rule="evenodd" d="M22 12C24.3869 12 26.6761 12.9482 28.364 14.636C30.0518 16.3239 31 18.6131 31 21C31 24.074 29.324 26.59 27.558 28.395C26.6757 29.2871 25.7129 30.0958 24.682 30.811L24.256 31.101L24.056 31.234L23.679 31.474L23.343 31.679L22.927 31.921C22.6446 32.0822 22.3251 32.1669 22 32.1669C21.6749 32.1669 21.3554 32.0822 21.073 31.921L20.657 31.679L20.137 31.359L19.945 31.234L19.535 30.961C18.4228 30.2085 17.3869 29.3491 16.442 28.395C14.676 26.589 13 24.074 13 21C13 18.6131 13.9482 16.3239 15.636 14.636C17.3239 12.9482 19.6131 12 22 12ZM22 14C20.1435 14 18.363 14.7375 17.0503 16.0503C15.7375 17.363 15 19.1435 15 21C15 23.322 16.272 25.36 17.871 26.996C18.5585 27.692 19.3017 28.3308 20.093 28.906L20.551 29.232C20.699 29.3353 20.8413 29.4313 20.978 29.52L21.368 29.77L21.711 29.979L22 30.148L22.455 29.879L22.822 29.649C23.0173 29.525 23.2263 29.386 23.449 29.232L23.907 28.906C24.6983 28.3308 25.4415 27.692 26.129 26.996C27.728 25.361 29 23.322 29 21C29 19.1435 28.2625 17.363 26.9497 16.0503C25.637 14.7375 23.8565 14 22 14ZM22 17C23.0609 17 24.0783 17.4214 24.8284 18.1716C25.5786 18.9217 26 19.9391 26 21C26 22.0609 25.5786 23.0783 24.8284 23.8284C24.0783 24.5786 23.0609 25 22 25C20.9391 25 19.9217 24.5786 19.1716 23.8284C18.4214 23.0783 18 22.0609 18 21C18 19.9391 18.4214 18.9217 19.1716 18.1716C19.9217 17.4214 20.9391 17 22 17ZM22 19C21.4696 19 20.9609 19.2107 20.5858 19.5858C20.2107 19.9609 20 20.4696 20 21C20 21.5304 20.2107 22.0391 20.5858 22.4142C20.9609 22.7893 21.4696 23 22 23C22.5304 23 23.0391 22.7893 23.4142 22.4142C23.7893 22.0391 24 21.5304 24 21C24 20.4696 23.7893 19.9609 23.4142 19.5858C23.0391 19.2107 22.5304 19 22 19Z" fill="#111827"/>
</svg>
