<svg width="28" height="28" viewBox="0 0 28 28" fill="none" xmlns="http://www.w3.org/2000/svg">
<rect width="28" height="28" rx="14" fill="#9CA3AF"/>
<path d="M14.0001 5.66669C18.6026 5.66669 22.3334 9.39752 22.3334 14C22.3334 18.6025 18.6026 22.3334 14.0001 22.3334C9.39758 22.3334 5.66675 18.6025 5.66675 14C5.66675 9.39752 9.39758 5.66669 14.0001 5.66669ZM14.0001 9.00002C13.7791 9.00002 13.5671 9.08782 13.4108 9.2441C13.2545 9.40038 13.1667 9.61234 13.1667 9.83335V14C13.1668 14.221 13.2546 14.4329 13.4109 14.5892L15.9109 17.0892C16.0681 17.241 16.2786 17.325 16.4971 17.3231C16.7156 17.3212 16.9246 17.2335 17.0791 17.079C17.2336 16.9245 17.3212 16.7155 17.3231 16.497C17.325 16.2785 17.241 16.068 17.0892 15.9109L14.8334 13.655V9.83335C14.8334 9.61234 14.7456 9.40038 14.5893 9.2441C14.4331 9.08782 14.2211 9.00002 14.0001 9.00002Z" fill="white"/>
</svg>
