<svg width="20" height="20" viewBox="0 0 20 20" fill="none" xmlns="http://www.w3.org/2000/svg">
<path fill-rule="evenodd" clip-rule="evenodd" d="M11.9 1.66675C12.2498 1.66684 12.5907 1.77699 12.8744 1.98159C13.1581 2.18619 13.3703 2.47487 13.4808 2.80675L13.9333 4.16675H16.6667C16.8877 4.16675 17.0996 4.25455 17.2559 4.41083C17.4122 4.56711 17.5 4.77907 17.5 5.00008C17.5 5.2211 17.4122 5.43306 17.2559 5.58934C17.0996 5.74562 16.8877 5.83342 16.6667 5.83342H15.8333V15.8334C15.8333 16.4965 15.5699 17.1323 15.1011 17.6012C14.6323 18.07 13.9964 18.3334 13.3333 18.3334H6.66667C6.00363 18.3334 5.36774 18.07 4.8989 17.6012C4.43006 17.1323 4.16667 16.4965 4.16667 15.8334V5.83342H3.33333C3.11232 5.83342 2.90036 5.74562 2.74408 5.58934C2.5878 5.43306 2.5 5.2211 2.5 5.00008C2.5 4.77907 2.5878 4.56711 2.74408 4.41083C2.90036 4.25455 3.11232 4.16675 3.33333 4.16675H6.06667L6.51917 2.80675C6.62975 2.47474 6.84203 2.18596 7.12592 1.98134C7.4098 1.77673 7.75089 1.66666 8.10083 1.66675H11.9ZM14.1667 5.83342H5.83333V15.8334C5.83333 16.0544 5.92113 16.2664 6.07741 16.4227C6.23369 16.579 6.44565 16.6667 6.66667 16.6667H13.3333C13.5543 16.6667 13.7663 16.579 13.9226 16.4227C14.0789 16.2664 14.1667 16.0544 14.1667 15.8334V5.83342ZM11.9 3.33341H8.1L7.8225 4.16675H12.1775L11.9 3.33341Z" fill="#D81B51"/>
</svg>
