 <svg width="17" height="17" viewBox="0 0 17 17" fill="none" xmlns="http://www.w3.org/2000/svg">
              <g id="Group">
                <path id="Vector" fill-rule="evenodd" clip-rule="evenodd"
                  d="M7.74997 0.666657C6.62046 0.666753 5.50735 0.93696 4.50351 1.45473C3.49967 1.97251 2.63421 2.72284 1.97933 3.64312C1.32445 4.5634 0.899142 5.62695 0.738891 6.74503C0.578639 7.86311 0.688092 9.0033 1.05812 10.0705C1.42814 11.1377 2.04801 12.1009 2.866 12.8798C3.68399 13.6587 4.67639 14.2306 5.7604 14.548C6.8444 14.8653 7.98859 14.9189 9.09748 14.7041C10.2064 14.4893 11.2478 14.0125 12.135 13.3133L15.1783 16.3567C15.3355 16.5085 15.546 16.5925 15.7645 16.5906C15.983 16.5887 16.192 16.501 16.3465 16.3465C16.501 16.192 16.5886 15.983 16.5905 15.7645C16.5924 15.546 16.5084 15.3355 16.3566 15.1783L13.3133 12.135C14.1366 11.0905 14.6493 9.83532 14.7926 8.51309C14.9358 7.19087 14.704 5.85501 14.1235 4.6584C13.543 3.4618 12.6374 2.45279 11.5102 1.74685C10.3831 1.04091 9.07994 0.666567 7.74997 0.666657ZM2.3333 7.74999C2.3333 6.3134 2.90398 4.93565 3.91981 3.91983C4.93563 2.90401 6.31338 2.33332 7.74997 2.33332C9.18656 2.33332 10.5643 2.90401 11.5801 3.91983C12.596 4.93565 13.1666 6.3134 13.1666 7.74999C13.1666 9.18658 12.596 10.5643 11.5801 11.5802C10.5643 12.596 9.18656 13.1667 7.74997 13.1667C6.31338 13.1667 4.93563 12.596 3.91981 11.5802C2.90398 10.5643 2.3333 9.18658 2.3333 7.74999Z"
                  fill="#9CA3AF" />
              </g>
            </svg>
