<svg width="24" height="24" viewBox="0 0 24 24" fill="none" xmlns="http://www.w3.org/2000/svg">
<path fill-rule="evenodd" clip-rule="evenodd" d="M10.7501 2.56699C11.1022 2.36361 11.4987 2.2492 11.905 2.23369C12.3114 2.21818 12.7154 2.30204 13.0821 2.47799L13.2501 2.56699L19.5441 6.19999C19.898 6.40428 20.1965 6.69224 20.4134 7.03864C20.6303 7.38505 20.7589 7.77934 20.7881 8.18699L20.7941 8.36499V15.633C20.794 16.0416 20.6937 16.4439 20.5021 16.8048C20.3106 17.1656 20.0334 17.474 19.6951 17.703L19.5451 17.798L13.2501 21.432C12.8979 21.6354 12.5014 21.7498 12.0951 21.7653C11.6887 21.7808 11.2847 21.6969 10.9181 21.521L10.7501 21.431L4.45605 17.8C4.10208 17.5957 3.80359 17.3078 3.58671 16.9613C3.36984 16.6149 3.2412 16.2206 3.21205 15.813L3.20605 15.635V8.36599C3.20626 7.95733 3.30663 7.55495 3.4984 7.19408C3.69017 6.83321 3.96748 6.52484 4.30605 6.29599L4.45605 6.20099L10.7501 2.56699ZM12.2501 4.29899C12.187 4.26261 12.1167 4.24045 12.0441 4.23406C11.9716 4.22767 11.8985 4.2372 11.8301 4.26199L11.7501 4.29899L5.45605 7.93299C5.39304 7.96942 5.33873 8.01916 5.29693 8.07875C5.25513 8.13834 5.22685 8.20634 5.21405 8.27799L5.20605 8.36599V15.634C5.20613 15.7068 5.2221 15.7787 5.25284 15.8447C5.28359 15.9106 5.32837 15.9691 5.38405 16.016L5.45605 16.066L11.7501 19.701C11.8131 19.7374 11.8834 19.7595 11.956 19.7659C12.0285 19.7723 12.1016 19.7628 12.1701 19.738L12.2501 19.701L18.5441 16.067C18.6073 16.0307 18.6618 15.981 18.7037 15.9214C18.7457 15.8618 18.7741 15.7937 18.7871 15.722L18.7941 15.634V8.36599C18.7941 8.29328 18.7783 8.22143 18.7477 8.15546C18.7172 8.08948 18.6726 8.03097 18.6171 7.98399L18.5441 7.93299L12.2501 4.29899ZM12.0001 7.99999C13.0609 7.99999 14.0783 8.42142 14.8285 9.17157C15.5786 9.92171 16.0001 10.9391 16.0001 12C16.0001 13.0609 15.5786 14.0783 14.8285 14.8284C14.0783 15.5786 13.0609 16 12.0001 16C10.9392 16 9.92177 15.5786 9.17163 14.8284C8.42148 14.0783 8.00005 13.0609 8.00005 12C8.00005 10.9391 8.42148 9.92171 9.17163 9.17157C9.92177 8.42142 10.9392 7.99999 12.0001 7.99999ZM12.0001 9.99999C11.4696 9.99999 10.9609 10.2107 10.5858 10.5858C10.2108 10.9609 10.0001 11.4696 10.0001 12C10.0001 12.5304 10.2108 13.0391 10.5858 13.4142C10.9609 13.7893 11.4696 14 12.0001 14C12.5305 14 13.0392 13.7893 13.4143 13.4142C13.7893 13.0391 14.0001 12.5304 14.0001 12C14.0001 11.4696 13.7893 10.9609 13.4143 10.5858C13.0392 10.2107 12.5305 9.99999 12.0001 9.99999Z" fill="#6B7280"/>
</svg>
