<svg width="18" height="17" viewBox="0 0 18 17" fill="none" xmlns="http://www.w3.org/2000/svg">
<path fill-rule="evenodd" clip-rule="evenodd" d="M14.4168 0.166687C14.898 0.16664 15.3718 0.285671 15.7959 0.513168C16.2199 0.740665 16.5811 1.06956 16.8472 1.47053C17.1134 1.8715 17.2761 2.33209 17.321 2.81123C17.3659 3.29037 17.2916 3.77317 17.1046 4.2166C16.9176 4.66003 16.6238 5.0503 16.2494 5.35263C15.875 5.65495 15.4315 5.85993 14.9587 5.94929C14.4858 6.03866 13.9982 6.00962 13.5392 5.86478C13.0803 5.71995 12.6644 5.4638 12.3285 5.11919L8.72512 7.00835C8.90262 7.47085 9.00012 7.97502 9.00012 8.50002C9.00049 9.00988 8.90728 9.51548 8.72512 9.99169L12.3285 11.8809C12.8178 11.3795 13.4713 11.0711 14.1694 11.012C14.8675 10.9529 15.5635 11.147 16.1302 11.5588C16.697 11.9707 17.0965 12.5728 17.2558 13.255C17.4151 13.9372 17.3235 14.654 16.9978 15.2743C16.6721 15.8945 16.134 16.3768 15.4819 16.633C14.8299 16.8891 14.1074 16.902 13.4466 16.6693C12.7858 16.4365 12.2309 15.9737 11.8833 15.3655C11.5356 14.7572 11.4186 14.0442 11.5535 13.3567L7.82429 11.4017C7.24673 11.997 6.50461 12.4065 5.69297 12.5775C4.88133 12.7486 4.0371 12.6735 3.26839 12.3619C2.49967 12.0503 1.84145 11.5164 1.37801 10.8284C0.914563 10.1405 0.666992 9.32991 0.666992 8.50044C0.666992 7.67096 0.914563 6.86037 1.37801 6.17244C1.84145 5.48451 2.49967 4.95056 3.26839 4.63896C4.0371 4.32735 4.88133 4.25228 5.69297 4.42334C6.50461 4.59441 7.24673 5.00383 7.82429 5.59919L11.5535 3.64335C11.4708 3.22079 11.4827 2.78517 11.5883 2.36775C11.694 1.95034 11.8907 1.5615 12.1645 1.22913C12.4382 0.896768 12.7821 0.629133 13.1715 0.445439C13.5609 0.261745 13.9862 0.16655 14.4168 0.166687ZM14.4168 12.6667C14.0853 12.6667 13.7673 12.7984 13.5329 13.0328C13.2985 13.2672 13.1668 13.5852 13.1668 13.9167C13.1668 14.2482 13.2985 14.5661 13.5329 14.8006C13.7673 15.035 14.0853 15.1667 14.4168 15.1667C14.7483 15.1667 15.0662 15.035 15.3007 14.8006C15.5351 14.5661 15.6668 14.2482 15.6668 13.9167C15.6668 13.5852 15.5351 13.2672 15.3007 13.0328C15.0662 12.7984 14.7483 12.6667 14.4168 12.6667ZM4.83345 6.00002C4.17041 6.00002 3.53453 6.26341 3.06569 6.73225C2.59685 7.20109 2.33345 7.83698 2.33345 8.50002C2.33345 9.16306 2.59685 9.79895 3.06569 10.2678C3.53453 10.7366 4.17041 11 4.83345 11C5.49649 11 6.13238 10.7366 6.60122 10.2678C7.07006 9.79895 7.33345 9.16306 7.33345 8.50002C7.33345 7.83698 7.07006 7.20109 6.60122 6.73225C6.13238 6.26341 5.49649 6.00002 4.83345 6.00002ZM14.4168 1.83335C14.2526 1.83335 14.0901 1.86569 13.9384 1.9285C13.7868 1.99132 13.649 2.0834 13.5329 2.19947C13.4168 2.31554 13.3248 2.45334 13.2619 2.605C13.1991 2.75666 13.1668 2.9192 13.1668 3.08335C13.1668 3.24751 13.1991 3.41005 13.2619 3.56171C13.3248 3.71337 13.4168 3.85116 13.5329 3.96724C13.649 4.08331 13.7868 4.17538 13.9384 4.2382C14.0901 4.30102 14.2526 4.33335 14.4168 4.33335C14.7483 4.33335 15.0662 4.20166 15.3007 3.96724C15.5351 3.73282 15.6668 3.41487 15.6668 3.08335C15.6668 2.75183 15.5351 2.43389 15.3007 2.19947C15.0662 1.96505 14.7483 1.83335 14.4168 1.83335Z" fill="#111827"/>
</svg>
