<svg width="65" height="64" viewBox="0 0 65 64" fill="none" xmlns="http://www.w3.org/2000/svg">
<rect x="0.5" width="64" height="64" rx="32" fill="#34C759"/>
<path d="M32.4999 20.3333C38.9434 20.3333 44.1666 25.5565 44.1666 32C44.1666 38.4435 38.9434 43.6666 32.4999 43.6666C26.0564 43.6666 20.8333 38.4435 20.8333 32C20.8333 25.5565 26.0564 20.3333 32.4999 20.3333ZM36.6241 27.7778L30.8491 33.5528L28.3758 31.0783C28.2674 30.9699 28.1388 30.8839 27.9973 30.8252C27.8557 30.7665 27.704 30.7363 27.5507 30.7362C27.2413 30.7361 26.9444 30.859 26.7255 31.0777C26.5066 31.2965 26.3835 31.5933 26.3834 31.9027C26.3833 32.2122 26.5062 32.5091 26.7249 32.728L29.9426 35.9456C30.0618 36.0649 30.2033 36.1595 30.359 36.224C30.5147 36.2885 30.6817 36.3217 30.8503 36.3217C31.0188 36.3217 31.1858 36.2885 31.3415 36.224C31.4972 36.1595 31.6387 36.0649 31.7579 35.9456L38.2749 29.4286C38.4938 29.2097 38.6168 28.9128 38.6168 28.6032C38.6168 28.2936 38.4938 27.9967 38.2749 27.7778C38.056 27.5589 37.7591 27.4359 37.4495 27.4359C37.1399 27.4359 36.843 27.5589 36.6241 27.7778Z" fill="white"/>
</svg>
