<svg width="20" height="20" viewBox="0 0 20 20" fill="none" xmlns="http://www.w3.org/2000/svg">
<path d="M12.5 3.33331C12.942 3.33331 13.366 3.50891 13.6785 3.82147C13.9911 4.13403 14.1667 4.55795 14.1667 4.99998V5.83331H15.4334C15.6832 5.83334 15.9298 5.88953 16.1549 5.99771C16.3801 6.10589 16.5781 6.26331 16.7342 6.45831L17.9675 8.00081C18.2043 8.29639 18.3333 8.66378 18.3334 9.04248V12.5C18.3334 12.942 18.1578 13.3659 17.8452 13.6785C17.5326 13.9911 17.1087 14.1666 16.6667 14.1666C16.6667 14.8297 16.4033 15.4656 15.9345 15.9344C15.4656 16.4033 14.8297 16.6666 14.1667 16.6666C13.5036 16.6666 12.8678 16.4033 12.3989 15.9344C11.9301 15.4656 11.6667 14.8297 11.6667 14.1666H8.33335C8.33335 14.495 8.26869 14.82 8.14305 15.1234C8.01742 15.4267 7.83327 15.7023 7.60112 15.9344C7.36897 16.1666 7.09338 16.3507 6.79006 16.4763C6.48675 16.602 6.16166 16.6666 5.83335 16.6666C5.50505 16.6666 5.17996 16.602 4.87665 16.4763C4.57333 16.3507 4.29773 16.1666 4.06559 15.9344C3.83344 15.7023 3.64929 15.4267 3.52366 15.1234C3.39802 14.82 3.33335 14.495 3.33335 14.1666C2.89133 14.1666 2.4674 13.9911 2.15484 13.6785C1.84228 13.3659 1.66669 12.942 1.66669 12.5V4.99998C1.66669 4.55795 1.84228 4.13403 2.15484 3.82147C2.4674 3.50891 2.89133 3.33331 3.33335 3.33331H12.5ZM5.83335 13.3333C5.61234 13.3333 5.40038 13.4211 5.2441 13.5774C5.08782 13.7337 5.00002 13.9456 5.00002 14.1666C5.00002 14.3877 5.08782 14.5996 5.2441 14.7559C5.40038 14.9122 5.61234 15 5.83335 15C6.05437 15 6.26633 14.9122 6.42261 14.7559C6.57889 14.5996 6.66669 14.3877 6.66669 14.1666C6.66669 13.9456 6.57889 13.7337 6.42261 13.5774C6.26633 13.4211 6.05437 13.3333 5.83335 13.3333ZM14.1667 13.3333C13.9457 13.3333 13.7337 13.4211 13.5774 13.5774C13.4212 13.7337 13.3334 13.9456 13.3334 14.1666C13.3334 14.3877 13.4212 14.5996 13.5774 14.7559C13.7337 14.9122 13.9457 15 14.1667 15C14.3877 15 14.5997 14.9122 14.7559 14.7559C14.9122 14.5996 15 14.3877 15 14.1666C15 13.9456 14.9122 13.7337 14.7559 13.5774C14.5997 13.4211 14.3877 13.3333 14.1667 13.3333ZM12.5 4.99998H3.33335V12.5H3.97002C4.1954 12.2474 4.46977 12.0433 4.77646 11.9C5.08316 11.7568 5.41577 11.6774 5.75411 11.6666C6.09244 11.6558 6.42943 11.714 6.7446 11.8375C7.05977 11.961 7.34655 12.1472 7.58752 12.385L7.69669 12.5H12.3034L12.3992 12.3991L12.5 12.3033V4.99998ZM15.4334 7.49998H14.1667V11.6666C14.85 11.6666 15.4692 11.9416 15.9209 12.385L16.03 12.5H16.6667V9.04165L15.4334 7.49998Z" fill="#6B7280"/>
</svg>
