<svg width="20" height="21" viewBox="0 0 20 21" fill="none" xmlns="http://www.w3.org/2000/svg">
<path d="M12.4998 3.83331C12.9419 3.83331 13.3658 4.00891 13.6783 4.32147C13.9909 4.63403 14.1665 5.05795 14.1665 5.49998V6.33331H15.4332C15.683 6.33334 15.9296 6.38953 16.1547 6.49771C16.3799 6.60589 16.5779 6.76331 16.734 6.95831L17.9673 8.50081C18.2041 8.79639 18.3331 9.16378 18.3332 9.54248V13C18.3332 13.442 18.1576 13.8659 17.845 14.1785C17.5325 14.4911 17.1085 14.6666 16.6665 14.6666C16.6665 15.3297 16.4031 15.9656 15.9343 16.4344C15.4654 16.9033 14.8295 17.1666 14.1665 17.1666C13.5035 17.1666 12.8676 16.9033 12.3987 16.4344C11.9299 15.9656 11.6665 15.3297 11.6665 14.6666H8.33317C8.33317 14.995 8.26851 15.32 8.14287 15.6234C8.01723 15.9267 7.83308 16.2023 7.60094 16.4344C7.36879 16.6666 7.09319 16.8507 6.78988 16.9763C6.48657 17.102 6.16148 17.1666 5.83317 17.1666C5.50487 17.1666 5.17978 17.102 4.87646 16.9763C4.57315 16.8507 4.29755 16.6666 4.0654 16.4344C3.83326 16.2023 3.64911 15.9267 3.52347 15.6234C3.39784 15.32 3.33317 14.995 3.33317 14.6666C2.89114 14.6666 2.46722 14.4911 2.15466 14.1785C1.8421 13.8659 1.6665 13.442 1.6665 13V5.49998C1.6665 5.05795 1.8421 4.63403 2.15466 4.32147C2.46722 4.00891 2.89114 3.83331 3.33317 3.83331H12.4998ZM5.83317 13.8333C5.61216 13.8333 5.4002 13.9211 5.24392 14.0774C5.08764 14.2337 4.99984 14.4456 4.99984 14.6666C4.99984 14.8877 5.08764 15.0996 5.24392 15.2559C5.4002 15.4122 5.61216 15.5 5.83317 15.5C6.05418 15.5 6.26615 15.4122 6.42243 15.2559C6.57871 15.0996 6.6665 14.8877 6.6665 14.6666C6.6665 14.4456 6.57871 14.2337 6.42243 14.0774C6.26615 13.9211 6.05418 13.8333 5.83317 13.8333ZM14.1665 13.8333C13.9455 13.8333 13.7335 13.9211 13.5772 14.0774C13.421 14.2337 13.3332 14.4456 13.3332 14.6666C13.3332 14.8877 13.421 15.0996 13.5772 15.2559C13.7335 15.4122 13.9455 15.5 14.1665 15.5C14.3875 15.5 14.5995 15.4122 14.7558 15.2559C14.912 15.0996 14.9998 14.8877 14.9998 14.6666C14.9998 14.4456 14.912 14.2337 14.7558 14.0774C14.5995 13.9211 14.3875 13.8333 14.1665 13.8333ZM12.4998 5.49998H3.33317V13H3.96984C4.19522 12.7474 4.46959 12.5433 4.77628 12.4C5.08297 12.2568 5.41559 12.1774 5.75392 12.1666C6.09226 12.1558 6.42924 12.214 6.74442 12.3375C7.05959 12.461 7.34637 12.6472 7.58734 12.885L7.6965 13H12.3032L12.399 12.8991L12.4998 12.8033V5.49998ZM15.4332 7.99998H14.1665V12.1666C14.8498 12.1666 15.469 12.4416 15.9207 12.885L16.0298 13H16.6665V9.54165L15.4332 7.99998Z" fill="#111827"/>
</svg>
