<svg width="28" height="28" viewBox="0 0 28 28" fill="none" xmlns="http://www.w3.org/2000/svg">
<path d="M17.5002 4.66663C18.119 4.66663 18.7125 4.91246 19.1501 5.35004C19.5877 5.78763 19.8335 6.38112 19.8335 6.99996V8.16663H21.6068C21.9566 8.16667 22.3018 8.24533 22.617 8.39678C22.9323 8.54824 23.2094 8.76862 23.428 9.04163L25.1547 11.2011C25.4861 11.6149 25.6667 12.1293 25.6668 12.6595V17.5C25.6668 18.1188 25.421 18.7123 24.9834 19.1499C24.5458 19.5875 23.9523 19.8333 23.3335 19.8333H22.1668C22.1668 20.7616 21.7981 21.6518 21.1417 22.3082C20.4853 22.9645 19.5951 23.3333 18.6668 23.3333C17.7386 23.3333 16.8483 22.9645 16.192 22.3082C15.5356 21.6518 15.1668 20.7616 15.1668 19.8333H11.6668C11.6668 20.2929 11.5763 20.748 11.4004 21.1727C11.2245 21.5973 10.9667 21.9832 10.6417 22.3082C10.3167 22.6332 9.93086 22.891 9.50622 23.0669C9.08158 23.2428 8.62646 23.3333 8.16683 23.3333C7.7072 23.3333 7.25208 23.2428 6.82744 23.0669C6.4028 22.891 6.01696 22.6332 5.69196 22.3082C5.36695 21.9832 5.10914 21.5973 4.93325 21.1727C4.75736 20.748 4.66683 20.2929 4.66683 19.8333C4.04799 19.8333 3.4545 19.5875 3.01691 19.1499C2.57933 18.7123 2.3335 18.1188 2.3335 17.5V6.99996C2.3335 6.38112 2.57933 5.78763 3.01691 5.35004C3.4545 4.91246 4.04799 4.66663 4.66683 4.66663H17.5002ZM8.16683 18.6666C7.85741 18.6666 7.56066 18.7895 7.34187 19.0083C7.12308 19.2271 7.00016 19.5239 7.00016 19.8333C7.00016 20.1427 7.12308 20.4395 7.34187 20.6583C7.56066 20.877 7.85741 21 8.16683 21C8.47625 21 8.77299 20.877 8.99179 20.6583C9.21058 20.4395 9.3335 20.1427 9.3335 19.8333C9.3335 19.5239 9.21058 19.2271 8.99179 19.0083C8.77299 18.7895 8.47625 18.6666 8.16683 18.6666ZM18.6668 18.6666C18.3574 18.6666 18.0607 18.7895 17.8419 19.0083C17.6231 19.2271 17.5002 19.5239 17.5002 19.8333C17.5002 20.1427 17.6231 20.4395 17.8419 20.6583C18.0607 20.877 18.3574 21 18.6668 21C18.9762 21 19.273 20.877 19.4918 20.6583C19.7106 20.4395 19.8335 20.1427 19.8335 19.8333C19.8335 19.5239 19.7106 19.2271 19.4918 19.0083C19.273 18.7895 18.9762 18.6666 18.6668 18.6666ZM21.6068 10.5H19.8335V15.1666H23.3335V12.6583L21.6068 10.5Z" fill="#044CA2"/>
</svg>
