<svg width="25" height="25" viewBox="0 0 25 25" fill="none" xmlns="http://www.w3.org/2000/svg">
<path fill-rule="evenodd" clip-rule="evenodd" d="M12.7 13.5C15.096 13.5 17.275 14.194 18.878 15.172C19.678 15.66 20.362 16.236 20.856 16.862C21.342 17.477 21.7 18.213 21.7 19C21.7 19.845 21.289 20.511 20.697 20.986C20.137 21.436 19.398 21.734 18.613 21.942C17.035 22.359 14.929 22.5 12.7 22.5C10.471 22.5 8.36495 22.36 6.78695 21.942C6.00195 21.734 5.26295 21.436 4.70295 20.986C4.10995 20.51 3.69995 19.845 3.69995 19C3.69995 18.213 4.05795 17.477 4.54395 16.861C5.03795 16.236 5.72095 15.661 6.52195 15.171C8.12495 14.195 10.305 13.5 12.7 13.5ZM12.7 15.5C10.677 15.5 8.85695 16.09 7.56395 16.879C6.91695 17.273 6.42895 17.701 6.11395 18.101C5.78995 18.511 5.69995 18.821 5.69995 19C5.69995 19.122 5.73695 19.251 5.95495 19.426C6.20395 19.626 6.63695 19.833 7.29895 20.008C8.61695 20.358 10.511 20.5 12.7 20.5C14.89 20.5 16.783 20.357 18.1 20.008C18.763 19.833 19.196 19.626 19.445 19.426C19.663 19.251 19.7 19.122 19.7 19C19.7 18.82 19.61 18.511 19.287 18.101C18.971 17.701 18.483 17.273 17.836 16.879C16.543 16.089 14.723 15.5 12.7 15.5ZM12.7 2.5C14.026 2.5 15.2978 3.02678 16.2355 3.96447C17.1732 4.90215 17.7 6.17392 17.7 7.5C17.7 8.82608 17.1732 10.0979 16.2355 11.0355C15.2978 11.9732 14.026 12.5 12.7 12.5C11.3739 12.5 10.1021 11.9732 9.16442 11.0355C8.22674 10.0979 7.69995 8.82608 7.69995 7.5C7.69995 6.17392 8.22674 4.90215 9.16442 3.96447C10.1021 3.02678 11.3739 2.5 12.7 2.5ZM12.7 4.5C12.306 4.5 11.9159 4.5776 11.5519 4.72836C11.1879 4.87913 10.8572 5.1001 10.5786 5.37868C10.3001 5.65726 10.0791 5.98797 9.92831 6.35195C9.77755 6.71593 9.69995 7.10603 9.69995 7.5C9.69995 7.89397 9.77755 8.28407 9.92831 8.64805C10.0791 9.01203 10.3001 9.34274 10.5786 9.62132C10.8572 9.8999 11.1879 10.1209 11.5519 10.2716C11.9159 10.4224 12.306 10.5 12.7 10.5C13.4956 10.5 14.2587 10.1839 14.8213 9.62132C15.3839 9.05871 15.7 8.29565 15.7 7.5C15.7 6.70435 15.3839 5.94129 14.8213 5.37868C14.2587 4.81607 13.4956 4.5 12.7 4.5Z" fill="#9CA3AF"/>
</svg>
