<svg width="73" height="50" viewBox="0 0 73 50" fill="none" xmlns="http://www.w3.org/2000/svg">
<path d="M68.9374 37.3594H71.6953L72.3167 33.4061H62.054L61.4077 37.3594H64.3648L62.4514 49.6828H66.9743L68.9374 37.3594ZM13.1682 33.4061H8.62046L7.07597 43.2106C6.78682 46.2743 4.19038 46.1783 4.71369 43.68L6.33447 33.4061H1.78731L0.0973492 44.1677C-1.15681 51.1622 10.097 52.577 11.4481 44.2871L13.1682 33.4061ZM11.5545 49.6828H22.8361L23.4824 45.6808H18.487L25.7187 33.4061H14.9339L14.3621 37.1397H18.9595L11.5545 49.6828ZM23.9554 49.6828H28.5032L29.3227 44.3141H30.1677C34.2182 44.3141 36.927 41.7519 36.927 37.9938C36.927 34.9679 35.0632 33.4061 31.4852 33.4061H26.4904L23.9554 49.6828ZM29.9194 40.5074L30.516 36.7981H30.9382C32.0771 36.7981 32.5123 37.5909 32.3893 38.7169C32.2834 39.6846 31.5644 40.5074 30.3918 40.5074H29.9194ZM44.5607 33.1133C36.2002 33.1133 33.8391 50 42.5941 50C51.6375 50 52.9212 33.1133 44.5607 33.1133ZM44.2893 37.1206C46.5026 37.1206 45.4152 46.0468 43.0624 46.0468C40.7096 46.0468 42.0761 37.1206 44.2893 37.1206ZM49.8263 48.7799C51.0941 49.5852 52.5103 49.9757 54.0512 49.9757C57.7037 49.9757 60.189 47.6329 60.189 44.2166C60.189 40.8533 56.436 39.5013 56.4614 38.067C56.4916 36.4009 59.1838 36.9725 60.2387 38.0427L60.885 33.9917C59.6172 33.3817 58.4742 33.1133 57.2816 33.1133C54.0264 33.1133 51.6405 35.4072 51.6405 38.4575C51.6405 41.7613 55.3681 43.1645 55.3681 44.5582C55.3681 45.3147 54.6969 45.8028 53.6285 45.8028C52.6096 45.8028 51.5908 45.3392 50.5223 44.3874L49.8263 48.7799Z" fill="#183E98"/>
<path fill-rule="evenodd" clip-rule="evenodd" d="M23.1649 0L40.7275 17.2468L37.6321 20.2864L16.9737 0H23.1649ZM32.4516 0L45.3707 12.6866L42.2754 15.7264L26.2604 0H32.4516ZM13.8782 0L35.5431 21.2752H33.4266C30.7181 21.2752 28.3863 20.3268 26.4711 18.446L7.68701 0H13.8782Z" fill="#F07824"/>
<path fill-rule="evenodd" clip-rule="evenodd" d="M40.6281 4.98047C45.0955 4.98047 50.621 4.98047 55.3213 4.98047C59.2043 4.98047 61.3866 7.03998 62.0437 7.68421L64.7068 10.2989C63.2021 10.2989 61.6976 10.2993 60.1934 10.2993L51.8975 18.4462C49.983 20.3265 47.6503 21.2753 44.9422 21.2753H39.7297C43.4552 17.6165 47.1809 13.9581 50.9062 10.299L48.7502 10.2989C47.3013 10.2989 45.6487 9.91326 43.8798 8.17535L40.6281 4.98047Z" fill="#183E98"/>
</svg>
