<svg width="60" height="65" viewBox="0 0 60 65" fill="none" xmlns="http://www.w3.org/2000/svg">
<g filter="url(#filter0_d_23303_4440)">
<path d="M30 6.33301C35.4369 6.33301 40.6516 8.49242 44.4961 12.3369C48.3406 16.1814 50.5 21.3961 50.5 26.833C50.5 33.8693 46.6662 39.559 42.7568 43.5547L42.7529 43.5586C40.798 45.5351 38.665 47.3275 36.3809 48.9121L36.374 48.917L35.4512 49.5449L35.4414 49.5508L35.0088 49.8398L35 49.8447L34.9912 49.8506L34.1748 50.3701L34.167 50.375L34.1582 50.3799L33.4307 50.8242L33.4219 50.8301L33.4131 50.835L32.5117 51.3594L32.5039 51.3633C31.7411 51.7986 30.8783 52.0283 30 52.0283C29.1217 52.0283 28.2589 51.7986 27.4961 51.3633L27.4883 51.3594L26.5869 50.835L26.5762 50.8291L26.5664 50.8223L25.4395 50.1289L25.418 50.1152L25.002 49.8447L24.9932 49.8389L24.1045 49.2471L24.0986 49.2432C21.6351 47.5763 19.3401 45.673 17.2471 43.5596L17.2422 43.5547V43.5537C13.3334 39.5562 9.5 33.8689 9.5 26.833C9.5 21.3961 11.6594 16.1814 15.5039 12.3369C19.3484 8.49242 24.5631 6.33301 30 6.33301Z" fill="#E9671E" stroke="white" stroke-width="2"/>
<g clip-path="url(#clip0_23303_4440)">
<path d="M17.4622 19.5884C18.2084 19.5873 18.9546 19.5864 19.7009 19.5858C19.7894 19.5858 19.8779 19.5857 19.9664 19.5856C19.984 19.5856 20.0016 19.5856 20.0198 19.5856C20.3034 19.5854 20.587 19.585 20.8706 19.5845C21.1626 19.584 21.4545 19.5837 21.7465 19.5836C21.9101 19.5836 22.0737 19.5834 22.2372 19.583C23.8297 19.5795 23.8297 19.5795 24.5161 19.686C24.5449 19.6904 24.5738 19.6948 24.6035 19.6994C25.0284 19.7669 25.586 19.8566 25.8988 20.1772C25.906 20.2539 25.9053 20.3134 25.8973 20.3889C25.8955 20.4101 25.8938 20.4314 25.892 20.4533C25.8862 20.5237 25.8793 20.5939 25.8725 20.6642C25.8682 20.7131 25.864 20.762 25.8598 20.8109C25.8487 20.9398 25.8367 21.0685 25.8245 21.1972C25.8124 21.328 25.801 21.4589 25.7896 21.5898C25.7728 21.7811 25.7557 21.9724 25.7378 22.1636C25.736 22.1835 25.7341 22.2035 25.7323 22.2241C25.7232 22.3196 25.7115 22.4129 25.6898 22.5065C25.7158 22.5064 25.7158 22.5064 25.7422 22.5064C25.9214 22.5058 26.1006 22.5054 26.2799 22.5051C26.3468 22.505 26.4138 22.5048 26.4807 22.5046C26.5768 22.5043 26.6728 22.5041 26.7688 22.504C26.814 22.5038 26.814 22.5038 26.8601 22.5036C26.8879 22.5036 26.9156 22.5036 26.9441 22.5036C26.9687 22.5036 26.9932 22.5035 27.0185 22.5035C27.0742 22.5065 27.0742 22.5065 27.1003 22.5321C27.1618 23.348 27.0116 24.1627 26.5844 24.8711C26.5692 24.8965 26.5692 24.8965 26.5536 24.9224C26.5285 24.9628 26.5011 25.0019 26.4734 25.0407C26.4562 25.0407 26.4389 25.0407 26.4212 25.0407C26.4039 25.0829 26.3867 25.1251 26.3689 25.1686C26.3517 25.1686 26.3345 25.1686 26.3167 25.1686C26.3101 25.1835 26.3035 25.1983 26.2967 25.2135C26.2093 25.3693 26.0419 25.4969 25.8988 25.6038C25.8816 25.6038 25.8643 25.6038 25.8466 25.6038C25.8466 25.6207 25.8466 25.6376 25.8466 25.655C25.8076 25.6838 25.8076 25.6838 25.7527 25.7153C25.7223 25.7327 25.7223 25.7327 25.6913 25.7505C25.6692 25.7628 25.6472 25.7751 25.6245 25.7878C25.6023 25.8003 25.58 25.8129 25.557 25.8258C25.3323 25.9502 25.0992 26.0613 24.854 26.1413C24.8775 26.1516 24.9009 26.1619 24.925 26.1724C25.7613 26.5435 26.4523 27.0507 26.7949 27.9127C27.1467 28.8536 27.0263 30.0525 26.6032 30.9517C26.5309 31.1005 26.4542 31.2466 26.3689 31.3888C26.3568 31.4094 26.3446 31.43 26.3321 31.4513C26.2675 31.5575 26.2675 31.5575 26.2383 31.5936C26.2211 31.5936 26.2039 31.5936 26.1861 31.5936C26.1775 31.6274 26.1689 31.6611 26.16 31.696C26.1427 31.696 26.1255 31.696 26.1077 31.696C26.1007 31.7165 26.0937 31.7371 26.0865 31.7583C26.0763 31.78 26.0661 31.8016 26.0555 31.8239C26.0297 31.8324 26.0038 31.8408 25.9772 31.8495C25.9585 31.883 25.9413 31.9173 25.9249 31.9519C25.8259 32.0815 25.7144 32.1832 25.58 32.2765C25.5282 32.3121 25.5282 32.3121 25.4711 32.3711C25.4571 32.3848 25.4431 32.3985 25.4286 32.4127C25.4114 32.4127 25.3942 32.4127 25.3764 32.4127C25.3764 32.4296 25.3764 32.4465 25.3764 32.4639C25.3419 32.4723 25.3074 32.4808 25.2719 32.4895C25.2719 32.5064 25.2719 32.5233 25.2719 32.5407C23.9038 33.3361 22.3389 33.3175 20.7933 33.3138C20.6352 33.3134 20.4771 33.3134 20.3191 33.3134C20.0211 33.3132 19.7232 33.3128 19.4253 33.3123C19.0855 33.3117 18.7457 33.3114 18.4059 33.3112C17.7083 33.3106 17.0106 33.3097 16.313 33.3086C16.3053 33.0043 16.3294 32.705 16.3554 32.4021C16.3601 32.347 16.3647 32.2918 16.3693 32.2366C16.3819 32.0858 16.3947 31.9349 16.4075 31.7841C16.4214 31.6211 16.435 31.4581 16.4487 31.2952C16.474 30.9947 16.4994 30.6942 16.5248 30.3938C16.5483 30.1164 16.5718 29.8389 16.5952 29.5615C16.5967 29.5431 16.5983 29.5247 16.5999 29.5057C16.6062 29.4309 16.6125 29.3561 16.6188 29.2814C16.6779 28.5806 16.7371 27.8799 16.7965 27.1791C16.8492 26.5563 16.9018 25.9335 16.9543 25.3107C16.9677 25.151 16.9812 24.9914 16.9946 24.8317C16.9963 24.8121 16.998 24.7924 16.9997 24.7722C17.0435 24.2517 17.0875 23.7313 17.1315 23.2109C17.1362 23.1549 17.141 23.0989 17.1457 23.043C17.1488 23.0059 17.152 22.9687 17.1551 22.9316C17.177 22.6725 17.1989 22.4135 17.2207 22.1544C17.2488 21.8208 17.277 21.4872 17.3053 21.1536C17.3189 20.9927 17.3326 20.8318 17.3461 20.6708C17.3585 20.5237 17.3709 20.3767 17.3835 20.2296C17.388 20.1762 17.3925 20.1228 17.397 20.0693C17.403 19.9972 17.4092 19.925 17.4154 19.8528C17.4171 19.8317 17.4188 19.8106 17.4206 19.7888C17.4331 19.6455 17.4331 19.6455 17.4622 19.5884ZM20.466 21.8666C20.4412 21.9393 20.433 21.9962 20.4268 22.0722C20.4245 22.0988 20.4223 22.1253 20.42 22.1528C20.4177 22.1819 20.4153 22.2111 20.4129 22.2411C20.4103 22.2719 20.4078 22.3026 20.4052 22.3342C20.3982 22.4185 20.3913 22.5027 20.3844 22.5869C20.3773 22.675 20.37 22.763 20.3627 22.8511C20.3489 23.0178 20.3353 23.1845 20.3216 23.3512C20.3061 23.541 20.2905 23.7308 20.2748 23.9206C20.2426 24.311 20.2106 24.7014 20.1786 25.0919C20.3692 25.0937 20.5597 25.095 20.7503 25.0958C20.8389 25.0962 20.9274 25.0968 21.016 25.0977C22.135 25.1091 22.135 25.1091 23.1399 24.6743C23.5046 24.3084 23.7033 23.7805 23.7113 23.2729C23.7064 22.894 23.5887 22.4961 23.3144 22.2166C22.8915 21.8793 22.2716 21.8576 21.7515 21.8616C21.7141 21.8617 21.6766 21.8618 21.6391 21.8618C21.5421 21.862 21.445 21.8625 21.348 21.8631C21.2484 21.8636 21.1487 21.8638 21.0491 21.8641C20.8547 21.8646 20.6603 21.8655 20.466 21.8666ZM19.9958 27.37C19.9513 27.7381 19.9182 28.1068 19.887 28.4762C19.8819 28.5374 19.8767 28.5986 19.8715 28.6599C19.8607 28.7873 19.8499 28.9147 19.8392 29.0421C19.8255 29.2048 19.8116 29.3676 19.7977 29.5303C19.787 29.6563 19.7764 29.7824 19.7657 29.9085C19.7607 29.9685 19.7556 30.0285 19.7504 30.0885C19.7433 30.1723 19.7362 30.2562 19.7292 30.3401C19.7271 30.3644 19.725 30.3888 19.7228 30.4139C19.7095 30.577 19.7062 30.7388 19.7085 30.9024C19.8979 30.9031 20.0873 30.9035 20.2767 30.9038C20.3408 30.904 20.4049 30.9041 20.469 30.9044C20.801 30.9055 21.1324 30.9045 21.4641 30.8915C21.4891 30.8906 21.5142 30.8896 21.54 30.8887C22.1752 30.8606 22.7934 30.6793 23.2346 30.2113C23.592 29.7737 23.6659 29.1672 23.6264 28.6243C23.5894 28.3186 23.4789 27.9879 23.2346 27.7796C23.1512 27.7204 23.0649 27.6721 22.9734 27.626C22.9509 27.6146 22.9284 27.6033 22.9053 27.5916C22.7417 27.5173 22.5762 27.4755 22.4004 27.4404C22.3796 27.4362 22.3588 27.4321 22.3373 27.4277C22.0176 27.3684 21.6949 27.3664 21.3706 27.3675C21.3307 27.3676 21.2908 27.3676 21.2509 27.3676C21.147 27.3677 21.0431 27.368 20.9393 27.3683C20.8328 27.3685 20.7263 27.3686 20.6199 27.3688C20.4118 27.369 20.2038 27.3695 19.9958 27.37Z" fill="white"/>
<path d="M42.8484 20.4813C43.4054 21.0248 43.7715 21.7516 43.9216 22.5064C43.9216 22.5317 43.9216 22.5571 43.9216 22.5832C43.688 22.6644 43.4544 22.7457 43.2207 22.8266C43.1922 22.8365 43.1636 22.8464 43.1342 22.8566C43.0742 22.8774 43.0143 22.8981 42.9543 22.9189C42.7736 22.9815 42.5929 23.0445 42.4123 23.1077C42.2755 23.1556 42.1387 23.2033 42.0018 23.2508C41.9184 23.2798 41.8351 23.3089 41.7518 23.3382C41.6583 23.3711 41.5646 23.4036 41.4709 23.4361C41.4288 23.451 41.4288 23.451 41.3859 23.4662C41.3601 23.4751 41.3343 23.484 41.3077 23.4931C41.274 23.5048 41.274 23.5048 41.2397 23.5168C41.1733 23.5315 41.1375 23.5292 41.0746 23.5047C41.0493 23.4609 41.0493 23.4609 41.0317 23.4037C41.0249 23.3826 41.0181 23.3616 41.011 23.3399C41.004 23.3172 40.997 23.2945 40.9897 23.2711C40.875 22.9278 40.7267 22.6212 40.4738 22.3528C40.459 22.3369 40.4442 22.321 40.4289 22.3046C40.321 22.2011 40.1971 22.1324 40.0641 22.0648C40.0397 22.0522 40.0397 22.0522 40.0148 22.0393C39.7442 21.9086 39.4561 21.8782 39.1581 21.8808C39.1119 21.8811 39.1119 21.8811 39.0648 21.8814C38.7337 21.8876 38.4638 21.9484 38.1773 22.118C38.1231 22.148 38.1231 22.148 38.0709 22.148C38.0709 22.1649 38.0709 22.1818 38.0709 22.1992C37.9541 22.3016 37.9541 22.3016 37.888 22.3016C37.8809 22.3166 37.8739 22.3316 37.8666 22.3471C37.8361 22.4033 37.8022 22.4464 37.7607 22.4952C37.5747 22.7332 37.5239 23.0327 37.5485 23.3255C37.6122 23.6486 37.7541 23.8403 38.0269 24.023C38.6613 24.4285 39.4136 24.6805 40.1229 24.9301C40.9632 25.2261 41.8222 25.5741 42.5112 26.1412C42.541 26.1652 42.541 26.1652 42.5714 26.1897C43.2173 26.7274 43.5991 27.5573 43.68 28.3745C43.6828 28.4236 43.685 28.4726 43.6865 28.5217C43.6876 28.5501 43.6886 28.5785 43.6897 28.6077C43.7045 29.4024 43.5212 30.177 43.138 30.8767C43.1242 30.9037 43.1105 30.9307 43.0963 30.9586C43.0525 31.0443 43.0043 31.1265 42.9552 31.2094C42.9379 31.2094 42.9207 31.2094 42.9029 31.2094C42.9029 31.2348 42.9029 31.2601 42.9029 31.2862C42.8857 31.2862 42.8685 31.2862 42.8507 31.2862C42.8421 31.32 42.8335 31.3538 42.8246 31.3886C42.8073 31.3886 42.7901 31.3886 42.7723 31.3886C42.7637 31.4224 42.7551 31.4562 42.7462 31.491C42.729 31.491 42.7118 31.491 42.694 31.491C42.687 31.5116 42.68 31.5322 42.6728 31.5534C42.6625 31.5751 42.6523 31.5967 42.6418 31.619C42.6159 31.6274 42.59 31.6359 42.5634 31.6446C42.5452 31.6783 42.5279 31.7126 42.5112 31.747C42.3932 31.8923 42.2668 32.0181 42.1118 32.1249C42.0561 32.1644 42.0103 32.2106 41.9626 32.2589C41.8408 32.3613 41.8408 32.3613 41.7798 32.3613C41.7798 32.3782 41.7798 32.3951 41.7798 32.4125C41.6653 32.4893 41.6653 32.4893 41.597 32.4893C41.597 32.5062 41.597 32.5231 41.597 32.5405C41.5731 32.5531 41.5731 32.5531 41.5488 32.566C41.5259 32.5782 41.503 32.5904 41.4794 32.6029C41.4398 32.6239 41.4398 32.6239 41.3993 32.6454C41.3375 32.679 41.2766 32.713 41.2159 32.7484C39.8198 33.555 37.9316 33.7001 36.3761 33.318C35.8656 33.1863 35.3953 32.9924 34.9626 32.6941C34.9213 32.6658 34.9213 32.6658 34.8792 32.637C33.9844 31.9939 33.5054 31.0574 33.2126 30.032C33.2041 30.0024 33.2041 30.0024 33.1953 29.9723C33.167 29.8698 33.1585 29.7794 33.1604 29.6736C33.5261 29.5773 33.8919 29.4813 34.2578 29.3855C34.4806 29.3272 34.7032 29.2685 34.9258 29.2095C35.0529 29.1758 35.1801 29.1423 35.3073 29.1089C35.368 29.0929 35.4287 29.0768 35.4893 29.0606C35.5739 29.0381 35.6586 29.0158 35.7433 28.9937C35.7807 28.9836 35.7807 28.9836 35.8189 28.9732C35.842 28.9673 35.865 28.9613 35.8887 28.9552C35.9186 28.9473 35.9186 28.9473 35.949 28.9392C36.0178 28.9299 36.0711 28.9404 36.138 28.9569C36.1437 28.9851 36.1495 29.0133 36.1554 29.0424C36.2686 29.5816 36.434 30.0711 36.8432 30.4671C36.8672 30.4915 36.8672 30.4915 36.8917 30.5163C37.2968 30.8989 37.8892 30.9655 38.4245 30.9589C38.9094 30.9454 39.3548 30.8058 39.7425 30.5183C39.7648 30.502 39.787 30.4857 39.8099 30.4689C40.0947 30.2299 40.2275 29.8764 40.2649 29.52C40.2668 29.5022 40.2687 29.4844 40.2706 29.466C40.2853 29.1754 40.1596 28.8739 39.9792 28.6481C39.5224 28.1708 38.741 27.9822 38.1349 27.771C37.6453 27.6003 37.1607 27.4256 36.6865 27.2163C36.66 27.2046 36.6336 27.1929 36.6063 27.1809C36.1354 26.9713 35.7103 26.7411 35.3283 26.3972C35.3056 26.377 35.2828 26.3568 35.2593 26.336C34.6982 25.8137 34.2881 25.0212 34.2532 24.2573C34.252 24.1498 34.251 24.0424 34.2509 23.935C34.2509 23.9156 34.2508 23.8961 34.2508 23.876C34.2512 23.4392 34.2623 22.9064 34.4664 22.5064C35.0611 22.4937 35.0611 22.4937 35.6679 22.4808C35.6679 22.3963 35.6679 22.3118 35.6679 22.2248C35.6709 22.169 35.6747 22.1133 35.6794 22.0576C35.6832 22.0124 35.6832 22.0124 35.6871 21.9662C35.6899 21.9345 35.6927 21.9028 35.6955 21.8701C35.6984 21.8368 35.7012 21.8035 35.7041 21.7692C35.7101 21.6992 35.7161 21.6292 35.7222 21.5592C35.73 21.4698 35.7377 21.3805 35.7452 21.2912C35.7525 21.2053 35.76 21.1193 35.7673 21.0334C35.7701 21.0016 35.7728 20.9697 35.7756 20.9369C35.7828 20.8542 35.7904 20.7716 35.7985 20.689C35.8003 20.6696 35.8021 20.6501 35.804 20.6301C35.8143 20.5394 35.8214 20.5131 35.8886 20.4444C35.9165 20.4248 35.9444 20.4052 35.9731 20.385C35.9884 20.3742 36.0036 20.3634 36.0193 20.3523C36.0672 20.3188 36.1155 20.2862 36.1641 20.2538C36.1786 20.244 36.1931 20.2341 36.208 20.224C37.9825 19.0243 40.9839 18.9064 42.8484 20.4813Z" fill="white"/>
<path d="M29.4429 19.5606C29.6557 19.5608 29.8686 19.5609 30.0815 19.5609C30.4608 19.5609 30.8401 19.5611 31.2193 19.5614C31.5865 19.5616 31.9537 19.5618 32.3208 19.5619C32.3437 19.5619 32.3665 19.5619 32.3901 19.5619C32.5048 19.5619 32.6195 19.562 32.7342 19.562C33.6772 19.5623 34.6202 19.5627 35.5631 19.5633C35.5633 19.612 35.5634 19.6608 35.5635 19.7095C35.5636 19.7367 35.5637 19.7638 35.5638 19.7918C35.5629 19.895 35.5561 19.9971 35.5472 20.0999C35.5455 20.1206 35.5438 20.1413 35.542 20.1627C35.5365 20.23 35.5307 20.2972 35.525 20.3645C35.521 20.4118 35.517 20.4592 35.513 20.5065C35.5047 20.6052 35.4963 20.7038 35.4879 20.8024C35.4771 20.9285 35.4665 21.0547 35.4561 21.1808C35.448 21.2783 35.4397 21.3758 35.4314 21.4733C35.4274 21.5199 35.4235 21.5664 35.4197 21.6129C35.4143 21.6779 35.4087 21.7428 35.403 21.8078C35.4007 21.8362 35.4007 21.8362 35.3984 21.8653C35.3875 21.9859 35.3629 22.0803 35.3281 22.1998C34.3368 22.1998 33.3456 22.1998 32.3243 22.1998C32.3157 22.3519 32.3071 22.5039 32.2982 22.6606C32.2791 22.9087 32.2791 22.9087 32.2717 22.9957C32.2692 23.0249 32.2692 23.0249 32.2667 23.0547C32.265 23.0748 32.2633 23.095 32.2615 23.1158C32.2578 23.1597 32.2542 23.2035 32.2505 23.2473C32.2406 23.3664 32.2305 23.4855 32.2205 23.6045C32.2096 23.7334 32.1988 23.8623 32.188 23.9913C32.1669 24.2432 32.1457 24.4951 32.1244 24.7469C32.1072 24.9516 32.09 25.1562 32.0728 25.3608C32.0703 25.39 32.0679 25.4192 32.0654 25.4492C32.0604 25.5085 32.0554 25.5678 32.0504 25.6271C32.0037 26.182 31.957 26.7368 31.9103 27.2916C31.8675 27.7995 31.8248 28.3074 31.7821 28.8153C31.7383 29.3372 31.6944 29.8591 31.6505 30.3809C31.6258 30.6738 31.6011 30.9666 31.5766 31.2595C31.5557 31.5085 31.5347 31.7575 31.5137 32.0064C31.5029 32.1335 31.4922 32.2606 31.4816 32.3877C31.4719 32.5039 31.4621 32.62 31.4522 32.7362C31.4487 32.7783 31.4451 32.8205 31.4416 32.8627C31.4369 32.9197 31.432 32.9767 31.4272 33.0338C31.4245 33.0655 31.4218 33.0973 31.419 33.13C31.4101 33.2066 31.4101 33.2066 31.384 33.2834C30.2894 33.2834 29.1947 33.2834 28.0669 33.2834C28.0971 32.7211 28.0971 32.7211 28.1195 32.4593C28.1211 32.4399 28.1228 32.4206 28.1245 32.4006C28.1262 32.3805 28.1279 32.3604 28.1297 32.3397C28.1333 32.2959 28.137 32.2522 28.1407 32.2084C28.1506 32.0897 28.1606 31.971 28.1707 31.8523C28.1816 31.7237 28.1924 31.5951 28.2032 31.4665C28.2243 31.2154 28.2455 30.9642 28.2667 30.713C28.284 30.5089 28.3012 30.3049 28.3184 30.1008C28.3208 30.0717 28.3233 30.0426 28.3258 30.0126C28.3308 29.9535 28.3358 29.8943 28.3408 29.8352C28.3874 29.2819 28.4342 28.7286 28.4809 28.1753C28.5237 27.6688 28.5664 27.1623 28.6091 26.6558C28.6529 26.1353 28.6968 25.6149 28.7407 25.0944C28.7654 24.8023 28.79 24.5103 28.8146 24.2182C28.8355 23.9699 28.8565 23.7216 28.8775 23.4734C28.8882 23.3467 28.8989 23.2199 28.9096 23.0932C28.9193 22.9774 28.9291 22.8615 28.9389 22.7457C28.9425 22.7037 28.946 22.6616 28.9495 22.6196C28.9543 22.5627 28.9591 22.5059 28.964 22.449C28.9667 22.4173 28.9694 22.3857 28.9721 22.353C28.981 22.2766 28.981 22.2766 29.0072 22.1998C28.0332 22.1998 27.0592 22.1998 26.0557 22.1998C26.0718 21.8682 26.0893 21.5387 26.1177 21.2082C26.1211 21.1676 26.1245 21.1269 26.1279 21.0863C26.135 21.0024 26.1421 20.9185 26.1493 20.8346C26.1584 20.7276 26.1674 20.6206 26.1764 20.5135C26.1834 20.4301 26.1905 20.3468 26.1975 20.2634C26.2009 20.2239 26.2042 20.1844 26.2075 20.1449C26.2122 20.0899 26.2168 20.0349 26.2216 19.9799C26.2242 19.9488 26.2269 19.9177 26.2296 19.8856C26.2392 19.7863 26.2518 19.6878 26.2646 19.5889C27.3242 19.5664 28.3831 19.5597 29.4429 19.5606Z" fill="white"/>
</g>
</g>
<defs>
<filter id="filter0_d_23303_4440" x="0.5" y="0.333008" width="59" height="63.6953" filterUnits="userSpaceOnUse" color-interpolation-filters="sRGB">
<feFlood flood-opacity="0" result="BackgroundImageFix"/>
<feColorMatrix in="SourceAlpha" type="matrix" values="0 0 0 0 0 0 0 0 0 0 0 0 0 0 0 0 0 0 127 0" result="hardAlpha"/>
<feOffset dy="3"/>
<feGaussianBlur stdDeviation="4"/>
<feComposite in2="hardAlpha" operator="out"/>
<feColorMatrix type="matrix" values="0 0 0 0 0.0666667 0 0 0 0 0.0941176 0 0 0 0 0.152941 0 0 0 0.05 0"/>
<feBlend mode="normal" in2="BackgroundImageFix" result="effect1_dropShadow_23303_4440"/>
<feBlend mode="normal" in="SourceGraphic" in2="effect1_dropShadow_23303_4440" result="shape"/>
</filter>
<clipPath id="clip0_23303_4440">
<rect width="28" height="15" fill="white" transform="translate(16 19)"/>
</clipPath>
</defs>
</svg>
