<svg width="60" height="65" viewBox="0 0 60 65" fill="none" xmlns="http://www.w3.org/2000/svg">
<g filter="url(#filter0_d_18264_6565)">
<path d="M30 6.33331C35.4369 6.33331 40.6516 8.49272 44.4961 12.3372L44.8516 12.7025C48.4732 16.5086 50.5 21.5665 50.5 26.8333C50.5 33.8696 46.6662 39.5593 42.7568 43.555L42.7529 43.5589C40.798 45.5354 38.665 47.3278 36.3809 48.9124L36.374 48.9173L35.4512 49.5452L35.4414 49.5511L35.0088 49.8401L35 49.845L34.9912 49.8509L34.1748 50.3704L34.167 50.3753L34.1582 50.3802L33.4307 50.8245L33.4219 50.8304L33.4131 50.8353L32.5117 51.3597L32.5039 51.3636C31.7411 51.7989 30.8783 52.0286 30 52.0286C29.1217 52.0286 28.2589 51.7989 27.4961 51.3636L27.4883 51.3597L26.5869 50.8353L26.5762 50.8294L26.5664 50.8226L25.4395 50.1292L25.418 50.1155L25.002 49.845L24.9932 49.8392L24.1045 49.2474L24.0986 49.2435C21.6351 47.5766 19.3401 45.6733 17.2471 43.5599L17.2422 43.555V43.554C13.3334 39.5565 9.5 33.8692 9.5 26.8333C9.5 21.3964 11.6594 16.1817 15.5039 12.3372L15.8691 11.9818C19.6753 8.3601 24.7332 6.33331 30 6.33331Z" fill="#044CA2" stroke="white" stroke-width="2"/>
</g>
<path d="M20.1277 21.0856C19.922 21.0856 19.7539 21.2514 19.7539 21.4569H36.3657L35.9348 21.0856H20.1261H20.1277Z" fill="white"/>
<path d="M20.1277 22.0637C19.922 22.0637 19.7539 21.898 19.7539 21.6924H36.3657L35.9348 22.0637H20.1261H20.1277Z" fill="white"/>
<path d="M41.2316 21.5398L41.0863 21.331C41.0308 21.268 40.9639 21.2232 40.8921 21.1967L39.3871 20.7474L38.287 20.0445L37.7059 19.6731L37.2325 19.3714L36.7657 19.0729C36.6922 19.0249 36.6008 19 36.5061 19H27.1221C26.9458 19 26.8022 19.1658 26.8022 19.3714H36.3527L36.8261 19.6731H24.641C24.4647 19.6731 24.3211 19.8389 24.3211 20.0445H37.4072L37.8789 20.3462H22.1583C21.982 20.3462 21.8384 20.512 21.8384 20.7175H36.2237L37.3011 21.578L36.2237 22.4384H21.8384C21.8384 22.644 21.982 22.8098 22.1583 22.8098H37.8789L37.4072 23.1115H24.3211C24.3211 23.3171 24.4647 23.4829 24.641 23.4829H36.8261L36.3527 23.7846H26.8022C26.8022 23.9885 26.9458 24.1559 27.1221 24.1559H36.5061C36.6008 24.1559 36.6922 24.1311 36.7657 24.083L37.2325 23.7846L37.7059 23.4829L38.287 23.1115L39.3871 22.4086L40.8921 21.9576C40.9656 21.9311 41.0308 21.8847 41.0863 21.8233L41.2316 21.6144C41.2398 21.6045 41.2447 21.5912 41.2447 21.578C41.2447 21.5647 41.2398 21.5514 41.2316 21.5415V21.5398Z" fill="white"/>
<path d="M15.6584 28.3934H14V32.0109H15.6584V28.3934Z" fill="white"/>
<path d="M15.6584 26.8035H14V27.9309H15.6584V26.8035Z" fill="white"/>
<path d="M23.7286 27.9491C23.6339 27.7187 23.4985 27.5164 23.3369 27.349C23.172 27.1848 22.9729 27.0472 22.746 26.9511C22.5223 26.8516 22.2824 26.8019 22.0327 26.8019H16.8354V32.0092H18.4939V30.5536H22.0327C22.2824 30.5536 22.5223 30.5039 22.746 30.4044C22.9729 30.3083 23.172 30.174 23.3369 30.0065C23.4985 29.8391 23.6339 29.6368 23.7286 29.4064C23.8265 29.1759 23.8755 28.9306 23.8755 28.6786C23.8755 28.4266 23.8265 28.1779 23.7286 27.9475V27.9491ZM22.0408 29.1113C21.9249 29.2323 21.7797 29.2953 21.6132 29.2953H18.4939V28.0652H21.6132C21.7813 28.0652 21.9249 28.1249 22.0408 28.2459C22.16 28.3669 22.2187 28.5128 22.2187 28.6802C22.2187 28.8477 22.16 28.9919 22.0408 29.1129V29.1113Z" fill="white"/>
<path d="M31.8933 28.3967C31.7561 28.0768 31.5733 27.7966 31.3464 27.5662C31.1163 27.3357 30.8437 27.1467 30.527 27.0091C30.212 26.8732 29.8774 26.8019 29.5313 26.8019H27.0796C26.7336 26.8019 26.399 26.8732 26.0839 27.0091C25.7689 27.1484 25.493 27.3357 25.2662 27.5662C25.036 27.7966 24.8532 28.0768 24.7177 28.3967C24.5839 28.7167 24.5137 29.0566 24.5137 29.408C24.5137 29.7595 24.5839 30.0994 24.7177 30.4193C24.8548 30.7393 25.0376 31.0195 25.2662 31.2499C25.493 31.4837 25.7689 31.6694 26.0839 31.807C26.399 31.9429 26.7336 32.0109 27.0796 32.0109H29.5313C29.879 32.0109 30.212 31.9429 30.527 31.807C30.8421 31.6677 31.1179 31.482 31.3464 31.2499C31.5733 31.0195 31.7561 30.7393 31.8933 30.4193C32.0271 30.0994 32.0973 29.7595 32.0973 29.408C32.0973 29.0566 32.0271 28.7167 31.8933 28.3967ZM30.0863 30.2734C29.8513 30.5122 29.5656 30.6315 29.2359 30.6315H27.38C27.0519 30.6315 26.7662 30.5105 26.5296 30.2734C26.2945 30.0347 26.1737 29.7446 26.1737 29.4064C26.1737 29.0682 26.2945 28.778 26.5296 28.5393C26.7662 28.3006 27.0535 28.1812 27.38 28.1812H29.2359C29.5656 28.1812 29.8513 28.3022 30.0863 28.5393C30.3214 28.778 30.4389 29.0682 30.4389 29.4064C30.4389 29.7446 30.3197 30.0347 30.0863 30.2734Z" fill="white"/>
<path d="M39.8636 30.426C39.8636 30.7111 39.7918 30.978 39.6547 31.2217C39.516 31.4654 39.325 31.6594 39.085 31.8003C38.8451 31.9396 38.5823 32.0092 38.3015 32.0092H33.1206V30.8753H37.7661C37.8853 30.8753 37.9898 30.8305 38.0763 30.7443C38.1612 30.6581 38.2085 30.5487 38.2085 30.4243C38.2085 30.3 38.1644 30.1906 38.0763 30.1043C37.9914 30.0181 37.8853 29.9734 37.7661 29.9734H34.384C34.1033 29.9734 33.8405 29.9004 33.6005 29.7612C33.3606 29.6203 33.1696 29.4263 33.0341 29.1826C32.8954 28.9389 32.8252 28.672 32.8252 28.3868C32.8252 28.1017 32.8954 27.8347 33.0341 27.591C33.1712 27.3473 33.3622 27.1534 33.6005 27.0124C33.8405 26.8732 34.1033 26.8002 34.384 26.8002H39.5633V27.9392H34.9227C34.7986 27.9392 34.6925 27.9839 34.6077 28.0702C34.5228 28.1564 34.4754 28.2641 34.4754 28.3868C34.4754 28.5095 34.5195 28.6139 34.6044 28.7035C34.6893 28.793 34.8003 28.8377 34.9211 28.8377H38.2999C38.5807 28.8377 38.8434 28.909 39.0834 29.0499C39.3233 29.1909 39.5143 29.3848 39.6531 29.6285C39.7902 29.8689 39.862 30.1392 39.862 30.4243L39.8636 30.426Z" fill="white"/>
<path d="M46.9998 26.8035V28.2426H44.5758V32.0109H42.9174V28.2426H40.4951V26.8035H46.9998Z" fill="white"/>
<path d="M18.6535 33.7765V33.9622H17.7639V34.3186H18.5768V34.5043H17.7639V34.9801H17.5664V33.7748H18.6535V33.7765Z" fill="white"/>
<path d="M19.3998 33.7765H19.6038L20.2453 34.9818H20.0331L19.8895 34.7032H19.119L18.9754 34.9818H18.7632L19.403 33.7765H19.3998ZM19.803 34.5308L19.5026 33.9688L19.2006 34.5308H19.803Z" fill="white"/>
<path d="M21.4663 34.1064C21.4402 34.0501 21.401 34.0086 21.3504 33.9804C21.2998 33.9522 21.2345 33.9373 21.1545 33.9373H20.8722C20.7905 33.9373 20.7285 33.9506 20.6861 33.9788C20.642 34.0053 20.6208 34.0434 20.6208 34.0932C20.6208 34.1296 20.6355 34.1628 20.6632 34.191C20.691 34.2192 20.7432 34.2391 20.8183 34.2523L21.2965 34.3103C21.3586 34.3203 21.4092 34.3369 21.4516 34.3584C21.4941 34.38 21.5267 34.4065 21.5512 34.438C21.5757 34.4695 21.5936 34.5027 21.605 34.5408C21.6165 34.5789 21.6214 34.6187 21.6214 34.6602C21.6214 34.7629 21.5822 34.8442 21.5055 34.9072C21.4288 34.9685 21.3178 35 21.1758 35H20.8868C20.7579 35 20.6518 34.9768 20.5669 34.9287C20.482 34.8806 20.4249 34.8143 20.3906 34.7248L20.5604 34.6187C20.5881 34.6917 20.6289 34.7447 20.6844 34.7779C20.7399 34.811 20.8085 34.8259 20.8901 34.8259H21.179C21.2606 34.8259 21.3243 34.811 21.3651 34.7812C21.4075 34.7513 21.4288 34.7099 21.4288 34.6568C21.4288 34.6088 21.4141 34.5723 21.3831 34.5441C21.352 34.5159 21.3047 34.496 21.2361 34.4828L20.7416 34.4198C20.6844 34.4098 20.6355 34.3932 20.5963 34.3733C20.5571 34.3535 20.5245 34.3286 20.5 34.3004C20.4755 34.2722 20.4575 34.2407 20.4461 34.2076C20.4347 34.1727 20.4298 34.1363 20.4298 34.0981C20.4298 33.9937 20.469 33.9125 20.5457 33.8511C20.6224 33.7914 20.735 33.7616 20.8819 33.7616H21.1611C21.2737 33.7616 21.3667 33.7815 21.4418 33.8213C21.5169 33.8611 21.5708 33.9158 21.6034 33.9854L21.4679 34.1081L21.4663 34.1064Z" fill="white"/>
<path d="M23.0038 33.7765V33.9655H22.4929V34.9801H22.2938V33.9655H21.7812V33.7765H23.0038Z" fill="white"/>
<path d="M24.3583 33.7765H24.5623L25.2038 34.9818H24.9916L24.848 34.7032H24.0775L23.9339 34.9818H23.7217L24.3615 33.7765H24.3583ZM24.7614 34.5308L24.4611 33.9688L24.1591 34.5308H24.7598H24.7614Z" fill="white"/>
<path d="M26.5525 33.7765H26.7484V34.9818H26.5623L25.6417 34.0766V34.9818H25.4458V33.7765H25.6319L26.5525 34.6833V33.7765Z" fill="white"/>
<path d="M27.8043 33.7765C27.9022 33.7765 27.9904 33.7898 28.0671 33.818C28.1438 33.8461 28.2075 33.8859 28.2613 33.9373C28.3152 33.9887 28.3544 34.0534 28.3821 34.1263C28.4099 34.1993 28.4229 34.2838 28.4229 34.3767C28.4229 34.4695 28.4099 34.5524 28.3821 34.627C28.3544 34.7016 28.3152 34.7646 28.2613 34.816C28.2091 34.869 28.1438 34.9088 28.0671 34.9354C27.9904 34.9619 27.9039 34.9768 27.8043 34.9768H27.0894V33.7715H27.8043V33.7765ZM27.2885 34.7944H27.8043C27.9398 34.7944 28.0442 34.758 28.1177 34.6834C28.1895 34.6088 28.2271 34.5076 28.2271 34.38C28.2271 34.2507 28.1912 34.1495 28.1177 34.0749C28.0442 34.0003 27.9414 33.9622 27.8043 33.9622H27.2885V34.7944Z" fill="white"/>
<path d="M30.3654 33.7765V33.9572H29.4758V34.2921H30.2887V34.4711H29.4758V34.7994H30.3654V34.9801H29.2783V33.7748H30.3654V33.7765Z" fill="white"/>
<path d="M31.1898 33.7765H31.3939L32.0353 34.9818H31.8231L31.6795 34.7032H30.9091L30.7654 34.9818H30.5532L31.1931 33.7765H31.1898ZM31.593 34.5308L31.2926 33.9688L30.9907 34.5308H31.5914H31.593Z" fill="white"/>
<path d="M33.2563 34.1064C33.2302 34.0501 33.1911 34.0086 33.1405 33.9804C33.0899 33.9522 33.0246 33.9373 32.9446 33.9373H32.6622C32.5806 33.9373 32.5185 33.9506 32.4761 33.9788C32.432 34.0053 32.4108 34.0434 32.4108 34.0932C32.4108 34.1296 32.4255 34.1628 32.4533 34.191C32.481 34.2192 32.5332 34.2391 32.6083 34.2523L33.0866 34.3103C33.1486 34.3203 33.1992 34.3369 33.2417 34.3584C33.2841 34.38 33.3167 34.4065 33.3412 34.438C33.3657 34.4695 33.3837 34.5027 33.3951 34.5408C33.4065 34.5789 33.4114 34.6187 33.4114 34.6602C33.4114 34.7629 33.3722 34.8442 33.2955 34.9072C33.2188 34.9685 33.1078 35 32.9658 35H32.6769C32.5479 35 32.4418 34.9768 32.357 34.9287C32.2721 34.8806 32.2149 34.8143 32.1807 34.7248L32.3504 34.6187C32.3782 34.6917 32.419 34.7447 32.4745 34.7779C32.53 34.811 32.5985 34.8259 32.6801 34.8259H32.9691C33.0507 34.8259 33.1143 34.811 33.1551 34.7812C33.1976 34.7513 33.2188 34.7099 33.2188 34.6568C33.2188 34.6088 33.2041 34.5723 33.1731 34.5441C33.1421 34.5159 33.0947 34.496 33.0262 34.4828L32.5316 34.4198C32.4745 34.4098 32.4255 34.3932 32.3863 34.3733C32.3472 34.3535 32.3145 34.3286 32.29 34.3004C32.2655 34.2722 32.2476 34.2407 32.2362 34.2076C32.2247 34.1727 32.2198 34.1363 32.2198 34.0981C32.2198 33.9937 32.259 33.9125 32.3357 33.8511C32.4124 33.7914 32.5251 33.7616 32.672 33.7616H32.9511C33.0637 33.7616 33.1568 33.7815 33.2319 33.8213C33.3069 33.8611 33.3608 33.9158 33.3935 33.9854L33.258 34.1081L33.2563 34.1064Z" fill="white"/>
<path d="M34.2452 34.3799L34.7218 33.7765H34.9569L34.3448 34.5491V34.9801H34.1456V34.5507L33.5352 33.7765H33.7702L34.2452 34.3799Z" fill="white"/>
<path d="M35.6885 34.3783C35.6885 34.2822 35.7032 34.1976 35.7309 34.1214C35.7587 34.0451 35.8011 33.9804 35.855 33.9274C35.9088 33.8743 35.9758 33.8329 36.0525 33.8031C36.1308 33.7732 36.2173 33.7599 36.3169 33.7599H36.5601C36.6532 33.7599 36.7364 33.7716 36.8099 33.7914C36.8833 33.8113 36.9502 33.8495 37.0074 33.9025L36.8947 34.0501C36.8507 34.0119 36.8017 33.9838 36.7462 33.9688C36.6907 33.9523 36.6287 33.944 36.5601 33.944H36.3169C36.25 33.944 36.1896 33.9539 36.1357 33.9738C36.0819 33.9937 36.0378 34.0235 36.0002 34.06C35.9627 34.0982 35.935 34.1429 35.9137 34.196C35.8925 34.249 35.8844 34.3087 35.8844 34.3734C35.8844 34.4413 35.8941 34.501 35.9137 34.5541C35.9333 34.6071 35.9627 34.6535 36.0002 34.69C36.0378 34.7281 36.0819 34.7563 36.1357 34.7762C36.1896 34.7961 36.2484 34.8061 36.3169 34.8061H36.5601C36.7021 34.8061 36.8148 34.7712 36.8947 34.7L37.0074 34.8475C36.9502 34.8989 36.8849 34.9354 36.8131 34.9569C36.7413 34.9785 36.6564 34.9901 36.5601 34.9901H36.3169C36.219 34.9901 36.1308 34.9752 36.0525 34.947C35.9741 34.9188 35.9088 34.8773 35.855 34.8226C35.8011 34.7679 35.7587 34.7049 35.7309 34.627C35.7032 34.5491 35.6885 34.4645 35.6885 34.3717V34.3783Z" fill="white"/>
<path d="M37.766 33.7765H37.97L38.6115 34.9818H38.3993L38.2557 34.7032H37.4852L37.3416 34.9818H37.1294L37.7693 33.7765H37.766ZM38.1692 34.5308L37.8688 33.9688L37.5669 34.5308H38.1692Z" fill="white"/>
<path d="M40.1001 34.9818H39.8797L39.612 34.5839H39.0505V34.9818H38.853V33.7765H39.5974C39.6773 33.7765 39.7475 33.7864 39.8063 33.8063C39.8651 33.8262 39.9156 33.8544 39.9548 33.8892C39.994 33.924 40.0234 33.9671 40.043 34.0169C40.0626 34.0666 40.0723 34.123 40.0723 34.1843C40.0723 34.2772 40.0495 34.3534 40.0071 34.4181C39.963 34.4827 39.8961 34.5275 39.8047 34.554L40.1034 34.9801L40.1001 34.9818ZM39.0489 33.9572V34.4098H39.5957C39.6888 34.4098 39.7573 34.3916 39.8047 34.3534C39.852 34.3153 39.8748 34.2606 39.8748 34.1876C39.8748 34.1114 39.852 34.055 39.8047 34.0169C39.7573 33.9787 39.6888 33.9589 39.5957 33.9589H39.0489V33.9572Z" fill="white"/>
<path d="M40.9377 33.7616H41.1891C41.287 33.7616 41.3752 33.7732 41.4503 33.7931C41.527 33.8147 41.5939 33.8511 41.651 33.9042L41.54 34.0517C41.496 34.0136 41.4454 33.9854 41.3882 33.9705C41.3311 33.9539 41.2642 33.9456 41.1891 33.9456H40.9377C40.8675 33.9456 40.8039 33.9556 40.7484 33.9755C40.6929 33.9954 40.6472 34.0252 40.608 34.0617C40.5688 34.0982 40.5411 34.1446 40.5215 34.1976C40.5019 34.2507 40.4921 34.3104 40.4921 34.3767C40.4921 34.443 40.5019 34.5027 40.5215 34.5557C40.5411 34.6088 40.5705 34.6552 40.6064 34.6917C40.6439 34.7298 40.6896 34.758 40.7418 34.7795C40.7957 34.8011 40.8561 34.811 40.923 34.811H41.1646C41.2119 34.811 41.2544 34.8077 41.2936 34.7994C41.3327 34.7911 41.3686 34.7795 41.3997 34.7646C41.4307 34.7497 41.4552 34.7298 41.4764 34.7049C41.4976 34.6801 41.509 34.6519 41.5156 34.6204V34.5242H41.1516V34.3618H41.6804V34.9801H41.5613L41.5515 34.8243C41.5172 34.8856 41.465 34.9304 41.3964 34.9569C41.3278 34.9834 41.2479 34.9967 41.1548 34.9967H40.9116C40.8153 34.9967 40.7288 34.9818 40.6521 34.9536C40.5754 34.9254 40.5101 34.8823 40.4578 34.8293C40.404 34.7746 40.3632 34.7099 40.3354 34.6336C40.3077 34.5574 40.293 34.4728 40.293 34.3783C40.293 34.2838 40.3077 34.1993 40.337 34.123C40.3664 34.0468 40.4089 33.9821 40.4627 33.9274C40.5182 33.8727 40.5852 33.8312 40.6635 33.8031C40.7435 33.7732 40.8333 33.7599 40.9345 33.7599L40.9377 33.7616Z" fill="white"/>
<path d="M41.9136 34.3783C41.9136 34.2822 41.9283 34.1976 41.956 34.123C41.9838 34.0484 42.0262 33.9821 42.0801 33.929C42.1339 33.8743 42.2009 33.8329 42.2776 33.8047C42.3559 33.7749 42.4424 33.7616 42.542 33.7616H42.8015C42.8995 33.7616 42.9876 33.7765 43.066 33.8047C43.1443 33.8329 43.2112 33.876 43.2651 33.929C43.319 33.9837 43.3614 34.0484 43.3892 34.123C43.4185 34.1993 43.4316 34.2838 43.4316 34.3767C43.4316 34.4728 43.4169 34.5574 43.3892 34.6336C43.3614 34.7099 43.319 34.7745 43.2651 34.8293C43.2112 34.884 43.1443 34.9238 43.066 34.9536C42.9876 34.9834 42.8995 34.9967 42.8015 34.9967H42.542C42.4441 34.9967 42.3559 34.9818 42.2776 34.9536C42.1992 34.9254 42.1339 34.884 42.0801 34.8293C42.0262 34.7745 41.9838 34.7115 41.956 34.6336C41.9283 34.5557 41.9136 34.4712 41.9136 34.3783ZM42.1111 34.3783C42.1111 34.4446 42.1209 34.5043 42.1405 34.559C42.1601 34.6137 42.1878 34.6585 42.2237 34.695C42.2596 34.7314 42.3053 34.7613 42.3592 34.7812C42.4131 34.8011 42.4735 34.811 42.542 34.811H42.8015C42.9403 34.811 43.0464 34.7729 43.1215 34.695C43.1966 34.617 43.2341 34.5109 43.2341 34.3783C43.2341 34.3103 43.2243 34.2507 43.2047 34.1976C43.1851 34.1446 43.1574 34.0998 43.1215 34.0617C43.0856 34.0252 43.0399 33.9954 42.986 33.9755C42.9321 33.9556 42.8701 33.9456 42.8015 33.9456H42.542C42.4735 33.9456 42.4131 33.9556 42.3592 33.9755C42.3053 33.9954 42.2596 34.0252 42.2237 34.0617C42.1878 34.0981 42.1584 34.1446 42.1405 34.1976C42.1225 34.2507 42.1111 34.3103 42.1111 34.3767V34.3783Z" fill="white"/>
<defs>
<filter id="filter0_d_18264_6565" x="0.5" y="0.333313" width="59" height="63.6951" filterUnits="userSpaceOnUse" color-interpolation-filters="sRGB">
<feFlood flood-opacity="0" result="BackgroundImageFix"/>
<feColorMatrix in="SourceAlpha" type="matrix" values="0 0 0 0 0 0 0 0 0 0 0 0 0 0 0 0 0 0 127 0" result="hardAlpha"/>
<feOffset dy="3"/>
<feGaussianBlur stdDeviation="4"/>
<feComposite in2="hardAlpha" operator="out"/>
<feColorMatrix type="matrix" values="0 0 0 0 0.0666667 0 0 0 0 0.0941176 0 0 0 0 0.152941 0 0 0 0.05 0"/>
<feBlend mode="normal" in2="BackgroundImageFix" result="effect1_dropShadow_18264_6565"/>
<feBlend mode="normal" in="SourceGraphic" in2="effect1_dropShadow_18264_6565" result="shape"/>
</filter>
</defs>
</svg>
