<svg width="72" height="36" viewBox="0 0 72 36" fill="none" xmlns="http://www.w3.org/2000/svg">
<path d="M13.3693 4.69263C12.9205 4.69263 12.5537 5.06564 12.5537 5.52818H48.7977L47.8575 4.69263H13.3657H13.3693Z" fill="#0132C5"/>
<path d="M13.3693 6.89342C12.9205 6.89342 12.5537 6.5204 12.5537 6.05786H48.7977L47.8575 6.89342H13.3657H13.3693Z" fill="#0132C5"/>
<path d="M59.4141 5.71464L59.0971 5.24464C58.976 5.10289 58.83 5.00218 58.6733 4.94249L55.3897 3.93161L52.9894 2.35002L51.7215 1.51445L50.6887 0.835558L49.6702 0.164129C49.5099 0.0559537 49.3105 0 49.1039 0H28.6297C28.2451 0 27.9317 0.373015 27.9317 0.835558H48.7692L49.802 1.51445H23.2164C22.8318 1.51445 22.5184 1.88747 22.5184 2.35002H51.0698L52.0991 3.02891H17.7996C17.415 3.02891 17.1016 3.40193 17.1016 3.86447H48.4878L50.8383 5.80044L48.4878 7.7364H17.1016C17.1016 8.19894 17.415 8.57196 17.7996 8.57196H52.0991L51.0698 9.25086H22.5184C22.5184 9.7134 22.8318 10.0864 23.2164 10.0864H49.802L48.7692 10.7653H27.9317C27.9317 11.2241 28.2451 11.6009 28.6297 11.6009H49.1039C49.3105 11.6009 49.5099 11.5449 49.6702 11.4367L50.6887 10.7653L51.7215 10.0864L52.9894 9.25086L55.3897 7.66926L58.6733 6.65465C58.8336 6.59496 58.976 6.49052 59.0971 6.3525L59.4141 5.8825C59.4319 5.86012 59.4426 5.83028 59.4426 5.80044C59.4426 5.7706 59.4319 5.74075 59.4141 5.71837V5.71464Z" fill="#01010B"/>
<path d="M3.61834 21.1353H0V29.2745H3.61834V21.1353Z" fill="#0132C5"/>
<path d="M3.61834 17.558H0V20.0945H3.61834V17.558Z" fill="#0132C5"/>
<path d="M21.2257 20.1355C21.0191 19.617 20.7235 19.1619 20.3709 18.7852C20.0112 18.4159 19.5767 18.1063 19.0817 17.8899C18.5938 17.6661 18.0703 17.5542 17.5254 17.5542H6.18604V29.2707H9.80438V25.9956H17.5254C18.0703 25.9956 18.5938 25.8837 19.0817 25.6599C19.5767 25.4435 20.0112 25.1414 20.3709 24.7646C20.7235 24.3879 21.0191 23.9328 21.2257 23.4143C21.4393 22.8958 21.5462 22.3438 21.5462 21.7768C21.5462 21.2098 21.4393 20.6503 21.2257 20.1318V20.1355ZM17.5432 22.7503C17.2904 23.0226 16.9734 23.1644 16.6101 23.1644H9.80438V20.3966H16.6101C16.977 20.3966 17.2904 20.5309 17.5432 20.8032C17.8032 21.0755 17.9314 21.4037 17.9314 21.7805C17.9314 22.1572 17.8032 22.4818 17.5432 22.7541V22.7503Z" fill="#01010B"/>
<path d="M39.0394 21.1426C38.7402 20.4227 38.3414 19.7923 37.8463 19.2738C37.3442 18.7553 36.7494 18.3301 36.0585 18.0205C35.3712 17.7146 34.6411 17.5542 33.8861 17.5542H28.5369C27.7819 17.5542 27.0519 17.7146 26.3645 18.0205C25.6772 18.3338 25.0753 18.7553 24.5803 19.2738C24.0781 19.7923 23.6792 20.4227 23.3836 21.1426C23.0916 21.8626 22.9385 22.6273 22.9385 23.418C22.9385 24.2088 23.0916 24.9735 23.3836 25.6935C23.6828 26.4134 24.0817 27.0438 24.5803 27.5623C25.0753 28.0882 25.6772 28.506 26.3645 28.8156C27.0519 29.1215 27.7819 29.2744 28.5369 29.2744H33.8861C34.6447 29.2744 35.3712 29.1215 36.0585 28.8156C36.7459 28.5023 37.3477 28.0845 37.8463 27.5623C38.3414 27.0438 38.7402 26.4134 39.0394 25.6935C39.3314 24.9735 39.4846 24.2088 39.4846 23.418C39.4846 22.6273 39.3314 21.8626 39.0394 21.1426ZM35.097 25.3652C34.5841 25.9024 33.9609 26.1709 33.2415 26.1709H29.1922C28.4764 26.1709 27.8532 25.8986 27.3368 25.3652C26.8239 24.8281 26.5604 24.1753 26.5604 23.4143C26.5604 22.6534 26.8239 22.0006 27.3368 21.4634C27.8532 20.9263 28.48 20.6577 29.1922 20.6577H33.2415C33.9609 20.6577 34.5841 20.93 35.097 21.4634C35.6098 22.0006 35.8662 22.6534 35.8662 23.4143C35.8662 24.1753 35.6062 24.8281 35.097 25.3652Z" fill="#01010B"/>
<path d="M56.4298 25.7084C56.4298 26.35 56.2731 26.9506 55.974 27.4989C55.6713 28.0473 55.2546 28.4837 54.7311 28.8008C54.2075 29.1141 53.6342 29.2708 53.0216 29.2708H41.7179V26.7193H51.8535C52.1135 26.7193 52.3414 26.6186 52.5301 26.4246C52.7153 26.2307 52.8186 25.9845 52.8186 25.7047C52.8186 25.425 52.7225 25.1788 52.5301 24.9848C52.3449 24.7908 52.1135 24.6901 51.8535 24.6901H44.4743C43.8618 24.6901 43.2884 24.526 42.7649 24.2126C42.2414 23.8956 41.8247 23.4591 41.5291 22.9108C41.2264 22.3625 41.0732 21.7619 41.0732 21.1203C41.0732 20.4787 41.2264 19.8782 41.5291 19.3298C41.8283 18.7815 42.2449 18.3451 42.7649 18.028C43.2884 17.7147 43.8618 17.5505 44.4743 17.5505H55.7745V20.1132H45.6496C45.3789 20.1132 45.1474 20.2139 44.9623 20.4079C44.7771 20.6018 44.6738 20.8443 44.6738 21.1203C44.6738 21.3964 44.7699 21.6314 44.9551 21.8328C45.1403 22.0342 45.3825 22.1349 45.646 22.1349H53.018C53.6306 22.1349 54.204 22.2953 54.7275 22.6124C55.251 22.9295 55.6677 23.3659 55.9704 23.9142C56.2696 24.4551 56.4263 25.0631 56.4263 25.7047L56.4298 25.7084Z" fill="#01010B"/>
<path d="M72.0001 17.558V20.7958H66.7115V29.2745H63.0932V20.7958H57.8081V17.558H72.0001Z" fill="#01010B"/>
<path d="M10.1536 33.2471V33.6649H8.21267V34.4669H9.98622V34.8847H8.21267V35.9552H7.78174V33.2434H10.1536V33.2471Z" fill="#0132C5"/>
<path d="M11.781 33.2471H12.2262L13.6258 35.9589H13.1628L12.8494 35.3322H11.1685L10.8551 35.9589H10.3921L11.7881 33.2471H11.781ZM12.6607 34.9443L12.0054 33.6798L11.3465 34.9443H12.6607Z" fill="#0132C5"/>
<path d="M16.2898 33.9894C16.2328 33.8625 16.1474 33.7693 16.037 33.7059C15.9266 33.6425 15.7841 33.6089 15.6096 33.6089H14.9935C14.8154 33.6089 14.6801 33.6387 14.5875 33.7022C14.4913 33.7618 14.445 33.8476 14.445 33.9595C14.445 34.0416 14.4771 34.1162 14.5376 34.1796C14.5982 34.243 14.7121 34.2878 14.8759 34.3176L15.9194 34.4482C16.0548 34.4706 16.1652 34.5079 16.2578 34.5564C16.3504 34.6049 16.4216 34.6645 16.475 34.7354C16.5284 34.8063 16.5676 34.8809 16.5925 34.9667C16.6175 35.0525 16.6281 35.142 16.6281 35.2353C16.6281 35.4665 16.5427 35.6493 16.3753 35.7911C16.2079 35.9291 15.9657 35.9999 15.6559 35.9999H15.0255C14.7442 35.9999 14.5127 35.9477 14.3275 35.8395C14.1423 35.7314 14.0177 35.5822 13.9429 35.3807L14.3133 35.142C14.3738 35.3061 14.4628 35.4255 14.5839 35.5001C14.705 35.5747 14.8546 35.6083 15.0326 35.6083H15.663C15.8411 35.6083 15.98 35.5747 16.069 35.5076C16.1616 35.4404 16.2079 35.3472 16.2079 35.2278C16.2079 35.1196 16.1758 35.0376 16.1082 34.9741C16.0405 34.9107 15.9372 34.866 15.7877 34.8361L14.7086 34.6944C14.5839 34.672 14.4771 34.6347 14.3916 34.5899C14.3061 34.5452 14.2349 34.4892 14.1815 34.4258C14.1281 34.3624 14.0889 34.2915 14.064 34.2169C14.039 34.1386 14.0283 34.0565 14.0283 33.9707C14.0283 33.7357 14.1138 33.5529 14.2812 33.4149C14.4486 33.2806 14.6943 33.2135 15.0148 33.2135H15.6238C15.8696 33.2135 16.0726 33.2583 16.2364 33.3478C16.4002 33.4373 16.5177 33.5604 16.589 33.7171L16.2934 33.9931L16.2898 33.9894Z" fill="#0132C5"/>
<path d="M19.6445 33.2471V33.6723H18.5298V35.9552H18.0953V33.6723H16.9771V33.2471H19.6445Z" fill="#0132C5"/>
<path d="M22.6004 33.2471H23.0455L24.4451 35.9589H23.9822L23.6688 35.3322H21.9878L21.6744 35.9589H21.2114L22.6075 33.2471H22.6004ZM23.48 34.9443L22.8247 33.6798L22.1659 34.9443H23.4765H23.48Z" fill="#0132C5"/>
<path d="M27.3868 33.2471H27.8141V35.9589H27.4081L25.3995 33.9222V35.9589H24.9722V33.2471H25.3782L27.3868 35.2875V33.2471Z" fill="#0132C5"/>
<path d="M30.1185 33.2472C30.3322 33.2472 30.5245 33.277 30.6919 33.3404C30.8592 33.4038 30.9981 33.4933 31.1157 33.609C31.2332 33.7246 31.3187 33.8701 31.3792 34.0342C31.4397 34.1983 31.4682 34.3886 31.4682 34.5975C31.4682 34.8064 31.4397 34.9929 31.3792 35.1607C31.3187 35.3286 31.2332 35.4703 31.1157 35.586C31.0017 35.7053 30.8592 35.7949 30.6919 35.8545C30.5245 35.9142 30.3357 35.9478 30.1185 35.9478H28.5586V33.236H30.1185V33.2472ZM28.9931 35.5375H30.1185C30.4141 35.5375 30.642 35.4554 30.8023 35.2876C30.959 35.1197 31.0409 34.8922 31.0409 34.6049C31.0409 34.314 30.9625 34.0864 30.8023 33.9186C30.642 33.7507 30.4176 33.6649 30.1185 33.6649H28.9931V35.5375Z" fill="#0132C5"/>
<path d="M35.7063 33.2471V33.6537H33.7654V34.4072H35.539V34.8101H33.7654V35.5487H35.7063V35.9552H33.3345V33.2434H35.7063V33.2471Z" fill="#0132C5"/>
<path d="M37.5047 33.2471H37.9498L39.3494 35.9589H38.8865L38.5731 35.3322H36.8921L36.5787 35.9589H36.1157L37.5118 33.2471H37.5047ZM38.3843 34.9443L37.729 33.6798L37.0702 34.9443H38.3807H38.3843Z" fill="#0132C5"/>
<path d="M42.0134 33.9894C41.9565 33.8625 41.871 33.7693 41.7606 33.7059C41.6502 33.6425 41.5077 33.6089 41.3332 33.6089H40.7171C40.539 33.6089 40.4037 33.6387 40.3111 33.7022C40.215 33.7618 40.1687 33.8476 40.1687 33.9595C40.1687 34.0416 40.2007 34.1162 40.2613 34.1796C40.3218 34.243 40.4358 34.2878 40.5996 34.3176L41.6431 34.4482C41.7784 34.4706 41.8888 34.5079 41.9814 34.5564C42.074 34.6049 42.1452 34.6645 42.1986 34.7354C42.2521 34.8063 42.2912 34.8809 42.3162 34.9667C42.3411 35.0525 42.3518 35.142 42.3518 35.2353C42.3518 35.4665 42.2663 35.6493 42.0989 35.7911C41.9315 35.9291 41.6894 35.9999 41.3795 35.9999H40.7492C40.4678 35.9999 40.2363 35.9477 40.0511 35.8395C39.8659 35.7314 39.7413 35.5822 39.6665 35.3807L40.0369 35.142C40.0974 35.3061 40.1865 35.4255 40.3075 35.5001C40.4286 35.5747 40.5782 35.6083 40.7563 35.6083H41.3866C41.5647 35.6083 41.7036 35.5747 41.7926 35.5076C41.8852 35.4404 41.9315 35.3472 41.9315 35.2278C41.9315 35.1196 41.8995 35.0376 41.8318 34.9741C41.7641 34.9107 41.6609 34.866 41.5113 34.8361L40.4322 34.6944C40.3076 34.672 40.2007 34.6347 40.1152 34.5899C40.0298 34.5452 39.9585 34.4892 39.9051 34.4258C39.8517 34.3624 39.8125 34.2915 39.7876 34.2169C39.7627 34.1386 39.752 34.0565 39.752 33.9707C39.752 33.7357 39.8374 33.5529 40.0048 33.4149C40.1722 33.2806 40.418 33.2135 40.7385 33.2135H41.3475C41.5932 33.2135 41.7962 33.2583 41.96 33.3478C42.1238 33.4373 42.2414 33.5604 42.3126 33.7171L42.017 33.9931L42.0134 33.9894Z" fill="#0132C5"/>
<path d="M44.1718 34.6049L45.2117 33.2471H45.7245L44.389 34.9853V35.9552H43.9545V34.9891L42.6226 33.2471H43.1354L44.1718 34.6049Z" fill="#0132C5"/>
<path d="M47.3198 34.6012C47.3198 34.3849 47.3519 34.1946 47.4124 34.023C47.473 33.8514 47.5656 33.706 47.6831 33.5866C47.8006 33.4672 47.9466 33.374 48.114 33.3068C48.285 33.2397 48.4737 33.2098 48.6909 33.2098H49.2216C49.4246 33.2098 49.6062 33.236 49.7665 33.2807C49.9267 33.3255 50.0728 33.4113 50.1974 33.5306L49.9517 33.8626C49.8555 33.7768 49.7487 33.7134 49.6276 33.6798C49.5065 33.6425 49.3712 33.6239 49.2216 33.6239H48.6909C48.5449 33.6239 48.4132 33.6463 48.2956 33.691C48.1781 33.7358 48.082 33.8029 48 33.885C47.9181 33.9708 47.8576 34.0715 47.8113 34.1909C47.765 34.3102 47.7472 34.4445 47.7472 34.59C47.7472 34.7429 47.7686 34.8772 47.8113 34.9966C47.854 35.116 47.9181 35.2204 48 35.3025C48.082 35.3883 48.1781 35.4517 48.2956 35.4964C48.4132 35.5412 48.5414 35.5636 48.6909 35.5636H49.2216C49.5314 35.5636 49.7772 35.4853 49.9517 35.3249L50.1974 35.6568C50.0728 35.7725 49.9303 35.8545 49.7736 35.903C49.6169 35.9515 49.4317 35.9776 49.2216 35.9776H48.6909C48.4773 35.9776 48.285 35.9441 48.114 35.8807C47.9431 35.8172 47.8006 35.724 47.6831 35.6009C47.5656 35.4778 47.473 35.336 47.4124 35.1607C47.3519 34.9854 47.3198 34.7952 47.3198 34.5863V34.6012Z" fill="#0132C5"/>
<path d="M51.8533 33.2471H52.2985L53.6981 35.9589H53.2351L52.9217 35.3322H51.2407L50.9273 35.9589H50.4644L51.8604 33.2471H51.8533ZM52.733 34.9443L52.0777 33.6798L51.4188 34.9443H52.733Z" fill="#0132C5"/>
<path d="M56.946 35.9589H56.4652L55.8811 35.0637H54.656V35.9589H54.2251V33.2471H55.8491C56.0236 33.2471 56.1767 33.2694 56.3049 33.3142C56.4332 33.359 56.5435 33.4224 56.629 33.5007C56.7145 33.5791 56.7786 33.676 56.8213 33.7879C56.8641 33.8998 56.8854 34.0267 56.8854 34.1647C56.8854 34.3736 56.8356 34.5452 56.743 34.6906C56.6468 34.8361 56.5008 34.9368 56.3014 34.9965L56.9531 35.9552L56.946 35.9589ZM54.6525 33.6537V34.672H55.8455C56.0485 34.672 56.1981 34.631 56.3014 34.5452C56.4047 34.4594 56.4545 34.3363 56.4545 34.1721C56.4545 34.0006 56.4047 33.8737 56.3014 33.7879C56.1981 33.7021 56.0485 33.6574 55.8455 33.6574H54.6525V33.6537Z" fill="#0132C5"/>
<path d="M58.773 33.2136H59.3214C59.5351 33.2136 59.7274 33.2397 59.8912 33.2844C60.0586 33.3329 60.2046 33.415 60.3293 33.5344L60.0871 33.8664C59.9909 33.7806 59.8805 33.7171 59.7559 33.6836C59.6312 33.6463 59.4852 33.6276 59.3214 33.6276H58.773C58.6198 33.6276 58.4809 33.65 58.3598 33.6948C58.2387 33.7395 58.139 33.8067 58.0536 33.8887C57.9681 33.9708 57.9075 34.0752 57.8648 34.1946C57.8221 34.314 57.8007 34.4483 57.8007 34.5975C57.8007 34.7467 57.8221 34.881 57.8648 35.0003C57.9075 35.1197 57.9716 35.2241 58.05 35.3062C58.1319 35.392 58.2316 35.4554 58.3456 35.5039C58.4631 35.5524 58.5949 35.5748 58.7409 35.5748H59.268C59.3713 35.5748 59.4639 35.5673 59.5493 35.5487C59.6348 35.53 59.7131 35.5039 59.7808 35.4703C59.8485 35.4368 59.9019 35.392 59.9482 35.336C59.9945 35.2801 60.0194 35.2167 60.0337 35.1458V34.9294H59.2395V34.5639H60.3934V35.9552H60.1334L60.112 35.6046C60.0372 35.7426 59.9233 35.8433 59.7737 35.903C59.6241 35.9627 59.4496 35.9926 59.2466 35.9926H58.716C58.5058 35.9926 58.3171 35.959 58.1497 35.8956C57.9823 35.8322 57.8399 35.7352 57.7259 35.6158C57.6084 35.4927 57.5194 35.3472 57.4588 35.1756C57.3983 35.0041 57.3662 34.8138 57.3662 34.6012C57.3662 34.3886 57.3983 34.1983 57.4624 34.0268C57.5265 33.8552 57.6191 33.7097 57.7366 33.5866C57.8577 33.4635 58.0037 33.3702 58.1746 33.3068C58.3492 33.2397 58.545 33.2098 58.7658 33.2098L58.773 33.2136Z" fill="#0132C5"/>
<path d="M60.9028 34.6011C60.9028 34.3848 60.9349 34.1945 60.9954 34.0267C61.056 33.8588 61.1486 33.7096 61.2661 33.5902C61.3836 33.4671 61.5296 33.3739 61.697 33.3105C61.868 33.2433 62.0567 33.2135 62.274 33.2135H62.8402C63.0539 33.2135 63.2462 33.2471 63.4172 33.3105C63.5881 33.3739 63.7341 33.4709 63.8516 33.5902C63.9692 33.7133 64.0618 33.8588 64.1223 34.0267C64.1864 34.1983 64.2149 34.3885 64.2149 34.5974C64.2149 34.8137 64.1828 35.004 64.1223 35.1756C64.0618 35.3472 63.9692 35.4926 63.8516 35.6157C63.7341 35.7388 63.5881 35.8284 63.4172 35.8955C63.2462 35.9626 63.0539 35.9925 62.8402 35.9925H62.274C62.0603 35.9925 61.868 35.9589 61.697 35.8955C61.5261 35.8321 61.3836 35.7388 61.2661 35.6157C61.1486 35.4926 61.056 35.3509 60.9954 35.1756C60.9349 35.0003 60.9028 34.81 60.9028 34.6011ZM61.3338 34.6011C61.3338 34.7503 61.3551 34.8846 61.3979 35.0077C61.4406 35.1308 61.5011 35.2315 61.5795 35.3136C61.6578 35.3956 61.7576 35.4628 61.8751 35.5076C61.9926 35.5523 62.1244 35.5747 62.274 35.5747H62.8402C63.1429 35.5747 63.3744 35.4889 63.5382 35.3136C63.7021 35.1383 63.784 34.8995 63.784 34.6011C63.784 34.4482 63.7626 34.3139 63.7199 34.1945C63.6771 34.0752 63.6166 33.9745 63.5382 33.8887C63.4599 33.8066 63.3602 33.7394 63.2426 33.6947C63.1251 33.6499 62.9898 33.6275 62.8402 33.6275H62.274C62.1244 33.6275 61.9926 33.6499 61.8751 33.6947C61.7576 33.7394 61.6578 33.8066 61.5795 33.8887C61.5011 33.9707 61.437 34.0752 61.3979 34.1945C61.3587 34.3139 61.3338 34.4482 61.3338 34.5974V34.6011Z" fill="#0132C5"/>
</svg>
