<svg width="60" height="65" viewBox="0 0 60 65" fill="none" xmlns="http://www.w3.org/2000/svg">
<g filter="url(#filter0_d_23303_4331)">
<path d="M30 6.33331C35.4369 6.33331 40.6516 8.49272 44.4961 12.3372C48.3406 16.1817 50.5 21.3964 50.5 26.8333C50.5 33.8696 46.6662 39.5593 42.7568 43.555L42.7529 43.5589C40.798 45.5354 38.665 47.3278 36.3809 48.9124L36.374 48.9173L35.4512 49.5452L35.4414 49.5511L35.0088 49.8401L35 49.845L34.9912 49.8509L34.1748 50.3704L34.167 50.3753L34.1582 50.3802L33.4307 50.8245L33.4219 50.8304L33.4131 50.8353L32.5117 51.3597L32.5039 51.3636C31.7411 51.7989 30.8783 52.0286 30 52.0286C29.1217 52.0286 28.2589 51.7989 27.4961 51.3636L27.4883 51.3597L26.5869 50.8353L26.5762 50.8294L26.5664 50.8226L25.4395 50.1292L25.418 50.1155L25.002 49.845L24.9932 49.8392L24.1045 49.2474L24.0986 49.2435C21.6351 47.5766 19.3401 45.6733 17.2471 43.5599L17.2422 43.555V43.554C13.3334 39.5565 9.5 33.8692 9.5 26.8333C9.5 21.3964 11.6594 16.1817 15.5039 12.3372C19.3484 8.49272 24.5631 6.33331 30 6.33331Z" fill="#192088" stroke="white" stroke-width="2"/>
</g>
<path fill-rule="evenodd" clip-rule="evenodd" d="M23.1434 23L32.3837 32.7278L30.7551 34.4423L19.8861 23H23.1434ZM28.0295 23L34.8267 30.1557L33.1981 31.8703L24.7721 23H28.0295ZM18.2574 23L29.656 35H28.5425C27.1174 35 25.8906 34.465 24.8829 33.4042L15 23H18.2574Z" fill="white"/>
<path fill-rule="evenodd" clip-rule="evenodd" d="M32.3316 25.8091C34.682 25.8091 37.5892 25.8091 40.0621 25.8091C42.1051 25.8091 43.2533 26.9708 43.599 27.3341L45.0002 28.8089C44.2085 28.8089 43.4169 28.8091 42.6255 28.8091L38.2608 33.4043C37.2535 34.4649 36.0262 35 34.6014 35H31.8589C33.819 32.9363 35.7792 30.8728 37.7392 28.809L36.6049 28.8089C35.8426 28.8089 34.973 28.5914 34.0424 27.6112L32.3316 25.8091Z" fill="white"/>
<defs>
<filter id="filter0_d_23303_4331" x="0.5" y="0.333313" width="59" height="63.6951" filterUnits="userSpaceOnUse" color-interpolation-filters="sRGB">
<feFlood flood-opacity="0" result="BackgroundImageFix"/>
<feColorMatrix in="SourceAlpha" type="matrix" values="0 0 0 0 0 0 0 0 0 0 0 0 0 0 0 0 0 0 127 0" result="hardAlpha"/>
<feOffset dy="3"/>
<feGaussianBlur stdDeviation="4"/>
<feComposite in2="hardAlpha" operator="out"/>
<feColorMatrix type="matrix" values="0 0 0 0 0.0666667 0 0 0 0 0.0941176 0 0 0 0 0.152941 0 0 0 0.05 0"/>
<feBlend mode="normal" in2="BackgroundImageFix" result="effect1_dropShadow_23303_4331"/>
<feBlend mode="normal" in="SourceGraphic" in2="effect1_dropShadow_23303_4331" result="shape"/>
</filter>
</defs>
</svg>
